<?xml version="1.0" encoding="utf-8"?>
<!-- Generator: Adobe Adobe Illustrator 24.2.0, SVG Export Plug-In . SVG Version: 6.00 Build 0)  -->
<svg version="1.1" id="Vectorlaag_1_" xmlns="http://www.w3.org/2000/svg" xmlns:xlink="http://www.w3.org/1999/xlink" x="0px"
	 y="0px" width="375px" height="375px" viewBox="0 0 375 375" style="enable-background:new 0 0 375 375;" xml:space="preserve">
<style type="text/css">
	.st0{fill:#F18B47;}
	.st1{fill:#7C7C7C;}
	.st2{fill:#ABABAB;}
	.st3{fill:#595959;}
</style>
<path class="st0" d="M19.24,250.25c-0.09,0.26-0.18,0.52-0.26,0.78c-0.28,0.59-0.54,1.18-0.8,1.78c-0.1-0.47-0.19-0.94-0.28-1.4
	c-1.17-5.87-2.11-12.02-1.96-18.03c0.73,3.6,1.54,7.18,2.46,10.73c0.42,1.65,0.87,3.28,1.33,4.91
	C19.54,249.42,19.38,249.83,19.24,250.25z"/>
<path class="st1" d="M275.05,223.25c-2.83,8.2-9.71,12.64-16.22,17.47c-16.63,13.58-37.28-1.38-40.43-19.92
	c-2.82,0.31-5.72,0.12-8.45-0.59c-5.91,7.52-17.12,9-24.44,2.68c-0.26,0.15-0.52,0.3-0.78,0.44c-2.87,1.51-6.29,2.15-9.64,1.94
	c-6.59,5.21-16.03,4.38-21.99-1.32c-3.31,4.45-7.25,8.47-12.33,10.87c-4.64,2.19-10.18,3.44-15.22,1.97
	c-12.8,20.93-36.66,18.5-43.91-5.21c-0.06,0.01-0.12,0.01-0.18,0.01c-5.14,0.03-10.15-2.33-14.2-5.67
	c-13.18,14-29.86,5.97-32.86-11.87c-3.98-2.54-5.99-7.25-6.38-11.82c0.01-0.12,0.01-0.25,0.01-0.37c0-0.58-0.11-1.16-0.34-1.71
	c-0.97-2.3-1.93-4.6-2.87-6.91c-0.15-0.55-0.34-1.09-0.52-1.62c-0.12-0.36-0.25-0.71-0.38-1.06c0.53-1.4,0.81-2.9,0.81-4.47
	c0-0.58-0.04-1.18-0.12-1.77c-0.04-0.26-0.08-0.5-0.12-0.76c0.26-3.37,0.36-6.82-0.19-10.12c-0.55-3.31-1.49-6.51-2.23-9.77
	c-0.1-0.69-0.18-1.38-0.25-2.08c-0.22-4.39-0.48-8.77-0.97-13.14c-0.07-0.88-0.05-1.75-0.04-2.63c0.05-1.86-0.34-3.66-1.06-5.28
	c0.36-0.7,0.78-1.39,1.25-2.05c-0.38-19.45,3.28-70.47,15.86-84.6c10.9-11.92,29.15-3.66,35.16,9.19
	c4.64,7.85,7.06,17.26,13.56,23.89c8.83,6.19,16.98,13.36,25.74,19.57c11.49-6.13,26.49-11.78,38.93-5.14
	c6.82-2.8,14.92-2.92,21.51,0.53c12.69-4.77,26.97,3.18,32.41,14.97c12.91-0.78,25.88,7.41,31.59,18.86
	c1.03,0.77,2.02,1.58,2.98,2.42c2.44,2,3.85,4.97,6.52,6.73c9.28,3.32,16.17,11.64,19.08,20.9c10.31,5.32,14.43,20.93,14.43,35.48
	C278.77,209.69,277.4,217.74,275.05,223.25z"/>
<path class="st1" d="M48.92,67.44c-0.62,0.61-1.32,1.14-2.05,1.59c-4.1,9.17-4.34,19.64-6.38,29.5
	c-1.03,15.85-3.33,31.58-4.74,47.39c-0.6,8.03,0.07,16.05,1.05,24.02c0.75,8.6-5.84,13.27-12.26,13.1c0.23-3.21,0.29-6.47-0.23-9.61
	c-0.55-3.3-1.5-6.5-2.24-9.76c-0.1-0.69-0.18-1.39-0.24-2.08c-0.23-4.4-0.48-8.77-0.98-13.14c-0.06-0.88-0.05-1.75-0.03-2.64
	c0.14-5.26-3.18-9.89-7.75-11.99c0.95-9.03,2.26-18.05,3.06-27.08c-2.56-12.68,0.59-26.04,2.37-38.72
	c0.97-6.98,3.72-14.11,9.94-17.88c5.3-9.17,18.57-6.72,22.21,2.65c-0.25-0.38-0.5-0.75-0.75-1.14c-0.14-0.16-0.28-0.32-0.42-0.48
	c1.91,2.33,2.9,5.16,2.9,7.98C52.4,62.15,51.27,65.12,48.92,67.44z"/>
<path class="st1" d="M23.64,35.73c0.01,0.04,0.03,0.09,0.04,0.13c0.01,0.05,0.01,0.1,0.01,0.14C23.68,35.91,23.66,35.82,23.64,35.73
	z"/>
<path class="st1" d="M117.87,109.8c0.69,8.04-7.23,15.42-15.27,12.85c-5.65-1.6-7.73-6.46-10.02-11.17
	c-2.43-4.92-5.18-9.61-8.12-14.21c-11.57,6-18.48-5.56-23.23-14.29c-5.44-9.53-12.34-18.11-17.65-27.7
	c-0.72,3.46-1.23,7.52-3.55,10.32c-6.9,8.82-21.36,3.61-21.15-7.55c0.5-5.4,0.67-11.11,1.97-16.45c0.11-0.04,0.21-0.1,0.31-0.15
	c1.69-0.88,2.62-2.6,2.64-4.37c0,0.03,0,0.05,0.01,0.08c0-0.1,0.01-0.19,0.01-0.29c0.01-0.09,0.04-0.18,0.05-0.26
	c0.46-1.62,1.04-3.2,1.65-4.76c1.26-2.9,2.65-5.74,3.95-8.61c-0.01,0.03-0.02,0.06-0.03,0.09c0.01-0.04,0.04-0.08,0.05-0.12
	c0,0,0,0,0,0c0,0,0-0.01,0.01-0.01c0.01-0.02,0.01-0.05,0.03-0.07c0-0.01,0.01-0.01,0.01-0.02c0,0,0.01-0.01,0.01-0.01
	c0.01-0.01,0.01-0.02,0.02-0.04c0.01-0.01,0.01-0.03,0.02-0.04c0.74-1.62,1.43-3.26,2.16-4.89c1.1-0.2,2.14-0.77,2.85-1.7
	c0.33-0.43,0.65-0.88,0.97-1.34c0.13,0.07,0.27,0.14,0.41,0.19c0.67,0.25,1.3,0.48,2,0.66c0.55,0.14,1.1,0.25,1.66,0.37
	c0.56,0.15,1.11,0.34,1.65,0.53c0.59,0.24,1.18,0.48,1.75,0.76c0.1,0.07,0.2,0.12,0.3,0.2c0.8,0.62,1.56,1.32,2.36,1.94
	c0.62,0.49,1.32,0.89,2,1.3c0.19,0.13,0.38,0.26,0.57,0.41c0.44,0.38,0.86,0.78,1.29,1.17c0.95,0.94,1.93,1.85,2.9,2.78
	c0.4,0.42,0.8,0.85,1.18,1.28c0.38,0.46,0.75,0.92,1.12,1.39c1.32,1.78,2.71,3.49,4.15,5.18c0.29,0.37,0.58,0.74,0.88,1.11
	c1.24,1.67,2.54,3.28,3.92,4.83c-0.15-0.17-0.3-0.34-0.45-0.5c0.81,0.97,1.62,1.92,2.45,2.87c-0.01-0.01-0.03-0.04-0.05-0.05
	c0.62,0.75,1.25,1.48,1.9,2.19c-0.14-0.15-0.29-0.31-0.43-0.48c2.03,2.35,4.46,4.37,6.84,6.35c0.85,0.72,1.71,1.41,2.65,2.03
	c0.83,0.55,1.71,1.01,2.57,1.51c0.11,0.08,0.22,0.16,0.33,0.24c0.91,0.71,1.78,1.43,2.93,1.71c0.12,0.03,0.25,0.05,0.38,0.07
	c3.01,4.19,6.08,8.34,9.29,12.39c5.37,6.79,10.41,13.77,14.95,21.15c7.38,1.9,11.34,9.58,11.34,16.8
	C118.37,106.95,118.2,108.4,117.87,109.8z M29.54,23.08c0-0.01,0.01-0.02,0.01-0.03C29.55,23.07,29.54,23.07,29.54,23.08
	C29.54,23.08,29.54,23.08,29.54,23.08z"/>
<path class="st1" d="M29.5,23.18C29.49,23.19,29.49,23.19,29.5,23.18C29.49,23.19,29.49,23.18,29.5,23.18L29.5,23.18z"/>
<path class="st1" d="M29.49,23.2c0,0,0,0.01-0.01,0.02C29.48,23.2,29.49,23.2,29.49,23.2C29.49,23.19,29.49,23.19,29.49,23.2z"/>
<path class="st1" d="M294.52,136.42c-0.24,3.09-1.67,5.83-3.87,7.83c6.38,5.89,3.58,17.36-4.76,19.81
	c-8.69,1.21-16.37,1.63-24.47,4.98c-4.52,2-8.87,4.38-13.24,6.67c-15.76,6.42-24.25-16.14-8.3-22.38c-1.1-0.97-2.05-2.03-2.92-3.33
	c-1.24-1.85-1.9-4.05-1.94-6.26c-0.94-0.34-1.87-0.72-2.8-1.15c-1.74-0.8-3.22-2.09-4.32-3.64c-0.64,0.03-1.27,0.07-1.91,0.1
	c-7.38,7.47-20.28,1.33-20.42-8.8c-5.21-1.16-10.95-3.22-12.7-8.8c-14.29-0.53-28.58-0.23-42.86,0.31
	c-11.44,0.09-23.01,2.07-34.38,0.73c-6.9-1.29-11.08-8.91-8.8-15.46c1.92-6.83,9.26-8.4,15.25-9.92c12.17-3.41,24.6-5.79,37.23-6.57
	c16.9-1.04,34.04-2.14,50.74,1.35c5.22,1.09,10.68,0.58,15.84,2.16c9.02,4.21,18.68,7.47,27.78,11.87c5.05,1.56,9.88,3.71,14.72,5.8
	c4.77,1.37,8.63,5.53,8.99,10.56c7.85-0.13,17.2,4.38,17.2,13.06C294.57,135.68,294.55,136.05,294.52,136.42z"/>
<path class="st1" d="M307.75,160.19c-0.45,8.94-9.65,11.01-16.52,13.64c-7.19,2.87-13.97,6.52-20.5,10.65
	c-13.38,8.06-25.82-10.91-13.01-19.8c8.42-5.61,18.96-10.26,27.6-14.86c2.81-0.77,5.62-1.6,8.47-2.19
	c6.78-1.41,14.05,4.35,14.05,11.22C307.84,159.3,307.81,159.74,307.75,160.19z"/>
<path class="st1" d="M324.34,162.3c-0.72,9.7-10.33,14.91-18.89,16.72c-6.49,2.25-14.82,2.46-18.54-4.25
	c-28.66,3.11-29.17-25.94-5.66-35.18c0.07-0.94,0.25-1.87,0.53-2.77c-2.49,0.74-4.96,1.51-7.43,2.28c-15,4.3-21.99-17.29-7.29-22.55
	c14.45-3.66,37.32-15.45,46.57,2.38c9.58,1.78,13.72,13.86,7.41,21.21c0.25,3.08-0.42,6.24-1.78,9c-0.06,0.12-0.12,0.25-0.19,0.37
	c3.2,2.85,5.36,7,5.36,11.32C324.43,161.32,324.4,161.81,324.34,162.3z"/>
<path class="st1" d="M333.9,71.99c-1.25,3-3.9,5.08-5.71,7.72c-0.49,6.82-6.04,11.49-10.06,16.55
	c-7.03,8.24-14.33,16.05-20.74,24.82c-10.08,11.9-27.87-2.13-18.59-14.7c12.79-15.26,23.13-32.46,35.99-47.62
	c7.94-7.76,20.09-0.98,20.1,8.54C334.88,68.81,334.58,70.39,333.9,71.99z"/>
<path class="st1" d="M316.68,91.78c-7.75,5.8-14.05,13.26-20.62,20.33c-0.23,2.78-1.43,5.51-3.52,7.63
	c-4.79,4.88-9.64,9.7-14.29,14.7c-4.64,7.64-13.58,11.71-20.85,4.71c-9.43-10.16,3.79-20.7,9.36-29.04
	c11.03-13.27,22.21-26.83,35.91-37.44c9.28-6.34,18.87,1.39,18.87,9.82C321.53,85.73,320.11,89.09,316.68,91.78z"/>
<path class="st1" d="M358.39,49.59c-7.55,15.11-12.58,31.35-19.68,46.69c-10.18,21.91-21.12,43.66-25.47,67.65
	c-2.31,10.01-17.34,11.49-21.8,2.37c-3.55-7.37,1.22-15.52,2.38-23c3.98-15.39,10.72-29.81,17.52-44.1
	c-13.64-6.27-5.04-23.16,1.34-31.9c6.22-9.17,14.72-16.36,21.11-25.38c2.74-3.85,6.14-7.55,10.92-8.63
	c7.55-2.25,14.72,4.54,14.72,11.75C359.42,46.57,359.09,48.11,358.39,49.59z"/>
<path class="st1" d="M358.93,65.07c-14.43,18.9-31.21,36.33-44.76,56.04c-4.63,6.89-9.25,13.8-13.86,20.71
	c-1.78,2.69-4.24,4.69-7.44,5.45c-9.67,2.69-18.54-9.15-12.91-17.61c17.85-28.09,38.67-54.3,61.04-78.86
	c8.14-6.16,18.95,0.83,18.95,9.63C359.95,61.94,359.63,63.5,358.93,65.07z"/>
<path class="st1" d="M360.75,102.84c-0.13,5.49-1.91,10.65-3.66,15.79c0.64,11.79,5.63,36.76-3.6,45.24
	c0.67,7.24-1.88,14.36-2.64,21.54c-0.77,6.13-2.38,12.07-4.77,17.77c-3.56,13.91-11.48,26.34-23.35,34.62
	c-6.4,4.29-14.4,10.48-22.43,7.11c-13.67-5.48-8.15-21.85-1.26-30.75c-5.05,2.82-11.06,4.15-16.33,1c-1.48-0.88-2.71-2-3.69-3.28
	c-7.85,1.71-16.38-4.19-16.63-12.42c-3.13-5.22-1.63-11.87,3.16-15.63c5.97-4.26,11.41-9.86,18.56-12.06
	c4.71-1.26,9.95-1.02,14.06,1.59c6.16,0.63,12.23,3.13,16.03,8.21c0.17,0.04,0.34,0.09,0.51,0.13c-9.42-8.35,1.4-23.08,2.67-33.41
	c2.68-19.84,5.1-39.81,10.87-59.07c1.89-6.65,4.16-13.12,5.98-18.19c1.45-4.14,2.51-8.6,5.62-11.85c9.31-9.18,24.71,2.1,18.79,13.69
	c-0.19,0.38-0.39,0.76-0.61,1.13c0.01,0.02,0.03,0.04,0.04,0.05c0.23-0.37,0.44-0.76,0.58-1.18l0.03,0.04
	c-0.1,0.23-0.19,0.47-0.29,0.7c-0.07,0.2-0.13,0.39-0.2,0.58c4.45,6,2.07,13.72-0.07,20.15c1.71,2.33,2.67,5.25,2.67,8.17
	C360.75,102.62,360.75,102.73,360.75,102.84z"/>
<path class="st1" d="M333.8,180.99c-4.91,7.36-15.26,6.67-22.69,10.09c-8.38,14.05-28.22,1.89-20.99-12.31
	c6-10.92,20.16-11.56,30.77-15.39c7.65-2.21,14.62,4.7,14.62,11.85C335.51,177.19,334.99,179.17,333.8,180.99z"/>
<path class="st1" d="M324.76,189.45c-1.26,2.91-3.7,5.23-6.66,6.36c-2.76,1.05-5.6,0.93-8.34,0.01c0.26,0.1,0.53,0.19,0.79,0.29
	c0.46,0.1,0.92,0.2,1.39,0.31c-11.25-1.13-14.13-17.09-4.17-22.2c8.45-4.57,17.99,2.15,18,10.56
	C325.76,186.3,325.45,187.88,324.76,189.45z"/>
<path class="st1" d="M342.77,259.29c-2.24,10.15-7.29,19.29-13.14,27.77c-5.59,8.78-10.63,18.58-19.74,24.25
	c-13.61,8.33-28.15,14.96-43.66,18.62c-2.79-4.77-8.57-7.85-14.13-6.35c-3.18,0.85-6.42,1.42-9.65,1.98
	c-5.51,0.68-11.04,1.04-16.57,1.59c-5.11,0.5-10.21,1.1-15.32,1.62c-3.53,0.36-6.73,1.73-9.1,4.44c-0.01,0.01-0.01,0.02-0.02,0.03
	c-16.2-0.97-32.27-4.69-46.98-11.2c-14.59-4.01-28.78-9.67-42.05-16.93c-22.23-11.62-84.87-58.3-65.72-86.58
	c-1.45-13.01,11.3-25.71,24.09-19.32c8.47,4.62,15.38,11.71,23.62,16.77c22.2-13.69,67.22-20.73,82.41,5.99
	c1.08,0.08,2.16,0.18,3.25,0.29c2.98,0.29,5.94,0.67,8.91,1.06c-5.39-7.38,0.41-18.83,9.61-18.62c3.11,0.03,6.15,0.34,9.2,0.75
	c7.43,0.12,14.87-0.09,22.3-0.35c6.9-0.62,15.79-0.55,18.84,7c2.83-2.66,7.2-3.5,10.78-2.62c0.07,0.02,0.15,0.04,0.22,0.07
	c0.35,0.05,0.7,0.1,1.05,0.15c11.82-7.52,26.59-4.09,39.43-1.56c5.3,0.25,10.96,2.07,13.05,7.4c1.56-0.02,3.12,0.26,4.58,0.81
	c2.87-8.86,15.35-11.39,20.98-3.72c3.41,4.98,3,11.46,4.18,17.2c0.66,4.87,1.08,9.79,1.08,14.7
	C344.28,249.48,343.84,254.41,342.77,259.29z"/>
<path class="st1" d="M262.52,325.8c-2.95-2.19-6.73-3.22-10.43-2.22c-3.18,0.86-6.41,1.43-9.65,1.98
	c-5.51,0.68-11.04,1.05-16.57,1.59c-5.11,0.5-10.21,1.1-15.32,1.62c-3.53,0.36-6.73,1.73-9.1,4.44c-1.59,1.82-2.65,4.06-3.06,6.42
	c-1.88,0.07-3.54,0.16-4.94,0.28c-31.34,0.36-63.15-1.65-93.26-10.91c-20.18-8.23-38.45-21.39-53.87-36.72
	c-1.91-2.16-3.52-4.77-4.92-7.41c-2.24-1.84-4.36-3.84-6.36-5.92c-16.79-16.3-20.47-36.35-14.21-58.41
	c0.86-4.28,1.1-9.21,2.29-13.64c0.79-0.01,1.57-0.19,2.26-0.56c1.6-0.86,2.66-2.65,2.66-4.45c0-0.58-0.1-1.16-0.34-1.71
	c-0.16-0.38-0.32-0.76-0.48-1.14c0.47-0.48,0.97-0.94,1.52-1.37c10.17-6.9,18.34,1.2,22.48,10.46c3.33,1.64,5.85,4.74,6.44,8.77
	c0.72,4.88-1.91,10-6.21,12.28c3.82,4.26,3.29,10.83,5.06,16.08c1.6,4.07,4.87,7.22,8.35,9.75c7.47,2.27,16.55,8.47,16,17.29
	c11.07,9.4,22.67,18.13,34.94,25.91c9.21,4.35,18.6,8.24,28.17,11.76c3.73,1.35,8.15,2.57,11.75,4.66
	c6.26,0.83,12.55,1.32,18.85,1.7c17.77,0.37,35.58-0.74,53.33-1.56c7.17-0.86,14.26-2.25,21.33-3.69
	c7.47-1.51,13.59,5.3,13.59,12.12C262.84,324.06,262.73,324.94,262.52,325.8z"/>
<path class="st1" d="M288.36,314.38c-4.79,11.23-44.65,16.08-57.08,18.95c-6.75,1.16-13.43,2.73-20.16,4
	c-5.15,0.97-10.7,2.06-15.45-0.93c-5.21-3.09-6.31-9.24-5.35-14.76c-0.18-3.6,0.18-8.17,1.03-11.36c-1.81-8.43-1.16-16.64,4.89-23.4
	c10.59-11.99,28.16,3.26,17.89,15.59c0.32,1.63,0.69,3.24,0.94,4.89c0.26,1.72,0.18,3.41-0.07,5.1c15.76-3.17,31.62-5.97,47.24-9.82
	c3.78-1.23,7.49-2.68,11.12-4.31c7.79-3.46,16.14,3.61,16.14,11.28C289.52,311.21,289.16,312.83,288.36,314.38z"/>
<path class="st1" d="M45.63,143.57c-0.6,4.64-3.54,8.77-7.88,10.39c0.88,12.03,1.54,24.44,6.3,35.67
	c4.52,11.8-8.31,19.86-16.82,14.97c0.53-0.81,0.83-1.77,0.83-2.73c0-0.58-0.11-1.16-0.34-1.71c-0.98-2.3-1.94-4.6-2.87-6.91
	c-0.16-0.55-0.34-1.09-0.52-1.62c-0.64-1.89-1.43-3.72-2.22-5.56c-0.11-0.3-0.23-0.6-0.35-0.9c-0.13-0.31-0.29-0.61-0.47-0.88
	c-1.22-3.17-2.38-6.35-3.41-9.61c-0.37-1.5-0.72-2.98-1.01-4.5c-0.32-1.75-0.61-3.52-0.9-5.29c-0.18-1.08-0.73-2.03-1.51-2.73
	c-0.56-9.04-0.31-18.13,0.53-26.92c-0.61-9.62,10.68-15.94,18.46-10.55c7.48-0.7,14.05,5.89,14.05,12.82
	C47.51,139.56,46.93,141.64,45.63,143.57z"/>
<path class="st2" d="M343.21,127.52c-0.61,7.01-3.21,19.64-11.52,20.82c-2.34,0.12-4.67-1.02-5.74-3.17
	c-5.09,0.99-8.15-4.53-8.49-8.91c-5.24-2.02-6.12-8.74-5.92-13.66c-0.01-0.74,0.1-1.49,0.2-2.25c0.17-1.13,0.34-2.27,0.09-3.39
	c0.01,0.07,0.02,0.14,0.03,0.21c-3.06-0.76-3.11-4.34-2.6-6.89c-0.17-0.3-0.29-0.62-0.37-0.97c-0.05-0.21-0.09-0.42-0.12-0.64
	c-6.52,1.11-6.08-8.09,0.12-8.02c0.97-7.84,9.32-4.68,8.42,2.11c1.24-0.23,2.54,0.05,3.71,0.71c1.34,0.78,2.27,1.85,3.04,3.1
	c1.85,0.17,3.66,0.94,5.08,2.12c0.7,0.59,1.32,1.23,1.88,1.91c0.71,0.09,1.43,0.31,2.03,0.59c0.83,0.41,1.59,0.89,2.3,1.48
	c6.2,0.69,7.92,7.53,7.92,13.03C343.28,126.33,343.26,126.94,343.21,127.52z M319.87,120.1c0.08-0.18,0.16-0.36,0.24-0.53
	c-0.04-0.48-0.1-0.97-0.16-1.45c-0.09,0.24-0.17,0.49-0.24,0.74C319.77,119.27,319.82,119.68,319.87,120.1z"/>
<path class="st2" d="M356.03,158.54c-0.99,7.85-1.51,15.71-1.89,23.6c-0.15,4.64-0.5,10.77-6.13,11.79
	c-0.2,2.13-0.06,4.29,0.09,6.45c0.18,2.62,0.36,5.25-0.1,7.79c-1.05,4.12-6.55,6-9.83,3.22c-2.71-2-2.62-5.45-2.61-8.47
	c-0.88-5.31-2.57-10.43-4.87-15.28c-5.86-11.18-13.31-21.51-21.23-31.31c-10.19-10.65-21.19-20.85-29.61-32.95
	c-2.54-5.96,4.1-10.86,9.56-8.31c1.07-3.06,4.47-4.91,7.63-4.42c0.84-0.8,1.87-1.39,2.99-1.67c0.31-0.07,0.61-0.13,0.91-0.16
	c0.21-0.2,0.44-0.38,0.68-0.55c1.12-0.78,2.36-1.21,3.63-1.31c1.33-2.24,2.88-4.36,4.47-6.43c0.61-0.8,1.23-1.59,1.86-2.37
	c1.02-5.39,0.88-16.31,8.24-16.37c0.66-3.05,3.46-5.62,6.66-5.28c2.63-3.17,6.7-6.11,11-4.6c0.7-1.4,1.86-2.48,3.27-3.06
	c1.53-3.91,6.42-6.37,10.28-4.12c4.13,2.19,4.56,7.28,5.27,11.41c2.77,2.56,2.75,6.6,2.72,10.32c0,0.91-0.01,1.79,0.03,2.63
	C357.73,112.23,356.5,135.37,356.03,158.54z M336.42,172.42c0.03-0.36,0.05-0.71,0.08-1.07c-0.18,0.11-0.37,0.22-0.56,0.31
	C336.11,171.91,336.27,172.16,336.42,172.42z"/>
<path class="st2" d="M98.53,111.26c-1.21,2.81-2.71,5.58-4.47,8.2c-0.96,0.59-1.88,1.22-2.79,1.88c-3.23,2.08-6.38,4.29-9.28,6.84
	c-2.13,1.86-4.2,3.78-6.16,5.82c-0.42,0.44-0.84,0.88-1.26,1.34c-1.68,0.47-3.4,0.5-5.1-0.45c-9.64,14.62-25.05,25.39-31.63,41.87
	c-2.82,5.93-2.3,18.66-10.1,19.76c-10.02,0.64-8.34-12.27-9.21-18.99c-0.33-6.02-1.4-11.96-2.43-17.9
	c-4.66-26.81-2.6-54.1,1.51-80.81c0.81-5.67,2.05-11.26,2.68-16.95c0.49-5.76,0.99-14.84,9.24-12.55c0.89-2.86,1.4-5.24,3.1-7.6
	c2.87-3.71,9.7-3.35,11.35,1.35c0.94,2.27,1.08,4.74,1.02,7.17c7.25-1.54,12.34,5.12,16.55,10.02c4.56,4.17,8.98,8.47,13.59,12.58
	c7.6,6.5,17.79,13.67,15.6,25.07c4.83,0.53,8.27,5.64,8.27,10.41C99.01,109.35,98.86,110.33,98.53,111.26z M75.5,104.36
	c0.17-0.36,0.34-0.72,0.5-1.09c-0.21,0.02-0.43,0.04-0.64,0.04C75.43,103.66,75.48,104.01,75.5,104.36z"/>
<path class="st3" d="M28.07,16.46c-0.02,0.04-0.04,0.09-0.07,0.12c0.05-0.08,0.1-0.17,0.14-0.26
	C28.11,16.37,28.09,16.41,28.07,16.46z"/>
<path class="st3" d="M30.32,17.69c0.1-0.08,0.19-0.16,0.29-0.23C30.51,17.54,30.41,17.62,30.32,17.69z"/>
<path class="st3" d="M43.22,15.57c0.11,0.03,0.22,0.05,0.33,0.08C43.44,15.63,43.33,15.6,43.22,15.57z"/>
<path class="st3" d="M44.29,15.87c-0.15-0.09-0.31-0.17-0.48-0.26C43.98,15.68,44.14,15.77,44.29,15.87L44.29,15.87z"/>
<path class="st3" d="M109.94,105.79c-1.94,1.32-3.9,2.62-5.83,3.96c-0.13,0.09-0.27,0.18-0.4,0.28c-0.12,0.06-0.23,0.12-0.34,0.19
	c-0.94,0.53-1.92,0.99-2.82,1.58c-0.88,0.57-1.76,1.14-2.62,1.71c-0.06-0.04-0.11-0.08-0.17-0.12c-0.22-0.36-0.43-0.71-0.64-1.07
	c-0.58-0.99-1.13-2.14-1.92-2.97c-0.2-0.21-0.43-0.4-0.67-0.57c-0.23-0.42-0.47-0.83-0.71-1.25c-0.1-0.16-0.18-0.32-0.29-0.48
	c0-0.01-0.01-0.01-0.01-0.02c-0.63-1.05-1.29-2.08-1.94-3.11c-1.31-2.14-2.64-4.27-3.98-6.39c-1.22-1.91-2.37-3.86-3.61-5.76
	c-2.03-3.11-4.15-6.14-6.52-8.99c-1.2-1.59-2.44-3.14-3.71-4.66c0.01,0,0.01,0,0.01,0.01c0-0.01,0-0.01-0.01-0.01
	c-0.01-0.03-0.04-0.05-0.06-0.07c-0.09-0.11-0.18-0.23-0.28-0.34c-0.5-0.67-1.02-1.35-1.54-2c-2.25-2.77-4.58-5.41-7.14-7.89
	c-1.18-1.14-2.4-2.25-3.67-3.28c-3.06-2.99-6.41-5.71-10.24-7.6c-1.61-0.8-3.2-1.67-4.91-2.28c-0.15-0.05-0.29-0.11-0.43-0.16
	c-0.63-0.65-1.25-1.32-1.87-1.97c-6.07-7.4-11.32-15.46-15.98-23.81c-0.63-0.96-1.13-2-1.51-3.06c0.4-1.11,0.8-2.22,1.16-3.33
	c0.13-0.39,0.2-0.8,0.21-1.2c0.38-0.56,0.77-1.11,1.16-1.67c0.33-0.41,0.67-0.82,1.02-1.21c0.15-0.15,0.31-0.29,0.47-0.43
	c0.14-0.1,0.27-0.18,0.41-0.27c0.19-0.1,0.38-0.2,0.58-0.29c1.24-0.5,2.5-0.96,3.77-1.4c0.88-0.24,1.77-0.44,2.67-0.6
	c0.67-0.09,1.33-0.15,2-0.18c0.29,0.01,0.59,0.01,0.88,0.04c1.09,0.13,2.17,0.34,3.25,0.55c0.17,0.04,0.33,0.1,0.5,0.15
	c0.05,0.02,0.11,0.04,0.16,0.07c0.01,0,0.01,0.01,0.02,0.01c0.01,0.01,0.04,0.03,0.06,0.04c0.04,0.03,0.07,0.05,0.1,0.08
	c0.04,0.04,0.08,0.09,0.12,0.13c0.57,0.81,1.13,1.62,1.75,2.4c0.94,1.16,2.25,1.85,3.69,1.98c1.07,1.79,2.28,3.49,3.41,5.25
	c6.76,11.93,17.49,20.59,27.23,29.98c13.48,13.8,26.7,28.53,36.42,45.28C114.74,102.6,112.32,104.17,109.94,105.79z"/>
<path class="st3" d="M109.94,105.79c-1.94,1.32-3.9,2.62-5.83,3.96c-0.14,0.09-0.27,0.18-0.4,0.28c-0.12,0.06-0.23,0.12-0.34,0.19
	c-0.94,0.53-1.92,0.99-2.82,1.58c-0.56,0.37-1.13,0.73-1.68,1.09c-0.39-2.13-0.59-4.27-0.39-6.45c0.86-6.4,6.6-11.18,13.11-10.44
	c3.07,0.33,5.59,1.79,7.42,3.9C115.95,101.81,112.92,103.76,109.94,105.79z"/>
<path class="st3" d="M24.71,29.52c0.06-0.15,0.12-0.31,0.18-0.48C24.82,29.2,24.77,29.36,24.71,29.52z"/>
<path class="st3" d="M25.1,28.43c0.04-0.11,0.07-0.21,0.11-0.32C25.18,28.21,25.14,28.32,25.1,28.43z"/>
<path class="st3" d="M28.07,16.46c-0.02,0.04-0.04,0.08-0.07,0.12c0.04-0.09,0.09-0.17,0.13-0.26
	C28.11,16.37,28.09,16.41,28.07,16.46z"/>
<path class="st3" d="M30.32,17.69c0.1-0.08,0.19-0.15,0.29-0.23C30.51,17.54,30.42,17.62,30.32,17.69z"/>
<path class="st3" d="M30.54,13.53c0.01-0.01,0.01-0.02,0.02-0.04c0.08-0.07,0.16-0.15,0.24-0.22
	C30.71,13.36,30.62,13.44,30.54,13.53z"/>
<path class="st3" d="M43.22,15.57c0.12,0.02,0.22,0.05,0.33,0.08C43.44,15.62,43.33,15.6,43.22,15.57z"/>
<path class="st3" d="M43.81,15.6c0.16,0.07,0.31,0.15,0.47,0.25C44.12,15.77,43.97,15.68,43.81,15.6z"/>
<path class="st3" d="M109.94,105.79c-1.94,1.32-3.9,2.62-5.83,3.96c-0.13,0.09-0.26,0.18-0.4,0.28c-0.12,0.06-0.23,0.12-0.34,0.19
	c-0.94,0.53-1.92,0.99-2.82,1.58c-0.88,0.57-1.76,1.13-2.62,1.71c-0.06-0.04-0.12-0.08-0.18-0.12c-0.21-0.35-0.42-0.7-0.62-1.06
	c-0.58-0.99-1.13-2.14-1.92-2.97c-0.21-0.22-0.45-0.41-0.69-0.58c-0.23-0.41-0.46-0.82-0.69-1.23c-0.11-0.19-0.22-0.39-0.34-0.58
	c0.05,0.09,0.1,0.18,0.15,0.26c-0.66-1.11-1.36-2.2-2.05-3.29c-1.31-2.14-2.64-4.28-3.98-6.4c-1.22-1.91-2.37-3.86-3.61-5.76
	c-2.01-3.08-4.12-6.08-6.46-8.91c-1.21-1.61-2.49-3.19-3.78-4.74c-0.01-0.03-0.04-0.05-0.05-0.07c-0.1-0.11-0.19-0.22-0.28-0.34
	c-0.5-0.67-1.02-1.35-1.55-2c-2.25-2.77-4.58-5.41-7.14-7.89c-1.17-1.14-2.4-2.24-3.67-3.28c-3.06-2.99-6.41-5.71-10.24-7.6
	c-1.61-0.8-3.2-1.67-4.91-2.28c-0.81-0.29-1.59-0.64-2.43-0.86c-1.11-0.3-2.24-0.49-3.36-0.73c-2.16-0.56-4.26-1.46-6.52-1.48
	c-1.77,0-3.61,0.5-5.21,1.26c-0.42,0.2-0.82,0.43-1.2,0.69c-0.18,0.08-0.36,0.18-0.53,0.27c-1.59,0.86-3.03,1.81-4.17,3.24
	c-0.56,0.5-1.05,1.05-1.52,1.68c-0.91,1.22-1.29,2.71-1.56,4.2c-0.23,0.37-0.43,0.75-0.57,1.18c-0.04,0.15-0.09,0.29-0.12,0.43
	c0.1-0.52,0.16-1.05,0.21-1.59c0.09-1.1,0.18-2.2,0.26-3.3c0.13-1.64,0.28-3.27,0.42-4.9c0.08-0.81,0.16-1.62,0.26-2.43
	c0.64-3.13,1.08-6.3,1.65-9.42c0.45-2.41,0.94-4.79,1.46-7.19c0.3-1.37,0.64-2.71,1.01-4.07c0.29-0.88,0.59-1.78,0.89-2.67
	c0.04-0.1,0.07-0.19,0.1-0.28c0.77-2.13,1.59-4.24,2.29-6.39c0.13-0.39,0.2-0.8,0.21-1.21c0.38-0.56,0.78-1.11,1.16-1.66
	c0.33-0.41,0.67-0.82,1.02-1.21c0.15-0.15,0.31-0.29,0.47-0.42c0.14-0.1,0.27-0.18,0.41-0.27c0.19-0.1,0.38-0.2,0.58-0.29
	c1.24-0.51,2.5-0.97,3.77-1.4c0.88-0.23,1.76-0.43,2.66-0.59c0.67-0.09,1.33-0.15,2-0.18c0.3,0,0.59,0.01,0.89,0.04
	c1.09,0.13,2.16,0.33,3.25,0.55c0.17,0.04,0.34,0.1,0.5,0.15c0.07,0.02,0.12,0.05,0.18,0.07c0.02,0.01,0.04,0.03,0.06,0.04
	c0.04,0.03,0.07,0.06,0.1,0.09c0.04,0.04,0.09,0.09,0.12,0.13c0.04,0.06,0.08,0.11,0.12,0.17c0.07,0.61,0.1,1.24,0.07,1.89
	c0.39,4.36-3.31,7.31-4.99,10.88c8.05,4.65,15.5,9.81,23.65,14.21c6.27,2.82,11.95,6.84,16.26,12.26
	c8.41,9.95,16.06,20.52,23.82,30.99c2.94,4.5,7.69,10.59,10.13,16.71C112.46,104.1,111.19,104.94,109.94,105.79z"/>
<path class="st3" d="M303.42,70.37c0.02-0.02,0.04-0.04,0.06-0.06C303.46,70.33,303.44,70.35,303.42,70.37z"/>
<path class="st3" d="M303.4,70.39c-0.03,0.04-0.07,0.07-0.1,0.11c0.04-0.04,0.08-0.09,0.12-0.13
	C303.41,70.37,303.41,70.38,303.4,70.39z"/>
<path class="st3" d="M319.68,53.05c0.06-0.04,0.12-0.09,0.18-0.13C319.81,52.96,319.75,53.01,319.68,53.05z"/>
<path class="st3" d="M319.66,53.07c0,0.01-0.01,0.01-0.01,0.01c0.01-0.01,0.03-0.02,0.04-0.03
	C319.67,53.06,319.67,53.07,319.66,53.07z"/>
<path class="st3" d="M339.73,61.23c-4.07,1.6-8.46,4.37-9.32,9.02c-0.1,0.53-0.15,1.07-0.18,1.62
	c-9.06,11.03-17.09,22.87-26.66,33.49c-5.05,5.78-10.13,11.58-15.66,16.9c-2.19,2.46-5.12,3.52-8.07,3.5
	c-0.15-1.57-1.07-3.01-2.42-3.84c-0.21-0.9-0.67-1.75-1.4-2.44c-0.28-0.27-0.58-0.5-0.9-0.67c-0.56-0.69-1.26-1.26-2.06-1.71
	c-1.11-0.64-2.27-1.05-3.49-1.26c-0.61-0.22-1.24-0.39-1.88-0.53c-0.01,0-0.01-0.01-0.01-0.01c0-0.04-0.01-0.08-0.01-0.12
	c0.31-0.09,0.63-0.2,0.94-0.34c1.3-0.61,1.95-1.69,2.52-2.86c0.42-0.37,0.78-0.8,1.07-1.32c0.15-0.27,0.28-0.55,0.39-0.83
	c0.23-0.22,0.47-0.44,0.69-0.69c1.32-1.48,2.02-3.54,1.65-5.5c1.36-1,2.74-1.96,4.13-2.93c1.34-0.83,2.68-1.67,4.02-2.49
	c1.28-0.79,2.65-1.46,3.96-2.17c2.71-1.47,5.56-2.73,8.35-4.05c1.67-0.79,2.55-2.59,2.55-4.37c0-0.84-0.2-1.68-0.6-2.41
	c-0.63-1.14-1.7-2-2.95-2.37c-0.92-0.28-1.81-0.25-2.68-0.02c0.66-0.8,1.3-1.62,1.95-2.43c0.86-0.28,1.64-0.78,2.25-1.51
	c2.34-2.75,4.72-5.46,7.15-8.14c0.11-0.12,0.22-0.24,0.33-0.36l-0.01,0.01c0.01-0.01,0.01-0.01,0.02-0.03
	c0.03-0.03,0.05-0.05,0.08-0.08c0-0.01,0.01-0.01,0.01-0.02c0,0,0,0,0.01-0.01c0.04-0.04,0.07-0.08,0.11-0.12
	c-0.03,0.04-0.07,0.07-0.1,0.11c2.6-2.85,5.13-5.77,7.56-8.77c1.92-2.37,3.89-4.65,6.19-6.65c0.12-0.1,0.25-0.19,0.37-0.29
	c0.01-0.01,0.02-0.01,0.04-0.03c0.01-0.01,0.04-0.02,0.05-0.04c0,0,0.01,0,0.01-0.01c0,0,0,0,0.01,0c0.01-0.01,0.01-0.01,0.02-0.02
	c0,0,0.01,0,0.01-0.01c0.02-0.01,0.05-0.04,0.07-0.06c0.02-0.01,0.04-0.04,0.07-0.05c-0.03,0.01-0.05,0.04-0.07,0.05
	c0.02-0.01,0.04-0.04,0.07-0.05c0.02-0.02,0.04-0.04,0.07-0.06c0.04-0.03,0.09-0.07,0.13-0.1c0.03-0.02,0.07-0.04,0.1-0.07
	c0.38-0.27,0.76-0.55,1.14-0.82c-0.03,0.02-0.05,0.04-0.08,0.07c-0.1,0.07-0.19,0.13-0.29,0.2c0.1-0.07,0.19-0.13,0.29-0.2
	c0.16-0.12,0.32-0.23,0.48-0.35c-0.02,0.01-0.04,0.03-0.07,0.04c3.45-2.46,6.76-5.05,9.97-7.82c2.88-2.5,5.51-5.25,8.36-7.79
	c0.67-0.5,1.33-0.98,2.03-1.45c0.42-0.24,0.83-0.48,1.26-0.69c0.31-0.13,0.62-0.26,0.94-0.37c0.52-0.15,1.05-0.28,1.57-0.4
	c0.41-0.06,0.82-0.12,1.24-0.17c0.37-0.01,0.75-0.02,1.13-0.01c0.52,0.05,1.03,0.13,1.54,0.21c0.4,0.1,0.79,0.2,1.18,0.31
	c0.53,0.19,1.05,0.39,1.56,0.6c0.37,0.64,0.73,1.27,1.1,1.91c0.25,0.44,0.5,0.88,0.74,1.32c0.13,0.58,0.29,1.17,0.49,1.75
	c0.48,1.41,1.29,2.53,2.22,3.64v0.01c-0.03-0.03-0.05-0.06-0.08-0.1c0.03,0.04,0.06,0.08,0.09,0.12c0.1,0.22,0.19,0.44,0.29,0.66
	C350.53,50.59,345,55.8,339.73,61.23z"/>
<path class="st3" d="M355.75,45.82C355.75,45.82,355.75,45.82,355.75,45.82c0.04,0.11,0.08,0.2,0.11,0.31
	C355.82,46.02,355.79,45.92,355.75,45.82z"/>
<path class="st3" d="M355.75,45.81C355.75,45.81,355.75,45.81,355.75,45.81C355.75,45.81,355.75,45.81,355.75,45.81z"/>
<path class="st3" d="M353.9,59.37c-2.18-0.3-4.28-0.28-6.46-0.02c-2.52,0.29-5.07,0.88-7.44,1.78c-2.7,1.03-5.57,2.57-7.49,4.84
	c-9.69-3.94-12.69-21.17,10.22-27.27c3.36-0.68,6.64-0.48,9.7,0.42c0.1,0.44,0.23,0.88,0.38,1.31c0.48,1.41,1.3,2.53,2.22,3.64
	c0.01,0.01,0.01,0.01,0.01,0.01c-0.03-0.04-0.06-0.07-0.09-0.1c0.03,0.04,0.07,0.08,0.1,0.12c0.24,0.56,0.48,1.12,0.69,1.68
	c0.13,0.35,0.26,0.7,0.38,1.05c0.78,2.53,1.3,5.09,1.78,7.68c0.28,1.97,0.37,3.95,0.67,5.9c0.03,0.18,0.05,0.37,0.08,0.55
	C357.14,60.24,355.57,59.6,353.9,59.37z M345.53,46.71c-1.56-1.71-3.7-2.86-5.92-3.34C341.91,43.91,343.95,45.1,345.53,46.71z"/>
<path class="st3" d="M337.15,67.45c-4.99,2.07-8.93,5.92-12.05,10.26c-1.27,2.81-4.78,4.07-7.42,2.38
	c-6.61-5.15,3.04-12.56,6.76-16.4c4.22-3.58,9.27-5.96,14.58-7.45c6.17-1.97,12.74-2.14,19-0.75c0.19,1.64,0.3,3.28,0.54,4.91
	c0.3,1.94,0.52,3.91,0.91,5.84C352.29,63.65,344.16,64.24,337.15,67.45z"/>
<path class="st3" d="M359.81,71.3c-0.53-0.21-1.03-0.39-1.51-0.5c-6.5-2.4-13.83-2.3-20.49-0.57c-5.55,1.84-10.95,4.52-15.54,8.17
	c-0.71,1.66-2.28,2.9-4.19,3.05c-2.69,0.21-5.18-1.86-5.37-4.58c-0.37-8.06,19.02-15.73,25.81-17.07
	c6.61-1.21,13.56-1.13,20.06,0.61c0.34,2.22,0.58,4.48,1.1,6.68c-0.03-0.11-0.06-0.21-0.09-0.32c0.05,0.2,0.1,0.41,0.15,0.62
	c-0.02-0.1-0.04-0.2-0.07-0.3c0.07,0.26,0.14,0.51,0.21,0.77C359.78,69,359.79,70.15,359.81,71.3z"/>
<path class="st3" d="M354.49,67.78c-10.46,0.33-19.89,6.17-28.05,12.27c-4.24,3.59-8.36,7.3-12.51,11.01
	c-4.91,4.29-11.49-2.79-6.76-7.34c9.51-8.66,19.2-17.56,31.34-22.35c3.95-1.72,14.24-4.96,19.79-3.16c0.07,0.74,0.15,1.47,0.26,2.2
	c0.34,2.23,0.58,4.49,1.1,6.69c-0.03-0.11-0.06-0.21-0.09-0.32c0.04,0.18,0.1,0.37,0.14,0.57C358.26,68.17,356.38,68.2,354.49,67.78
	z"/>
<path class="st3" d="M359.71,67.34c-0.01-0.08-0.04-0.16-0.05-0.24c0.02,0.08,0.04,0.16,0.07,0.24
	C359.72,67.34,359.72,67.34,359.71,67.34z"/>
<path class="st3" d="M352.83,65.78c0,1.81-0.97,3.6-2.67,4.45l0.56-0.34c-17.11,8.91-31.29,22.66-45.27,35.75
	c-7.22,8.43-15.53,16.16-25.58,20.77c-0.2-0.21-0.4-0.42-0.6-0.63c-0.02-0.44-0.11-0.89-0.27-1.35c-0.34-0.96-0.85-1.79-1.56-2.43
	c-0.2-0.93-0.67-1.81-1.42-2.53c-0.61-0.58-1.31-0.94-2.04-1.16c-0.06-0.04-0.12-0.1-0.18-0.14c16.6-6.75,26.34-23.77,40.67-34.21
	c5.62-4.19,33.03-30.91,37.84-20.46c0.37,0.71,0.53,1.48,0.53,2.25C352.83,65.77,352.83,65.78,352.83,65.78z"/>
<path class="st3" d="M359.81,71.68c0.01,0.26,0.01,0.51,0.01,0.77c-0.48,0.76-0.75,1.65-0.75,2.57c-1.76,0.01-3.66-0.87-5.21-2.19
	c-3.93-0.56-7.96,1.36-11.6,2.72c-3.05,1.21-5.78,3.08-8.71,4.5c-5.69,1.95-9.29-6.37-3.88-9.14c8.42-4.56,20.15-11.47,29.47-6.44
	c0.15,0.87,0.31,1.73,0.5,2.59c-0.02-0.09-0.04-0.18-0.07-0.28c0.02,0.1,0.05,0.19,0.07,0.29c0.01,0.01,0.01,0.02,0.01,0.04v-0.01
	c0,0.01,0,0.01,0.01,0.01c0.01,0.03,0.01,0.05,0.02,0.08c0.01,0.07,0.02,0.14,0.04,0.21c-0.01-0.06-0.02-0.12-0.04-0.18
	c0.06,0.21,0.12,0.43,0.18,0.64C359.76,69.12,359.78,70.41,359.81,71.68z"/>
<path class="st3" d="M359.81,71.68c0.01,0.26,0.01,0.52,0.01,0.78c-0.51,0.84-0.79,1.83-0.74,2.86c0.04,0.77,0.27,1.48,0.63,2.14
	c0,0.06-0.01,0.12-0.01,0.18c-4.2-5.06-9.57-9.14-17.26-8.53c0.31,4.98-6.37,6.99-9.18,3.06c-4.45-4.12-1.12-10.54,4.03-12.04
	c4.58-1.78,9.75-1.13,14.38,0.1c2.65,0.78,5.1,1.97,7.37,3.46c0.17,1.12,0.34,2.24,0.6,3.35c0.01,0.01,0.01,0.02,0.01,0.03v0.01
	c0.01,0.01,0.01,0.01,0.01,0.02c0,0,0,0.01,0.01,0.01c-0.01,0-0.01,0-0.01,0c0.01,0.01,0.01,0.03,0.01,0.04
	c0.01,0.03,0.01,0.07,0.02,0.1c0.01,0.01,0.01,0.03,0.01,0.04c0.01,0.04,0.01,0.08,0.02,0.12c-0.01-0.04-0.01-0.08-0.02-0.12
	c0.05,0.2,0.11,0.39,0.16,0.58C359.76,69.12,359.79,70.41,359.81,71.68z"/>
<path class="st3" d="M359.81,71.69c0,0.26,0.01,0.52,0.01,0.78c-0.52,0.83-0.79,1.83-0.74,2.86c0.04,0.77,0.27,1.48,0.63,2.14v0.01
	c-0.06,1.4-0.12,2.8-0.13,4.2c0,0.1,0,0.21,0,0.31c-2.43-3.2-5.4-5.93-9.29-7.75c-3.7-1.8-7.93-3.5-12.11-2.58
	c-3.05,3.11-8.61,0.59-8.43-3.73c0.58-6.33,8.73-6.9,13.68-6.32c5.94,0.81,11.56,3.32,16.41,6.85
	C359.78,69.53,359.8,70.62,359.81,71.69z"/>
<path class="st3" d="M332.65,81.81c-4.48,2.94-9.87-2.75-6.74-7.1c1.07-1.51,3-2.19,4.62-2.94c3.39-1.57,6.92-3.1,10.58-3.9
	c4.91-0.98,10.28-0.94,14.93,1.07c1.17,0.72,2.73,1.7,4.26,2.86c-0.83,0.95-1.29,2.2-1.22,3.52c0.04,0.78,0.27,1.48,0.63,2.14
	c0.01,0.04,0.01,0.07,0.02,0.1c0.1,0.86,0.22,1.7,0.36,2.54c0,0,0-0.01,0-0.02c0.09,0.54,0.16,1.08,0.23,1.62
	c-0.08,0.84,0.08,1.69,0.42,2.46C354.6,84.55,354.61,70,332.65,81.81z"/>
<path class="st3" d="M360.08,80.03c0,0.01,0.01,0.03,0.01,0.04C360.09,80.06,360.09,80.05,360.08,80.03z"/>
<path class="st3" d="M109.93,105.79c-1.94,1.32-3.9,2.62-5.83,3.96c-0.97,0.68-1.97,1.34-2.92,2.04c-0.9,0.65-1.92,1.3-2.74,2.08
	c-0.23-0.15-0.47-0.31-0.69-0.48c-0.21-0.36-0.42-0.71-0.64-1.07c-0.57-0.98-1.11-2.11-1.89-2.94c0.56-0.58,1.24-1.01,2-1.26
	c-0.04-0.35,0-1,0.07-1.27c0.63-3.86,5.94-5.37,8.5-2.44c1.95-3.28,5.94-2.3,9.22-1.97C113.3,103.53,111.61,104.65,109.93,105.79z"
	/>
<path class="st3" d="M266.59,115.15c-0.95-0.1-1.9-0.15-2.84-0.17c-0.03-0.04-0.05-0.07-0.07-0.1c0.05-0.58,0.11-1.18,0.18-1.76
	c0.33-0.59,0.67-1.2,0.99-1.82c1.29,0.98,2.2,2.33,2.27,3.91C266.93,115.19,266.76,115.17,266.59,115.15z"/>
<path class="st3" d="M284.71,124.96c-1.73,1.24-3.69,2.03-5.72,2.65c0.18-0.51,0.29-1.04,0.29-1.59c0-0.5-0.09-1.03-0.28-1.57
	c-0.34-0.96-0.85-1.79-1.57-2.43c-0.2-0.93-0.66-1.81-1.41-2.53c-0.62-0.58-1.31-0.94-2.05-1.16c-0.74-0.57-1.51-1.1-2.33-1.54
	c3.7-0.39,7.33-1.04,11.01-1.32c2.89,0.24,4.54,2.65,4.54,5.1C287.19,122.24,286.41,123.95,284.71,124.96z"/>
<path class="st3" d="M109.94,105.79c-0.87,0.58-1.75,1.17-2.62,1.76c0.23-0.69,0.61-1.33,1.16-1.87c1.21-1.17,2.52-1.57,3.77-1.44
	C111.48,104.75,110.71,105.27,109.94,105.79z"/>
<path class="st3" d="M94.91,108.23c-0.33,0.01-0.64-0.26-0.64-0.6c0-0.34,0.25-0.63,0.6-0.64c0.33-0.01,0.64,0.26,0.64,0.6
	C95.51,107.93,95.27,108.22,94.91,108.23z"/>
<path class="st3" d="M98.44,113.88c-0.86-0.69-1.67-1.47-2.25-2.41c-0.06-0.08-0.12-0.15-0.17-0.23c-0.29-0.42-0.58-0.86-0.8-1.28
	c-0.24-0.77-1.45-1.56-0.91-2.41c-0.09-0.28-0.1-0.65,0.08-0.86c0.38-0.59,1.34-0.15,1.13,0.52c0.1,0.29,0.22,0.58,0.11,0.89
	c-0.01,0.02-0.02,0.05-0.04,0.07c0.26,0.37,0.52,0.78,0.71,1.15c0.21,0.39,0.5,0.86,0.75,1.2c0.04,0.07,0.09,0.12,0.12,0.16
	c0.02,0.02,0.04,0.04,0.05,0.07c0.57,0.94,1.37,1.65,2.21,2.3C99.08,113.32,98.75,113.59,98.44,113.88z"/>
<path class="st3" d="M98.8,113.55c-0.02-0.18,0.03-0.36,0.18-0.5c0.2-0.18,0.42-0.2,0.61-0.12
	C99.33,113.13,99.06,113.33,98.8,113.55z"/>
<path class="st3" d="M202.95,91.67c0,0.89-0.34,1.8-1.13,2.56c-2.67,8.85-4.93,17.83-7.28,26.78c-0.01,0.01-0.01,0.01-0.01,0.01
	c-0.71,1.61-1.42,3.22-2.12,4.83c-0.91,0.67-2.11,0.94-3.24,0.62c-1.97-0.54-3.13-2.63-2.61-4.6c1.78-6.68,3.47-13.4,5.32-20.06
	c0.94-3.36,1.8-6.76,2.9-10.08c0.25-0.74,0.55-1.5,0.98-2.15c0.26,0.18,0.55,0.33,0.86,0.45c2.04,0.77,4.1,0.95,6.21,0.67
	c0.08,0.31,0.12,0.61,0.12,0.94C202.95,91.64,202.95,91.65,202.95,91.67z"/>
<path class="st3" d="M195.58,95.02c-0.97,4.77-1.13,9.71-1.56,14.54c-0.4,4.99-0.78,9.97-1.16,14.96c-0.03,0.2-0.07,0.39-0.12,0.58
	c-0.15,0.33-0.29,0.67-0.44,0.99c-1.86,2.97-7.29,1.71-6.86-2.57c0.63-8.17,1.2-16.33,2-24.49c0.33-3.66,0.72-10.74,6.16-8.93
	c1.4,0.6,2.27,2.03,2.27,3.49C195.88,94.08,195.78,94.56,195.58,95.02z"/>
<path class="st3" d="M208.82,95.1c-1.08,1.73-2.16,3.47-3.23,5.22c-0.45,0.72-0.87,1.45-1.29,2.18c-1.35,2.2-2.62,4.45-3.79,6.75
	c-0.72,1.31-1.43,2.63-2.11,3.98c-0.91,1.83-1.82,3.66-2.73,5.48c-0.38,0.78-0.8,1.54-1.15,2.33c-0.85,1.93-1.7,3.86-2.54,5.79
	c-0.58,0.14-1.19,0.13-1.81-0.04c-5.07-1.77-1.59-7.71-0.58-11.2c3.15-8.33,7.38-16.25,12.58-23.48c2.44-3.09,6.71-0.72,6.71,2.35
	C208.89,94.66,208.87,94.88,208.82,95.1z"/>
<path class="st3" d="M205.59,100.32c-1.29,2.11-2.46,4.28-3.68,6.43c-1.21,2.14-2.41,4.27-3.5,6.47c-0.91,1.83-1.82,3.66-2.73,5.48
	c-0.38,0.78-0.8,1.54-1.15,2.33c-1.29,2.93-2.57,5.86-3.86,8.8c-0.86,1.96-1.59,3.98-2.35,5.98c-2.62-0.31-4.92-3.28-2.59-6.21
	c4.45-12.01,10.22-24.13,17.77-34.42c1.38-2.52,4.08-5.59,7.09-3.4c0.07,0.05,0.15,0.11,0.22,0.18
	C209.04,94.72,207.32,97.52,205.59,100.32z"/>
<path class="st3" d="M191.2,128.6c-0.18,0.41-0.36,0.81-0.53,1.22c-1.08,2.48-1.97,5.05-2.95,7.56c-0.12,0.32-0.25,0.64-0.37,0.97
	c-0.07,0-0.13,0.01-0.2,0.01c-2.03,0.09-3.79-1.62-3.85-3.63c1.13-13.29,0.37-27.46-5.42-39.7c-0.6-1.29-1.1-2.66-1.83-3.88
	c-0.66-0.96-0.8-2-0.58-2.95c1.85,0.23,3.41-0.53,4.99-1.36c0.6,0.01,1.21,0.04,1.81,0.07c0.35,0.5,0.62,1.07,0.88,1.62
	c2.24,4.86,4.5,9.78,5.77,14.98c1.67,7.58,2.3,15.36,2.3,23.13C191.22,127.29,191.21,127.95,191.2,128.6z"/>
<path class="st3" d="M190.86,95.88c-0.42,2.3,0.38,5.17-1.82,6.84c-3.03,2.65-7.85-1.17-5.78-4.72c0-0.38-0.01-0.78-0.04-1.17
	c-0.06-1.27-0.12-2.57,0.71-3.66c1.93-3.48,7.05-1.8,7.05,1.76C190.97,95.24,190.94,95.55,190.86,95.88z"/>
<path class="st3" d="M205.59,100.32c-1.29,2.11-2.46,4.28-3.68,6.43c-0.06,0.1-0.12,0.2-0.18,0.31c-2.04,2.87-3.66,6.09-4.88,9.26
	c-0.39,0.8-0.79,1.59-1.18,2.38c-0.38,0.78-0.8,1.54-1.15,2.33c-1.29,2.93-2.57,5.86-3.86,8.8c-1.08,2.48-1.97,5.05-2.95,7.56
	c-0.42,1.07-0.8,2.17-1.18,3.26c-0.38-0.22-0.74-0.52-1.05-0.91c-1.92-2.41,0.36-5.4,0.37-7.98c1.65-11.31,4.04-22.99,11.98-31.72
	c2.32-2.68,8.99-9.18,13.53-8.94C209.4,94.13,207.5,97.22,205.59,100.32z"/>
<path class="st3" d="M191.55,127.79c-0.3,0.68-0.59,1.35-0.88,2.03c-1.08,2.48-1.97,5.05-2.95,7.56c-0.99,2.57-1.81,5.2-2.68,7.81
	c-0.04,0.1-0.07,0.19-0.1,0.29c-0.52-2.92-1.11-5.82-1.76-8.7c1.84-15.01,2.08-30.92-5.89-44.16c-0.34-0.39-0.59-0.9-1.04-1.18
	c-1.28-0.75-2-2.14-1.92-3.54c0.36,0.15,0.74,0.24,1.13,0.29c1.86,0.23,3.42-0.53,4.99-1.37c0.52,0.01,1.05,0.04,1.56,0.06
	c7.61,8.21,9.67,23.39,9.67,35.43C191.69,124.23,191.64,126.08,191.55,127.79z"/>
<path class="st3" d="M169.77,92.21L169.77,92.21c-0.03-0.08-0.06-0.15-0.08-0.23C169.72,92.05,169.74,92.13,169.77,92.21
	L169.77,92.21c0.01,0.04,0.03,0.09,0.04,0.13C169.8,92.29,169.79,92.25,169.77,92.21z"/>
<path class="st3" d="M205.59,100.32c-1.29,2.11-2.46,4.28-3.68,6.43c-1.21,2.14-2.41,4.27-3.5,6.47c-0.91,1.83-1.82,3.66-2.73,5.48
	c-0.38,0.78-0.8,1.54-1.15,2.33c-0.01,0.01-0.01,0.02-0.01,0.03c-1.33-1.13-1.93-3.09-0.57-4.97c2.11-2.53,4.18-5.09,6.3-7.6
	c-3.84,2.49-7.66,5.25-10.46,8.91c-0.72,2.06-2.9,3.66-5.1,2.79c1.21,5.75,2.05,11.55,2.97,17.34c-0.97,2.52-1.78,5.1-2.62,7.67
	c-0.04,0.1-0.07,0.19-0.1,0.28c-1.95-10.97-4.97-21.72-8.08-32.43c0,0,0-0.01-0.01-0.01c0,0,0,0,0-0.01
	c-2.03-6.97-4.58-13.76-7.01-20.58c0,0,0,0,0.01,0c0,0,0,0-0.01,0c0,0,0,0,0,0c0-0.01-0.01-0.03-0.01-0.04
	c-0.01-0.01-0.01-0.03-0.01-0.05c-0.04-0.12-0.09-0.24-0.13-0.37c0,0.01,0,0.01,0,0.01c-0.5-1.42-0.99-2.85-1.45-4.29
	c0.29-0.07,0.6-0.12,0.93-0.15c10.16,1.2,14.4,13.48,17.86,21.71c5.92-5.88,13.37-9.67,20.99-12.86
	C207.21,97.69,206.4,99,205.59,100.32z"/>
<path class="st3" d="M169.85,92.43C169.85,92.43,169.85,92.44,169.85,92.43C169.85,92.44,169.85,92.43,169.85,92.43z"/>
<path class="st3" d="M308.7,82.81c-0.12,1.7-1.46,3.12-3.09,3.41c-3.19,2.93-5.87,6.36-8.82,9.53c-2.04,2.15-4.83,6.2-8.16,4.21
	c-1.62,2.38-5.11,4.26-7.38,1.61c-2.73-3.49,1.59-7.05,3.63-9.67c3.44-3.9,7.06-6.43,9.65-11.17c1.35-1.75,2.29-4.15,4.53-4.91
	c2.13-0.8,4.69,0.8,4.89,3.05c2.32-0.54,4.76,1.24,4.76,3.62C308.72,82.59,308.71,82.7,308.7,82.81z"/>
<path d="M121.6,102.28c-0.1,0.04-0.18,0.09-0.28,0.14c-0.46,0.18-0.93,0.35-1.38,0.56c-0.53,0.23-1.06,0.48-1.59,0.72
	c-0.07,0.04-0.15,0.07-0.22,0.12c-0.63-0.28-1.16-0.8-1.37-1.49c-1.16-1.74-2.42-3.41-3.6-5.13c-3.91-5.55-7.79-11.11-11.91-16.51
	C89.69,65.8,76.23,52.5,62.87,39.27c-6.67-6.76-12.69-14.02-20.2-19.75c-1.93-1.35-3.93-3.09-6.3-3.45
	c-3.25,0.63-4.34-4.24-1.06-4.99c10.02-0.94,25.71,19.87,33.13,26.57c14.95,14.74,29.87,29.73,42.03,46.91
	c3.34,4.66,6.65,9.35,9.92,14.05c0.72,0.8,1.3,1.92,1.3,2.97C121.69,101.81,121.66,102.06,121.6,102.28z"/>
<path d="M40.26,15.46c-0.48,1.31-1.96,2-3.27,1.53c-2.08-0.83-3.69,1.16-4.06,3.03c-0.94,2.67-1.93,5.4-2.69,8.09
	c-7.16,21.61-10.54,44.13-11.82,66.76c-1.48,20.68-2.65,41.28-0.67,61.88c1.48,12.48,4.11,24.41,8.56,36.05
	c-0.04,0.07-0.06,0.16-0.06,0.25c0,0.04,0.01,0.07,0.01,0.1c0.01,0.06,0.02,0.11,0.04,0.16c0,0.01,0,0.01,0.01,0.02
	c0,0.01,0,0.01,0.01,0.01v0.01v0.01c0,0.01,0,0.01,0,0.01s0,0,0-0.01c0,0,0.01,0,0.01,0.01c0.04,0.15,0.09,0.3,0.17,0.44
	c0.07,0.11,0.18,0.18,0.3,0.2c0.57,1.35,1.16,2.69,1.88,3.97c0.58,0.68,0.78,1.65,0.47,2.52c-0.06,0.13-0.12,0.28-0.19,0.41
	c-0.66,1.16-2.18,1.62-3.37,1c-1.18-0.62-1.71-2.06-2.27-3.2c-1.71-3.59-3-7.37-4.22-11.15c-10.35-31.38-7.72-64.93-5.44-97.36
	c1.37-19.95,4.23-40.33,10.49-59.32c1.81-5.49,2.77-11.57,5.98-16.44c1.94-3.02,10.22-4.27,10.22,0.17
	C40.35,14.88,40.32,15.16,40.26,15.46z"/>
<path d="M121.79,102.19c-0.17,0.07-0.33,0.16-0.5,0.25c-0.45,0.18-0.91,0.34-1.35,0.54c-0.53,0.23-1.06,0.48-1.59,0.73
	c-0.14,0.07-0.28,0.14-0.41,0.2c-0.38-0.42-0.61-0.98-0.61-1.58c0-1.39,1.07-2.58,2.48-2.62c1.27-0.03,2.46,0.96,2.6,2.22
	C122.2,102,121.99,102.09,121.79,102.19z"/>
<path d="M122.85,101.77c-0.07,0.03-0.15,0.05-0.21,0.08c-0.29,0.1-0.57,0.2-0.84,0.33c-0.16,0.08-0.31,0.15-0.46,0.23
	c-0.47,0.18-0.94,0.36-1.4,0.56c-0.53,0.23-1.06,0.48-1.59,0.72c-0.25,0.12-0.5,0.26-0.73,0.39c-0.19,0.11-0.37,0.23-0.56,0.35
	c0.01,0,0.01,0,0.01,0c-0.2,0.12-0.4,0.26-0.6,0.39c-0.38,0.25-0.78,0.48-1.17,0.73c-0.37,0.23-0.73,0.48-1.1,0.72
	c-0.35,0.23-0.7,0.44-1.05,0.67c-0.39,0.25-0.77,0.51-1.14,0.78c-0.8,0.54-1.59,1.09-2.37,1.65c-0.74,0.53-1.47,1.05-2.16,1.62
	c0,0,0,0,0,0c-0.25,0.2-0.5,0.4-0.75,0.6c-0.42,0.26-0.85,0.53-1.27,0.81c-0.5,0.33-1,0.66-1.51,0.99
	c-0.18,0.11-0.34,0.22-0.52,0.33c-0.52,0.34-1.04,0.69-1.54,1.05c-0.21,0.15-0.42,0.29-0.62,0.42c-0.12,0.08-0.26,0.16-0.37,0.26
	c-0.09,0.09-0.18,0.18-0.29,0.27c-0.21,0.17-0.43,0.33-0.65,0.5c-0.2,0.15-0.4,0.3-0.59,0.46c-0.34,0.27-0.67,0.55-0.99,0.83
	c-0.08,0.07-0.15,0.13-0.23,0.2c-12.44,8.52-24.11,18.25-34.11,29.47c-7.54,9.63-15.09,19.51-21.48,29.79
	c-3.45,5.52-6.65,11.19-9.59,16.99c-0.3,0.42-0.59,0.86-0.89,1.28c-0.39,0.52-0.78,1.05-1.08,1.63c-0.3,0.55-0.57,1.12-0.82,1.7
	c0,0,0-0.01,0-0.01c-0.12,0.29-0.26,0.56-0.41,0.83c-0.01,0.02-0.02,0.04-0.03,0.06c-0.01,0.01-0.01,0.01-0.01,0.01
	c-0.09,0.12-0.17,0.26-0.23,0.39c-0.07,0.12-0.12,0.25-0.18,0.37c-0.03,0.04-0.04,0.08-0.07,0.12c-0.1,0.2-0.2,0.41-0.29,0.61
	c-0.02,0.04-0.04,0.08-0.07,0.12c-0.62,0.37-1.4,0.44-2.39-0.04c-1.21-0.67-1.65-2.27-0.99-3.47c0.65-1.35,1.3-2.69,1.97-4.03
	c0.07-0.03,0.14-0.08,0.18-0.15c0.08-0.11,0.14-0.24,0.15-0.37c0.02-0.06,0.04-0.12,0.07-0.18c0.08-0.14,0.17-0.28,0.26-0.42
	c0.12-0.19,0.25-0.38,0.35-0.58c0.04-0.09,0.08-0.17,0.08-0.26c0-0.05-0.01-0.1-0.03-0.15c0.06-0.12,0.12-0.25,0.18-0.37
	c0.05-0.09,0.1-0.18,0.15-0.27c0.12-0.22,0.26-0.45,0.37-0.67c0.06-0.12,0.12-0.23,0.18-0.34c0.05-0.09,0.1-0.18,0.13-0.27
	c0.01-0.04,0.02-0.07,0.03-0.1c0.91-1.78,1.86-3.56,2.84-5.31c5.16-9.13,10.8-17.99,17.21-26.29c4.72-6.49,9.34-13.07,14.97-18.83
	c9.39-9.12,19.31-17.76,30.15-25.13c7.9-5.28,15.87-10.65,24.49-14.62c1.85-0.65,3.63,0.75,3.63,2.43
	C122.85,101.69,122.85,101.73,122.85,101.77z"/>
<path d="M30.13,198.62c0.01-0.01,0.01-0.03,0.02-0.04C30.14,198.59,30.14,198.6,30.13,198.62z"/>
<path d="M31.73,194.87c-1.01,2.04-1.96,4.11-2.86,6.2c-0.01,0.03-0.04,0.06-0.05,0.08v0.01c0,0,0,0,0-0.01c0.01,0,0.01,0,0.01,0
	c-0.09,0.14-0.18,0.26-0.2,0.42c-0.01,0.04-0.01,0.07-0.01,0.1c-5.14,12.14-8.37,25.12-8.54,38.36c0.15,3.11,0.6,6.11,1.11,9.1
	c-1.73,0.02-3.43,0.81-4.42,2.33c-0.1,0.15-0.18,0.29-0.26,0.43c-0.64-3.57-1.24-7.14-1.48-10.75c-0.23-5.42,0.64-10.83,1.37-16.18
	c1.7-10.77,5.48-21.26,10.19-31.05c0.13,0.12,0.35,0.15,0.51,0.05c0.13-0.09,0.2-0.24,0.19-0.39c0.15,0.01,0.29-0.05,0.37-0.18
	c0.08-0.11,0.13-0.24,0.15-0.37c0.02-0.06,0.04-0.11,0.07-0.18c0.09-0.14,0.17-0.28,0.26-0.42c0.12-0.19,0.26-0.38,0.35-0.58
	c0.03-0.05,0.04-0.1,0.06-0.14c1.5-0.42,3.33,0.59,3.33,2.35C31.86,194.31,31.82,194.59,31.73,194.87z"/>
<path d="M186.91,337.6c-0.64,3.69-5.24,1.8-7.81,2.03c-5.08-0.15-10.17-0.07-15.25-0.23c-32.56-0.23-65.37-7.86-93.36-24.82
	C49.33,301.84,29.93,284,20.06,261.04c1.69,0.18,3.44-0.44,4.72-1.72c0.01-0.01,0.01-0.01,0.02-0.02c0.67,1.54,1.41,3.06,2.18,4.56
	c4.18,8.15,9.75,15.47,15.84,22.27c26.66,28.14,64.71,43.8,102.93,47.25c8.78,0.8,17.52,1.01,26.3,1.06
	c4.2,0.01,8.38,0.11,12.56,0.39c1.3,0.08,2.3,1.28,2.3,2.54C186.93,337.44,186.93,337.52,186.91,337.6z"/>
<path d="M337.17,284.13c-0.07,0.09-0.11,0.18-0.16,0.27c-0.04,0.09-0.06,0.18-0.09,0.27c-0.01,0.04-0.03,0.09-0.04,0.13
	c0,0-0.01,0-0.01,0.01c0-0.01,0.01-0.01,0.01-0.01c-0.01,0.01-0.01,0.01-0.01,0.02c-0.09,0.2-0.2,0.37-0.31,0.55
	c-0.36,0.59-0.69,1.21-1.05,1.82c-0.29,0.47-0.61,0.92-0.91,1.4c-0.11,0.17-0.22,0.34-0.33,0.52c-5.41,6.81-12.59,11.95-19.56,17.15
	c-12.72,10.27-27.69,17.09-42.93,22.75c-10.72,3.99-22.15,5.46-33.39,7.24c-12.94,2.15-25.99,3.69-39.13,3.84
	c-6.24,0.1-12.47-0.22-18.7-0.28c-2.62-0.37-7.26,1.1-7.83-2.49c0.04-4.1,5.07-2.38,7.7-2.62c6.36,0.06,12.85,0.37,19.16,0.29
	c12.59-0.19,24.7-1.61,36.84-3.59c9.73-1.53,19.17-2.82,28.62-5.49c12.32-4.1,24.32-9.28,35.51-15.84
	c7.64-5.02,15.29-11.01,22.33-16.58c3.9-3.06,7.06-6.9,9.83-11c1.5-2.27,4.72-0.87,4.74,1.32
	C337.34,283.91,337.25,284.01,337.17,284.13z"/>
<path d="M347.53,242.51c-0.45,10.73-2.28,21.42-6.04,31.5c-1.18,3.23-2.38,6.47-3.84,9.59c-0.02,0.01-0.04,0.03-0.06,0.04
	c-0.04,0.04-0.07,0.08-0.11,0.12c-0.01,0.01-0.01,0.01-0.02,0.02c-0.11,0.1-0.2,0.2-0.3,0.33c-0.06,0.09-0.11,0.18-0.15,0.27
	c-0.04,0.09-0.06,0.18-0.08,0.27c0-0.01,0-0.01,0-0.01c-0.01,0.06-0.04,0.12-0.07,0.18c0-0.01,0-0.01,0-0.01
	c-0.08,0.18-0.17,0.34-0.28,0.5c0,0,0,0,0,0c0,0,0,0,0,0c0,0.01-0.01,0.01-0.01,0.02c-0.01,0.01-0.01,0.02-0.02,0.03h0.01
	c-0.37,0.6-0.69,1.21-1.05,1.81c-0.29,0.48-0.61,0.94-0.91,1.4c-0.01,0.01-0.01,0.03-0.02,0.04c-0.77,0.41-1.74,0.42-2.52-0.04
	c-2.41-1.52-0.68-3.92,0.32-5.74c0.91-1.84,1.68-3.73,2.45-5.63c4.12-9.97,6.74-20.52,7.39-31.3c0.72-8.23,0.33-16.64-1.39-24.7
	c-0.01-0.17-0.02-0.34-0.04-0.5c-0.01-0.09-0.01-0.18-0.03-0.25c-0.02-0.08-0.05-0.16-0.1-0.23c-0.01-0.06-0.04-0.12-0.08-0.18
	c-0.01,0-0.01-0.01-0.02-0.01c-0.25-1.06-0.51-2.11-0.8-3.16c-0.01-2.66,3.82-3.41,4.96-1.1c0.46,1.64,0.86,3.3,1.21,4.98
	c0.01,0.37,0.01,0.74,0.09,1.1c0.04,0.2,0.08,0.39,0.15,0.58c0.04,0.12,0.09,0.25,0.13,0.37c-0.01,0.07,0,0.13,0.01,0.2
	c0.03,0.14,0.07,0.27,0.11,0.4c0.02,0.08,0.04,0.16,0.06,0.24c0.79,4.64,1.18,9.35,1.18,14.05
	C347.66,239.31,347.62,240.91,347.53,242.51z"/>
<path d="M271.81,118.82c-0.29,0.34-0.68,0.59-1.1,0.74c-0.04-0.03-0.09-0.07-0.12-0.1c-0.26-0.18-0.52-0.36-0.79-0.53
	c-1.01-0.62-2.05-1.19-3.11-1.73c-1.11-0.58-2.19-1.21-3.28-1.86c-0.01-0.01-0.01-0.01-0.01-0.01s0,0,0.01,0
	c-1.02-0.63-2.03-1.27-3.06-1.89c-0.52-0.31-1.04-0.63-1.56-0.94c-0.54-0.31-1.08-0.61-1.63-0.91c-0.54-0.31-1.08-0.61-1.62-0.9
	c-0.14-0.07-0.27-0.15-0.4-0.21c-0.98-0.61-1.96-1.21-2.94-1.81c-33.83-17.88-74.38-20.04-111.44-12.9
	c-5.98,1.21-11.91,2.85-17.34,5.7c-0.31,0.11-0.62,0.25-0.94,0.42c-0.23,0.08-0.47,0.17-0.69,0.28c-0.18,0.08-0.34,0.16-0.5,0.25
	c-0.45,0.18-0.91,0.34-1.35,0.54c-0.53,0.23-1.06,0.48-1.58,0.73c-0.03,0.01-0.05,0.02-0.08,0.04c-0.64-0.02-1.26-0.31-1.83-1.05
	c-1.81-2.91,1.92-4.5,4.09-5.47c2.27-1.13,4.56-2.22,6.94-3.11c35.44-10.84,80.48-9.84,115.6,4.63c0.54,0.27,1.1,0.51,1.65,0.74
	c0.06,0.03,0.11,0.05,0.16,0.08c0.12,0.04,0.23,0.11,0.36,0.12c0.01,0,0.03,0,0.04,0s0.02,0.01,0.03,0.01
	c0.15,0.08,0.31,0.16,0.46,0.24c-0.01-0.01-0.04-0.02-0.05-0.03c0.4,0.21,0.8,0.43,1.19,0.66c0.22,0.13,0.45,0.26,0.67,0.39
	c0.07,0.04,0.14,0.08,0.22,0.12c0.03,0.01,0.06,0.03,0.09,0.04c0.22,0.12,0.44,0.24,0.67,0.37c0.4,0.22,0.81,0.42,1.22,0.63
	c0.45,0.22,0.91,0.45,1.36,0.66c0.45,0.22,0.91,0.42,1.37,0.63c-0.01-0.01-0.04-0.02-0.05-0.03c0.5,0.21,1.01,0.42,1.52,0.62
	c0.8,0.43,1.59,0.88,2.37,1.34c0.69,0.41,1.35,0.83,2.05,1.22c0.23,0.12,0.45,0.25,0.69,0.37c2.82,1.76,5.6,3.61,8.42,5.39
	c1.67,1.21,4.89,2.75,4.89,4.91C272.39,117.7,272.22,118.24,271.81,118.82z"/>
<path d="M347.84,34.8c-0.68,0.5-1.37,0.98-2.06,1.47c-0.08,0.02-0.16,0.04-0.23,0.08c-0.12,0.05-0.23,0.12-0.34,0.19
	c-0.12,0.07-0.26,0.14-0.38,0.22c-0.14,0.1-0.28,0.2-0.4,0.31c-0.1,0.09-0.19,0.2-0.23,0.32c-3.14,2.21-6.29,4.43-9.27,6.86
	c-8.8,7.25-16.36,15.83-24.28,24.01c-10.4,11.8-21.35,23.12-31.47,35.15c-3.12,3.88-6.19,7.79-9.31,11.67
	c-0.65,0.98-1.6,2.05-2.67,2.39c-0.17-0.1-0.34-0.18-0.5-0.26c-0.83-0.43-1.65-0.9-2.46-1.37c-0.27-0.81-0.15-1.75,0.43-2.44
	c0.58-0.75,1.16-1.49,1.75-2.24c0.07-0.01,0.15-0.04,0.21-0.08c0.04-0.04,0.1-0.07,0.14-0.12c0.09-0.07,0.18-0.1,0.27-0.17
	c0.1-0.07,0.17-0.17,0.26-0.26c0.1-0.12,0.23-0.23,0.23-0.4c0-0.01,0-0.01,0-0.02c0-0.1-0.02-0.19-0.07-0.26
	c8.52-10.76,17.52-21.09,26.9-31.12c8.82-9.86,17.73-19.65,27.06-29.03c7.18-7.14,15.1-13.83,23.8-18.98
	c1.72-0.49,3.21,1.01,3.21,2.56C348.41,33.79,348.24,34.33,347.84,34.8z"/>
<path d="M358.04,85.98c0-0.04,0-0.08,0-0.12c0,0.11,0.01,0.21,0.01,0.31C358.04,86.11,358.04,86.04,358.04,85.98z"/>
<path d="M363.26,76.69c-1.48,20.2-3.36,42.59-5.51,62.69c-0.42,1.54-1.61,2.11-2.72,1.99c0.22-1.46,0.43-2.92,0.61-4.39
	c0.46-3.71,0.83-7.43,1.16-11.16c0.29-3.2,0.53-6.43,0.56-9.64c0.01-1.66,0.01-3.32-0.02-4.97c0.53-4.69,0.89-9.4,1.2-14.1
	c0.15-2.31,0.18-4.63,0.26-6.94c0.12-3.37,0.25-6.75-0.01-10.12c0.26-1.86,0.49-3.72,0.56-5.59c0.03-0.94,0.07-1.89,0.07-2.84
	c0-2.11-0.15-4.24-0.75-6.24c-0.15-0.5-0.31-0.95-0.52-1.38c-0.65-10.49-3.17-20.17-9.63-26.7c0.03-0.07,0.04-0.13,0.04-0.2
	c0-0.12-0.04-0.23-0.13-0.3c-0.09-0.08-0.18-0.12-0.29-0.14c-0.06-0.14-0.17-0.26-0.29-0.34c-0.11-0.08-0.23-0.13-0.37-0.15
	c-0.27-0.04-0.53-0.02-0.8,0c-0.25,0.02-0.5,0.05-0.75,0.09c-0.14,0.03-0.28,0.06-0.41,0.12c-0.12,0.05-0.23,0.12-0.34,0.19
	c-0.07,0.04-0.15,0.08-0.22,0.12c-1.1-0.6-1.81-1.99-1.3-3.39c0.8-2.11,3.47-2.54,5.37-1.79c5.39,2.35,8.13,8.29,10.26,13.44
	c3.14,8.03,4.12,16.69,4.12,25.28C363.42,72.37,363.36,74.54,363.26,76.69z"/>
<path d="M361.09,131.57c-0.78,9.13-2.25,18.27-3.28,27.35c-0.56,5.05-0.73,10.14-1.63,15.16c-2.03,13.3-5.4,26.3-8.99,39.24
	c-0.5,2.13-0.91,4.28-1.26,6.43c-0.04,0.07-0.07,0.17-0.07,0.27c0,0.04,0.01,0.09,0.01,0.13c-0.01,0.04-0.01,0.07-0.01,0.12
	c-0.19,1.07-0.56,2.03-1.54,2.61c-1.29,0.75-2.76,0.08-3.44-1.04c-0.01-0.04-0.02-0.07-0.03-0.11c-0.01-0.12-0.02-0.23-0.04-0.35
	c0-0.03,0.01-0.07,0.01-0.1c-0.01-0.19-0.03-0.38-0.04-0.57c-0.01-0.08-0.01-0.17-0.03-0.25c-0.01-0.08-0.04-0.16-0.08-0.23
	c-0.02-0.07-0.04-0.12-0.1-0.18c-0.01-0.01-0.02-0.02-0.03-0.04c0.05-0.26,0.15-0.5,0.31-0.75c0.66-4.55,1.8-8.99,3.05-13.42
	c4.89-16.36,7.68-33.17,9.22-50.15c0.26-1.81,0.48-3.63,0.67-5.45c0.3-2.14,0.58-4.28,0.85-6.42c0.35-2.27,0.71-4.56,0.99-6.84
	c0.46-3.71,0.83-7.43,1.16-11.15c0.29-3.21,0.53-6.43,0.56-9.65c0.01-1.41,0.01-2.83-0.01-4.25c0.03-0.49,0.05-0.99,0.07-1.48
	c0.49-4.44,0.83-8.89,1.11-13.34c0.15-2.31,0.18-4.63,0.26-6.94c0.12-3.38,0.25-6.75,0-10.12c0.25-1.86,0.48-3.73,0.55-5.59
	c0.03-0.94,0.07-1.89,0.07-2.84c0-2.11-0.15-4.23-0.75-6.24c-0.26-0.91-0.61-1.68-1.11-2.43c-0.09-1.09-0.2-2.17-0.31-3.25
	c-0.01-0.29-0.02-0.57-0.06-0.86c-0.04-0.22-0.07-0.44-0.11-0.66c-0.25-2.08-0.53-4.17-0.86-6.27c-0.57-4.47-2.39-8.66-4.96-12.28
	c-1.89-2.68,2.11-5.7,4.14-2.98c1.57,2.13,2.77,4.48,3.81,6.89c4.28,12.33,3.82,26.04,3.94,38.96
	C363.02,98.87,362.84,115.28,361.09,131.57z"/>
<path d="M362.63,90.59c-1.17,16.47-2.72,32.92-3.86,49.39c-0.78,10.92-1,21.88-2.7,32.7c-2.07,14.43-5.49,28.63-10.49,42.32
	c-0.45,1.32-1.86,2.09-3.2,1.66c-1.3-0.41-2.12-1.88-1.67-3.2c1.01-2.95,2-5.92,2.99-8.88c4.05-12.5,6.41-25.49,8.11-38.5
	c1.2-10.91,1.35-21.9,2.33-32.83c0.99-15.84,2.9-31.6,3.56-47.46c0.13-7.08,0.27-13.78-0.3-20.56c0-0.09,0-0.17-0.01-0.25
	c0,0.01,0,0.04,0,0.05c-0.01-0.45-0.03-0.91-0.04-1.37c-0.01-0.45-0.04-0.89-0.07-1.34c-0.01-0.25-0.01-0.5-0.01-0.75
	c0.01-0.13,0.01-0.27,0.01-0.41c-0.01-0.37-0.02-0.72-0.04-1.09c-0.01-0.42-0.01-0.84-0.07-1.25c-0.02-0.17-0.05-0.33-0.08-0.49
	c1.13-1.93,4.58-1.6,4.76,1.18c0.83,5.64,1.08,11.34,1.08,17.04C362.94,81.25,362.77,85.93,362.63,90.59z"/>
<path d="M266.28,110.25c-0.1-0.06-0.18-0.12-0.27-0.18c-0.03-0.01-0.06-0.03-0.08-0.04c0.13,0.06,0.27,0.12,0.41,0.18
	C266.32,110.22,266.3,110.23,266.28,110.25z"/>
<path d="M342.09,224.18c-0.42-0.98-0.85-1.96-1.26-2.94c-0.01-0.18-0.03-0.36-0.04-0.53c-0.01-0.09-0.01-0.17-0.03-0.25
	c-0.01-0.08-0.04-0.16-0.08-0.23c-0.02-0.07-0.05-0.12-0.1-0.18c-0.08-0.1-0.2-0.15-0.32-0.15c-0.91-2.15-1.79-4.31-2.62-6.49
	c-3-7.82-6.21-15.58-10.24-22.94c-8.85-16.88-19.27-32.46-31.98-46.49c-7.54-8.43-15.44-16.52-24.08-23.79
	c-0.23-0.26-0.46-0.54-0.75-0.75c-0.25-0.18-0.49-0.34-0.75-0.5c-2.71-2.23-5.49-4.37-8.34-6.42c-1.53-1.32-0.9-3.3,0.42-4.12
	c0.3,0.2,0.6,0.42,0.9,0.62c0.39,0.26,0.78,0.49,1.16,0.74c0.35,0.23,0.69,0.46,1.04,0.69c0.23,0.15,0.48,0.29,0.71,0.44
	c0.15,0.1,0.3,0.21,0.48,0.24c0.14,0.02,0.28,0,0.39-0.08c0.05-0.04,0.1-0.08,0.15-0.12c0.09-0.06,0.18-0.1,0.27-0.17
	c0.1-0.07,0.17-0.17,0.25-0.26c20.47,15.62,37.94,35.17,52.33,56.45c8.61,13.66,16.53,27.86,22.17,43.02
	c1.32,3.41,2.63,6.8,4.11,10.13c0,0.01,0,0.01,0,0.02c0.01,0.12,0.03,0.26,0.04,0.38l-0.01-0.01c0.03,0.45,0.01,0.89,0.1,1.33
	c0.04,0.2,0.08,0.39,0.14,0.59c0.04,0.12,0.09,0.24,0.14,0.37c-0.01,0.06,0,0.12,0.01,0.2c0.03,0.13,0.07,0.26,0.11,0.39
	c0.05,0.18,0.07,0.37,0.13,0.53c-0.01-0.01-0.01-0.04-0.02-0.05c0.12,0.43,0.18,0.87,0.26,1.31
	C345.65,226.97,342.47,226.73,342.09,224.18z"/>
<path d="M272.55,118.71c-0.61,0.55-1.43,0.74-2.19,0.58c-0.18-0.12-0.37-0.24-0.56-0.37c-0.69-0.42-1.39-0.83-2.11-1.21
	c-1.46-0.98-2.92-1.95-4.41-2.89c-7.38-4.57-14.57-8.31-22.12-12.4c-1.23-0.65-1.83-2.1-1.21-3.4c0.25-0.52,0.68-0.94,1.18-1.18
	c0.37,0.15,0.72,0.3,1.09,0.45c0.8,0.45,1.65,0.83,2.5,1.18c0.05,0.03,0.1,0.05,0.16,0.07c0.11,0.05,0.22,0.12,0.36,0.12
	c0.01,0.01,0.02,0.01,0.04,0c0.16,0.1,0.32,0.18,0.48,0.26c-0.01-0.01-0.03-0.02-0.05-0.04c0.4,0.22,0.8,0.44,1.19,0.66
	c0.23,0.13,0.45,0.26,0.67,0.39c0.07,0.04,0.15,0.09,0.23,0.12c0.02,0.02,0.05,0.04,0.08,0.05c0.22,0.12,0.44,0.24,0.67,0.36
	c0.4,0.22,0.81,0.43,1.23,0.63c0.45,0.23,0.9,0.45,1.35,0.67c0.45,0.21,0.91,0.42,1.37,0.62c-0.01-0.01-0.04-0.01-0.05-0.03
	c0.5,0.23,1.02,0.42,1.51,0.63c0.8,0.43,1.59,0.88,2.38,1.34c0.69,0.41,1.36,0.83,2.05,1.22c0.33,0.18,0.66,0.35,0.99,0.51
	c0.29,0.14,0.59,0.27,0.89,0.4c0,0-0.01-0.01-0.01-0.01c0.05,0.03,0.11,0.06,0.16,0.08c0.04,0.01,0.08,0.04,0.12,0.07h0.01
	c0.01,0,0.01,0,0.01,0c-0.01,0-0.01,0-0.01,0s0,0,0.01,0c0,0.01,0.01,0.01,0.01,0.01c0.4,0.22,0.8,0.46,1.18,0.72
	c0.36,0.23,0.71,0.48,1.06,0.72c0.39,0.26,0.78,0.5,1.16,0.75c0.35,0.23,0.69,0.46,1.04,0.69c0.23,0.15,0.48,0.29,0.72,0.44
	c0.15,0.1,0.3,0.21,0.48,0.24c0.14,0.02,0.29,0,0.4-0.09c0.04-0.01,0.07-0.04,0.1-0.07c1.24,0.79,2.48,1.6,3.7,2.44
	c1.43,0.74,3.02,2.01,3.02,3.47C273.43,117.48,273.18,118.09,272.55,118.71z"/>
<path d="M260.23,107.42c0.01,0,0.03,0.01,0.04,0.02C260.26,107.44,260.25,107.43,260.23,107.42z"/>
<path d="M152.54,207.94c-2.87-0.04-2.68-2.56-2.84-4.61c-1.34-10.84-9.13-20.24-18.1-25.85c-14.22-8.93-30.1-0.22-40.24,10.76
	c-2.69,3.93-5.4,7.87-7.69,12.04c-0.35,2-3.21,2.78-4.52,1.18c-1.86-2.38,1.12-4.92,2.03-7.11c2.16-3.26,4.17-6.65,6.55-9.75
	c15.76-16.48,35.96-22.98,54.06-5.78c4.69,4.66,8.85,10.23,11.25,16.41c0.49,1.71,1.94,5.92,1.94,9.03
	C154.97,206.27,154.37,207.81,152.54,207.94z"/>
<path d="M282.5,210.84c-2.24,1.09-3.47-0.93-4.28-2.54c-2.32-3.69-5.4-6.71-8.42-9.81c-11.65-8.31-28.73-11.63-41.67-4.42
	c-7.24,4.47-11.36,12.71-16.13,19.24c-1.02,1.81-3.9,1.51-4.56-0.47c-0.6-1.78,0.71-2.82,1.47-4.16c2.38-2.99,4.1-5.89,6.21-8.99
	c5.98-8.91,16-14.43,26.74-14.62c14.52-0.48,29.62,5.1,38.29,17.14c1.07,1.68,3.67,4.27,3.67,6.43
	C283.82,209.46,283.46,210.22,282.5,210.84z"/>
<path d="M191.53,263.37c-0.12,0.75-0.38,1.47-0.62,2.18c-0.38,1.16-0.85,2.28-1.37,3.37c-0.54,1.13-1.26,2.18-1.97,3.21
	c-1.48,2.17-3.3,4.33-5.65,5.56c-1.32,0.7-2.76,1.1-4.26,0.94c-1.51-0.16-2.77-0.86-3.81-1.94c-0.37-0.37-0.67-0.83-0.99-1.23
	c-0.43-0.56-0.86-1.1-1.27-1.66c-0.79-1.07-1.46-2.19-2.11-3.33c-0.58-0.99-1.21-1.95-1.82-2.92c-0.77-1.24-1.49-2.52-2.17-3.82
	c-0.63-1.19-1.45-2.68-0.95-4.06c0.38-1.07,1.46-1.74,2.55-1.68c0.2-0.1,0.42-0.17,0.64-0.23c0.66-0.17,1.23-0.03,1.83,0.15
	c0.02,0.01,0.05,0.01,0.08,0.01c0.07,0.01,0.15,0.01,0.22,0.01c0.58,0,1.18-0.03,1.76-0.05c1.15-0.05,2.28,0.04,3.42,0.08
	c1.08-0.01,2.16-0.17,3.23-0.2c1.21-0.05,2.43-0.04,3.59-0.03c1.39,0.01,2.78,0.06,4.15,0.35c1.13,0.24,2.22,0.63,3.28,1.1
	c0.83,0.38,1.59,1,1.99,1.84c0.24,0.49,0.33,1.02,0.33,1.55C191.58,262.83,191.56,263.1,191.53,263.37z M174.31,268.68
	c0.5,0.88,1.09,1.71,1.69,2.53c0.54,0.71,1.07,1.46,1.68,2.11c0.03,0.03,0.05,0.05,0.08,0.07c0.02,0.01,0.04,0.03,0.07,0.04
	c0.01,0.01,0.02,0.01,0.04,0.02c0.03,0.01,0.07,0.02,0.1,0.04c0.07,0.02,0.15,0.04,0.22,0.05c0.05,0.01,0.1,0.01,0.15,0.01
	c0.07-0.01,0.13-0.01,0.19-0.01c0.08-0.01,0.15-0.03,0.23-0.04c0.12-0.04,0.23-0.08,0.34-0.12c0.16-0.07,0.31-0.15,0.47-0.23
	c0.26-0.15,0.5-0.31,0.75-0.49c0.28-0.23,0.55-0.46,0.81-0.71c0.45-0.46,0.88-0.94,1.29-1.44c0.75-0.98,1.45-2.01,2.1-3.06
	c0.27-0.48,0.51-0.96,0.75-1.46c0.35-0.84,0.68-1.68,0.96-2.54c-0.23-0.09-0.46-0.16-0.7-0.23c-0.36-0.1-0.72-0.18-1.09-0.24
	c-0.78-0.1-1.54-0.14-2.26-0.15c-0.54-0.01-1.09-0.01-1.28-0.02c-1.4-0.01-2.82,0.04-4.21,0.18c-1.31,0.12-2.6,0.01-3.91-0.02
	c-0.61,0-1.24,0.05-1.86,0.07C172.05,264.98,173.3,266.87,174.31,268.68z"/>
<path d="M187.1,265.44c-0.61,3.25-3.01,6.54-6.11,7.77c-0.64,1.97-3.55,2.62-4.77,0.89c-1.84-0.72-3.29-2.96-2.2-4.84
	c-0.26-0.26-0.48-0.54-0.68-0.86c-3.83,0.01-5.89-6.56-1.65-7.61c1.26-0.37,2.77-0.18,3.47,1.02c0.8,0.06,1.57,0.41,2.04,1.04
	c0.34-0.25,0.72-0.45,1.12-0.58c0.34-0.11,0.69-0.17,1.06-0.18c0.3-0.31,0.67-0.56,1.11-0.7c0.5-0.16,1.02-0.2,1.51-0.12
	c2.75-1.51,5.23,0.38,5.23,3.11C187.23,264.72,187.19,265.08,187.1,265.44z"/>
<path d="M184.21,263.43c-1.68,0.34-3.94,0.94-4.87-0.99c-0.53-0.07-1.07-0.16-1.61-0.2c-2.44-0.09-4.9,0.07-7.34,0.04
	c0.97,3.04-3.37,4.77-4.75,1.86c-0.35-1.16-1.32-1.87-1.59-3.07c-0.69-2.15,1.5-3.86,3.47-3.95c3.94,0.54,18.53-1.73,18.64,3.69
	c0,0.01,0,0.02,0,0.03C186.17,262.02,185.35,263.09,184.21,263.43z"/>
<path d="M191.6,267.13c-1.49,2.05-4.91,5.86-7.3,3c-0.8-1.13-0.55-2.76,0.58-3.56c1.45-0.86,2.47-2.15,3.42-3.51
	c-0.39-0.2-0.8-0.38-1.2-0.54c-0.38-0.14-0.76-0.26-1.15-0.38c-1.24,0.61-2.73,0.03-4.07,0.2c-2.29,0.12-4.56,0.49-6.85,0.63
	c-1.25,0.07-2.51,0.03-3.75,0.16c-1.05,0.48-2.46,0.11-3.1-0.9c-3.24,1.75-5.62-2.66-2.6-4.61c5.18-2.66,28.15-2.82,28.15,4.93
	C193.73,263.84,193.08,265.36,191.6,267.13z"/>
<path d="M191.51,267.15c-2.43,2.84-5.07,5.97-8.55,7.49c-1.87,0.69-4.26-0.39-4.51-2.47c-0.31-1.88,1.73-3.52,3.49-2.73
	c1.65-1.21,3.12-2.65,4.5-4.15c1-1.52,2.79-3.11,4.59-1.73c0.65,0.49,1,1.28,1,2.06C192.03,266.17,191.86,266.71,191.51,267.15z"/>
<path d="M191.85,266.98c-1.17,2.95-3.26,5.34-5.6,7.44c-1.86,1.52-4.58,5.1-6.92,2.41c-0.87-1.11-0.65-2.71,0.44-3.58
	c3.2-2.62,6.3-5.15,7.75-9.04c-0.07-2.23,1.28-3.18,2.63-3.1c1.32,0.08,2.64,1.14,2.64,2.96
	C192.78,264.89,192.51,265.87,191.85,266.98z"/>
<path d="M194.17,263.4c-1.19,5.73-5.85,10.19-10.33,13.45c-1.26,0.8-2.46,2.19-4.09,2.02c-2.54-0.27-3.04-3.98-0.67-4.9
	c4-2.71,8.08-6,9.86-10.62c-1.96-0.42-4.91-1.24-4.25-3.85c0.34-1.29,1.79-2.25,3.11-1.81c2.89,0.95,6.47,1.1,6.47,4.55
	C194.29,262.6,194.25,262.98,194.17,263.4z"/>
<path d="M181.41,276.64c-0.21,7.77-6.5,13.91-13.38,16.67c-5,1.94-10.46,0.75-15.53-0.29c-2.24-0.58-6.32-1.25-5.32-4.45
	c1.12-2.54,3.29-1.52,5.27-0.83c4.62,1.03,9.68,2.46,14.27,0.62c3.61-1.67,6.98-4.42,8.78-8.01c0.69-1.75,0.77-4.01,1.05-5.7
	c-0.5-2.3,2.57-3.97,4.25-2.3c0.67,0.63,0.86,1.41,0.86,2.23C181.65,275.26,181.51,275.98,181.41,276.64z"/>
<path d="M202.51,292.03c-0.12,1.39-1.37,2.44-2.76,2.33c-2.51-0.2-5.02-0.23-7.51-0.61c-5.16-0.62-10.39-2.35-14.02-6.26
	c-1.89-1.86-2.85-4.48-2.81-7.12c-0.1-2.51,0.83-6.51,4.14-5.07c1.6,0.88,1.37,2.36,1.13,3.87c-0.15,0.95-0.29,1.92,0.01,2.76
	c1.95,4.72,7.79,6.15,12.39,6.79c2.78,0.83,9.43-0.93,9.43,3.2C202.51,291.96,202.51,292,202.51,292.03z"/>
<path d="M24.56,266.13c-1.1,0.38-2.33-0.22-2.71-1.32c-2.51-5.78-4.98-11.62-6.27-17.82c-0.1-0.83-0.09-1.66,0.35-2.4
	c1.16-1.97,4.41-0.61,3.85,1.58c0.86,3.86,2.11,7.7,3.55,11.41c0.51,1.66,2.62,4.46,2.62,6.51
	C25.94,264.94,25.57,265.67,24.56,266.13z"/>
<path d="M25.24,262.66c-0.04,1.79-2.54,2.72-3.69,1.3c-2.57-4.34-4.72-9.26-5.21-14.33c-0.2-1.4-0.52-3.25,1.02-4.01
	c1.04-0.52,2.33-0.1,2.86,0.94c0.38,0.78,0.12,1.78,0.32,2.52c0.56,4.47,2.25,8.6,4.41,12.4c-0.04-0.07-0.08-0.13-0.12-0.2
	c-0.04-0.06-0.09-0.12-0.14-0.18c0.34,0.42,0.55,0.9,0.55,1.43C25.25,262.58,25.24,262.62,25.24,262.66z"/>
<path d="M26.82,269.18c-1.34,0.48-2.53-0.48-2.9-1.73c-0.73-1.78-1.42-3.21-2.08-4.96c-1.95-4.7-4.12-9.41-4.97-14.39
	c0.01-0.41-0.07-0.83-0.14-1.24c-0.12-0.72-0.25-1.44,0.05-2.13c0.7-1.57,3.11-1.68,3.85-0.09c0.7,5.69,2.76,10.84,5.04,16
	c-0.01-0.01-0.01-0.03-0.02-0.04c-0.01-0.01-0.01-0.02-0.01-0.03c0.56,1.39,1.32,3.22,1.87,4.47c0.39,0.67,0.69,1.47,0.69,2.2
	C28.19,268.06,27.82,268.8,26.82,269.18z"/>
<path d="M32.36,188.09c-0.37,0.69-0.76,1.37-1.14,2.05c0.11,0.16,0.07,0.38-0.04,0.53c-1.19,1.92-2.3,3.91-3.38,5.89
	c-0.22,0.61-1.11,0.37-0.88-0.28c0.2-0.29,0.38-0.58,0.54-0.9c-0.04-0.06-0.07-0.13-0.08-0.2c-0.23,0.32-0.42,0.99-0.94,0.75
	c-0.19-0.1-0.29-0.38-0.17-0.58c0.25-0.45,0.5-0.91,0.76-1.37c0.02-0.01,0.04-0.01,0.06-0.03c0.15-0.1,0.22-0.26,0.2-0.42
	c0.04-0.07,0.08-0.14,0.12-0.2c0.01-0.02,0.03-0.05,0.04-0.07c0.01-0.01,0.01-0.01,0.01-0.02c0.8-1.4,1.63-2.77,2.56-4.09
	c0.41-0.44,0.74-1.9,1.5-1.35c0.2-0.51,0.89-0.35,0.89,0.08C32.41,187.93,32.39,188.01,32.36,188.09z"/>
<path d="M27.81,195.35c-0.86-0.2-1.57-0.88-1.97-1.65c-0.61,0.1-1.34-0.95-0.55-1.21c-0.16-0.29-0.21-0.7,0.17-0.83
	c0.61-0.1,0.64,0.68,0.86,1.14c-0.04,0.07-0.06,0.16-0.06,0.25c0,0.04,0.01,0.07,0.01,0.1c0,0.07,0.01,0.12,0.04,0.18
	c0,0.01,0,0.01,0,0.01c0.01,0,0.01,0.01,0.01,0.01v0.01c0,0,0,0,0.01,0c0.04,0.15,0.09,0.31,0.18,0.45c0.11,0.2,0.39,0.26,0.58,0.14
	c0.03-0.02,0.05-0.04,0.07-0.06c0.31,0.24,1.09,0.7,1.09,1.07C28.25,195.11,28.13,195.24,27.81,195.35z"/>
<path d="M28.52,193.44c-0.05,0.13-0.16,0.21-0.28,0.25c-0.12,0.14-0.27,0.2-0.37,0.31c0,0,0.01-0.01,0.01-0.01
	c-0.46,0.68-1.5,0.83-1.86-0.04c-0.07-0.24-0.15-0.42-0.28-0.64c-0.15-0.42-0.45-0.75-0.58-1.18c-0.29-0.45,0.44-0.91,0.72-0.45
	c0.16,0.45,0.46,0.81,0.62,1.25c0.19,0.22,0.23,0.67,0.41,0.78c0,0,0-0.01,0,0c0.39-0.26,0.61-0.63,1.01-0.84
	c0.29-0.11,0.62,0.12,0.62,0.41C28.55,193.34,28.54,193.39,28.52,193.44z M27.9,193.98c0.01-0.01,0.01-0.01,0.01-0.02
	C27.9,193.97,27.9,193.97,27.9,193.98C27.89,193.98,27.89,193.98,27.9,193.98z"/>
<path d="M360.89,56.07c-0.23,0.03-0.43-0.15-0.47-0.37c-0.84-5.05-1.52-10.24-3.93-14.83c-0.34,0.27-0.94-0.03-0.75-0.48
	c-1.67-4.45-5.94-8.2-10.84-8.15c-0.46,0.17-0.97-0.36-0.56-0.78c2.16-1.9,5.02-0.34,6.91,1.19c2.21,1.48,4.76,3.52,5.13,6.28
	c3.11,5.02,3.94,10.95,4.88,16.66c0,0.02,0,0.04,0,0.06C361.27,55.86,361.1,56.05,360.89,56.07z M347.54,31.7
	c0.32,0.09,0.64,0.2,0.97,0.31c0.23,0.07,0.45,0.15,0.67,0.23c-0.88-0.47-1.82-0.99-2.81-0.78
	C346.76,31.51,347.16,31.59,347.54,31.7z"/>
<path d="M341.99,223.2c-0.49,0.25-0.68-0.33-0.78-0.7c-0.34-1.13-0.91-2.16-1.07-3.3c-0.24-0.74-0.47-1.48-0.69-2.22
	c-0.07-0.22,0.07-0.47,0.29-0.53c0.68-0.11,0.61,0.86,0.83,1.28c0.46-0.14,0.83,0.23,1.1,0.55c0.16,0.07,0.26,0.25,0.24,0.43
	c-0.04,0.34-0.46,0.48-0.72,0.27c0.1,0.69,0.79,1.45,0.48,2.11c0.05,0.49,0.51,1.12,0.51,1.64
	C342.18,222.9,342.13,223.06,341.99,223.2z"/>
<path d="M337.84,283.18c-0.91,2.02-2.2,3.85-3.73,5.44c-0.26,0.23-0.45,0.63-0.82,0.63c-0.43-0.04-0.53-0.61-0.18-0.82
	c1.01-1.03,1.93-2.11,2.67-3.31c-0.17-0.57,0.46-1.12,0.56-1.65c-0.1-0.39,0.34-0.66,0.64-0.48c0.18-0.46,0.87-0.36,0.87,0.11
	C337.85,283.12,337.85,283.15,337.84,283.18z"/>
</svg>
