<?xml version="1.0" encoding="utf-8"?>
<!-- Generator: Adobe Adobe Illustrator 24.2.0, SVG Export Plug-In . SVG Version: 6.00 Build 0)  -->
<svg version="1.1" id="Vectorlaag_1_" xmlns="http://www.w3.org/2000/svg" xmlns:xlink="http://www.w3.org/1999/xlink" x="0px"
	 y="0px" width="375px" height="375px" viewBox="0 0 375 375" style="enable-background:new 0 0 375 375;" xml:space="preserve">
<style type="text/css">
	.st0{fill:#F18B47;}
	.st1{fill:#FFBC90;}
	.st2{fill:#FF781D;}
</style>
<path class="st0" d="M229.78,213.3c-5.45,28.19-23.91,55-51.18,65.63c-26.49,29.04-71.23,25.75-94.21-5.67
	c-17.48-6.75-27.39-24.04-33.86-40.7c-32.32-22.28-43.75-60.27-48.62-97.78c0.02-0.07,0.04-0.13,0.05-0.19
	c0.36-1.62,0.13-3.25-0.05-4.89c0.13-0.08,0.26-0.17,0.38-0.29c0.31-0.27,0.66-0.56,0.87-0.93c0.25-0.42,0.46-0.84,0.66-1.28
	c0.6-1.24,0.05-2.77-1.11-3.45c-0.01-0.67-0.02-1.34-0.02-2.01c0.06-0.21,0.1-0.42,0.11-0.64c0.23-3.31,0.31-6.64,0.36-9.96
	c0.73-0.46,1.24-1.24,1.26-2.13c0.03-1.48,0.03-2.97,0.03-4.45c0-1.94,0-3.88,0.07-5.82c0.06-1.74,0.13-3.47,0.26-5.21
	c0.05-0.77,0.11-1.54,0.16-2.3c0.03-0.39,0.05-0.78,0.08-1.17C15.3,74.17,37.87,67.45,55.7,78.41
	c13.73,1.62,25.54,11.52,30.14,24.18c3.38,3.11,7.2,5.71,11.01,8.27c17.45-4.68,36.68-2.37,52.27,6.8
	c50.2-10.28,83.07,29.67,83.07,74.63C232.19,199.23,231.41,206.3,229.78,213.3z"/>
<path class="st0" d="M162.85,84.27c0,0,0.01,0,0.01,0c0.02,0,0.04,0,0.05,0C162.9,84.27,162.87,84.27,162.85,84.27z"/>
<path class="st0" d="M162.56,84.29c0.09-0.01,0.2-0.01,0.3-0.01C162.75,84.28,162.65,84.29,162.56,84.29z"/>
<path class="st0" d="M369.81,32.2c-0.07-0.1-0.15-0.19-0.25-0.29c0.09,0.05,0.19,0.09,0.28,0.14
	C369.83,32.1,369.82,32.15,369.81,32.2z"/>
<path class="st0" d="M258.49,346.07c-0.07,0-0.14,0-0.21,0.01C258.35,346.07,258.42,346.07,258.49,346.07L258.49,346.07z"/>
<path class="st0" d="M371.52,89.18c-0.63,0.32-1.17,0.81-1.46,1.46c-0.34,0.76-0.32,1.53-0.28,2.33c0.03,1.28,0.1,2.56,0.2,3.83
	c-0.01,1.31-0.12,2.65-0.23,3.96c-0.13,1.6-0.29,3.19-0.47,4.79c-0.3,2.67-0.72,5.34-1.08,8c-0.42,3.02-0.89,6.03-1.43,9.03
	c-0.22,1.2-0.5,2.37-0.72,3.56c-0.15,0.83-0.3,1.65-0.45,2.47c-0.13,0.74-0.19,1.5-0.28,2.25c-0.01,0.05-0.02,0.12-0.02,0.17
	c-0.01,0.03-0.02,0.07-0.02,0.11c0.01-0.02,0.01-0.05,0.02-0.06c-0.42,3.6-0.49,7.22-0.59,10.85c-0.08,3.32-0.12,6.64-0.2,9.97
	c-0.06,3.01-0.13,6.02-0.19,9.02c-0.01,0.35-0.02,0.7-0.02,1.04c-0.73,2.8-1.5,5.58-2.12,8.39c-0.29,1.31,0.28,2.65,1.55,3.19
	c0.19,0.08,0.39,0.14,0.59,0.17c0.01,0.23,0.02,0.45,0.02,0.68c0.02,0.88,0.05,1.76,0.06,2.64c0.02,0.55,0.04,1.1,0.07,1.65
	c-0.33,1.28-0.67,2.57-1,3.86c-0.57,2.19-1.17,4.37-1.78,6.55c-0.4,0.93-0.75,1.9-1.07,2.86c-0.49,1.44-0.9,2.89-1.27,4.36
	c-0.35,1.34-0.63,2.7-0.93,4.05c-0.09,0.4-0.17,0.8-0.25,1.2c-0.49,1.81-0.98,3.62-1.44,5.45c-0.72,2.82-1.43,5.65-2.09,8.48
	c-0.82,3.57-1.7,7.13-2.21,10.76c0.02-0.12,0.03-0.23,0.05-0.35c-0.11,0.68-0.19,1.31-0.17,1.99c0.02,0.46,0.19,0.87,0.38,1.27
	c0.23,0.5,0.61,0.89,1.05,1.15c-0.12,1.47,0.04,2.94,0.08,4.4c0.03,1.17,0.07,2.34,0.1,3.52c0.02,1.16,0.08,2.31,0.12,3.46
	c-1.19,0.4-1.95,1.61-1.82,2.88c0.24,2.41,0.42,4.81,0.56,7.22c-0.01-0.07-0.01-0.14-0.02-0.22c0,1.01,0,2.02,0,3.03
	c0,0.04,0,0.08,0,0.12c-0.06,0.6-0.12,1.21-0.19,1.81c-0.29,2.82-0.59,5.65-0.94,8.47c-0.36,2.91-0.77,5.78-1.21,8.67
	c-0.36,2.39-0.84,4.74-1.32,7.12c-0.2,0.88-0.4,1.77-0.6,2.65c-0.01,0.02-0.02,0.05-0.02,0.07c-0.02,0.05-0.03,0.1-0.05,0.15
	c-0.32,0.86-0.73,1.68-0.91,2.58c-0.15,0.79-0.19,1.54-0.15,2.33c0.01,0.21,0.05,0.4,0.12,0.6c-12.86,20.95-35.25,36.43-61.27,46.8
	c-9.34,3.11-18.44,6.71-27.69,10.04c-2.16,0.07-4.32,0.02-6.47,0.04c-0.35,0.01-0.69,0.01-1.04,0.01c-0.61-1.14-2.03-1.75-3.29-1.3
	c-0.22,0.09-0.45,0.17-0.68,0.24c-1.53,0.39-3.11,0.63-4.66,0.96c-1.31,0.27-2.62,0.55-3.91,0.85c-1.16,0.27-2.32,0.53-3.48,0.77
	c-0.6,0.08-1.2,0.15-1.81,0.22c-1.48,0.18-2.96,0.41-4.43,0.52c-1.49,0.1-2.97,0.24-4.46,0.29c-1.55,0.04-3.08,0.08-4.61,0.14
	c-1.61,0.06-3.21,0.16-4.81,0.29c-0.71,0.05-1.41,0.16-2.12,0.25c-1.26,0.15-2.51,0.33-3.71,0.76c-0.89,0.32-1.51,1.14-1.67,2.04
	c-5.27-0.58-10.49-1.59-15.62-3.1c-15.16,3.34-31.13,4.8-46.58,2.88c-9.8-1.39-18.81-5.72-28.59-7.3c-1.64-0.19-3.27-0.41-4.91-0.63
	c0.11-0.29,0.16-0.59,0.16-0.9c0-0.08-0.01-0.15-0.01-0.23c-0.12-1.27-1.26-2.48-2.6-2.44c-1.04,0.03-2.09,0.09-3.14,0.08
	c-1-0.05-1.99-0.16-2.97-0.34c-0.14-0.03-0.28-0.06-0.41-0.09c-2.77-0.64-5.43-1.58-8.06-2.63c0.11,0.04,0.22,0.09,0.32,0.12
	c-0.26-0.1-0.53-0.21-0.79-0.32c0.01,0,0.02,0.01,0.02,0.01c-0.01-0.01-0.02-0.01-0.02-0.01c-3.59-1.5-7.07-3.21-10.5-5.02
	c-1.85-0.99-3.76-1.92-5.59-2.97c-4.06-2.34-8.09-4.69-12.11-7.1c-2.47-1.48-4.94-2.99-7.47-4.39c-1.79-0.99-3.6-1.95-5.49-2.75
	c-0.17-0.07-0.35-0.15-0.52-0.22c-3-2.09-5.96-4.23-8.84-6.48c-1.56-1.23-3.15-2.4-4.66-3.69c-1.15-0.99-2.3-1.98-3.46-2.97
	c-0.8-0.87-1.58-1.75-2.39-2.61c-0.66-0.82-1.33-1.64-1.99-2.45c0.08,0.08,0.15,0.18,0.22,0.26c-0.55-0.68-1.1-1.35-1.65-2.03
	c-1.58-2.17-3.15-4.35-4.71-6.53c-1.6-2.23-3.25-4.4-4.91-6.57c-0.96-1.25-2.03-2.42-3.04-3.62c-0.85-1-1.77-1.94-2.66-2.9
	c-0.92-1-1.88-1.96-2.84-2.92c-1.38-4.09-2.5-8.27-3.3-12.51c-2.62-13.17-4.18-27.67,4.18-39.17c0.19-1.36,0.29-2.72,0.32-4.07
	c0.42-0.1,0.8-0.3,1.11-0.59c0.54-0.51,1.12-1.14,1.24-1.9c0.07-0.48,0.11-0.9,0.08-1.39c-0.03-0.37-0.13-0.74-0.21-1.1
	c-0.21-0.92-0.45-1.82-0.7-2.73c0.8-0.33,1.45-1.02,1.63-1.92c0.18-0.87,0.14-1.75,0.04-2.61c0.11-0.29,0.17-0.59,0.17-0.9
	c0-0.18-0.02-0.36-0.06-0.54c-0.19-0.75-0.48-1.44-0.81-2.14c-0.05-0.11-0.12-0.22-0.18-0.31c0.29-0.82,0.19-1.8-0.31-2.52
	c-0.28-0.39-0.64-0.69-1.04-0.87c-0.28-0.8-0.55-1.59-0.8-2.4c-0.01-0.01-0.01-0.02-0.02-0.02c-0.01-0.26-0.05-0.52-0.12-0.76
	c-0.19-0.61-0.45-1.2-0.7-1.78c0.05,0.11,0.09,0.22,0.14,0.32c-0.08-0.19-0.15-0.38-0.24-0.58c-0.27-0.8-0.53-1.64-0.89-2.4
	c-0.73-2.1-1.34-4.25-1.98-6.39c-0.86-2.89-1.74-5.78-2.6-8.67c0.11-2.28,0.43-4.56,1.02-6.86c6.24-26.68,42.33-36.82,63.15-20.44
	c6.86,5.45,13.09,11.7,18.37,18.71c1.44-0.33,2.87-0.66,4.32-0.98c-7.85-19.8-0.25-42.16,11.93-58.5c2.12-4.13,4.97-7.83,8.34-10.94
	c0.09,0.25,0.22,0.49,0.37,0.73c0.65,0.97,1.47,1.88,2.58,2.32c0.76,0.29,1.7,0.12,2.36-0.32c0.63-0.42,0.96-1.04,1.14-1.75
	c0-0.01,0-0.01,0-0.01c0.08-0.27,0.08-0.57,0.04-0.87c0.29-0.15,0.6-0.3,0.9-0.43c0.63-0.25,1.22-0.52,1.75-0.91
	c0.39,0.27,0.84,0.46,1.34,0.51c1.13,0.14,2.26-0.29,3.34-0.61c0.58-0.13,1.15-0.25,1.74-0.34c1.19-0.12,2.4-0.18,3.58-0.42
	c1.49-0.3,3.04-0.5,4.47-1.03c1.09-0.39,2.07-1.15,2.85-2.01c0.99,0.1,1.99,0.18,2.97,0.19c2.3,0.06,4.6,0.1,6.91,0.14
	c2.1,0.03,4.17-0.15,6.25-0.38c2.26-0.24,4.52-0.36,6.78-0.47c-0.03,0-0.06,0.01-0.09,0.01c0.17-0.01,0.34-0.02,0.52-0.03
	c-0.02,0-0.05,0-0.07,0c1.34-0.06,2.7-0.1,4.04-0.3c0.83-0.12,1.65-0.29,2.47-0.46c0.31-0.03,0.61-0.06,0.92-0.08
	c0.16,0,0.33-0.01,0.49-0.02c0.96-0.05,1.79-0.74,2.19-1.58c0.02-0.03,0.03-0.05,0.04-0.09c0.17-0.36,0.25-0.72,0.25-1.07
	c0-0.08-0.01-0.17-0.02-0.25c6.1,1.27,12.13,3.01,18.02,4.94c28.35,0.15,56.01,9.74,80.07,24.43c4.98-8.55,11.45-16.33,17.04-24.53
	c1,0.74,2.5,0.71,3.43-0.17c0.61-0.59,1.11-1.29,1.65-1.94c0.49-0.6,1-1.19,1.52-1.78c0.88-1,1.84-1.92,2.78-2.87
	c2.02-2.02,3.92-4.18,5.84-6.29c-0.05,0.05-0.09,0.11-0.15,0.17c0.32-0.35,0.63-0.7,0.94-1.04c1.62-1.68,3.25-3.35,4.97-4.92
	c1.76-1.61,3.55-3.19,5.25-4.88c2.1-2.08,4.16-4.19,6.17-6.37c2.12-2.32,4.21-4.64,6.33-6.96c1.9-2.09,3.87-4.12,5.81-6.17
	c1.99-2.09,3.99-4.18,6.02-6.24c0.61-0.57,1.23-1.16,1.84-1.74c0.63-0.59,1.34-1.11,2-1.65c1.27-1.05,2.64-2,3.96-3
	c1.3-1,2.61-1.99,3.82-3.08c0.71-0.63,1.44-1.24,2.12-1.91c0.58-0.58,1.18-1.14,1.72-1.75c1.89,0.09,3.76,0.34,5.59,0.73
	c0.05,0.55,0.13,1.1,0.19,1.64c0.07,0.65,0.13,1.31,0.19,1.96c0.13,1.36,0.29,2.74,0.61,4.06c0.3,1.24,0.62,2.53,1.36,3.59
	c0.8,1.14,2.26,1.42,3.4,0.88c0.6,1.01,1.26,1.99,1.88,2.97c0.32,0.5,0.63,1,0.95,1.5c0.01,1.36,0.02,2.72,0.05,4.08
	c0.01,0.87,0.41,1.67,1.07,2.18c0.13,1,0.22,1.99,0.33,2.99c0.18,1.54,0.36,3.08,0.49,4.63c0.15,1.64,0.32,3.28,0.41,4.91
	c0.08,1.68,0.17,3.37,0.27,5.06c0.05,2.24,0.13,4.49,0.18,6.74c0.05,2.36,0.1,4.73,0.23,7.09c-0.06,0.25-0.1,0.52-0.11,0.8
	c-0.03,1.7,0.07,3.41,0.16,5.11C371.95,88.99,371.73,89.08,371.52,89.18z M163.84,261.02c0.68-6.2,3.21-11.99,6.3-17.36
	c-1.78-4.26-3.71-8.41-5.78-12.52c-0.69-1.19-1.38-2.36-2.09-3.52c-26.33,1.44-51.75,8.41-77.52,13.05
	c-0.2,5.06-0.47,10.29-0.42,15.35c13.88,14.01,31.38,14.47,49.51,17.9c11.51,1.92,20.47,7.49,31.8,5.75
	c-1.48-4.13-2.33-8.5-2.33-12.86C163.32,264.87,163.49,262.93,163.84,261.02z"/>
<path class="st0" d="M141.55,137.5c-12.42,12.86-33.18,14.62-47.45,4.33c-10.36,7.71-23.26,8.53-35.27,5.89
	c-19.63-5.56-30.23-24.8-37.73-42.34C9.84,97.55,5.47,83.81,6.3,70.61c0.04-0.22,0.08-0.43,0.12-0.65c0.46-2.53,0.96-5.05,1.47-7.57
	c0.44-2.12,0.97-4.21,1.48-6.31c0.65-2.43,1.3-4.85,1.93-7.29c0.33-1.26,0.64-2.51,0.93-3.78c0.15-0.69,0.33-1.38,0.47-2.08
	c0.15-0.79,0.34-1.58,0.38-2.4c0-0.01,0-0.02,0-0.03c0.53-0.12,1.01-0.41,1.38-0.83c0.97-1.1,1.47-2.5,1.97-3.85
	c0.41-1.07,0.8-2.16,1.15-3.26c0.44-1.41,0.89-2.84,1.33-4.26c0.71-2.26,1.34-4.54,1.99-6.8c0.65-2.27,1.26-4.56,1.89-6.85
	c0.27-1,0.53-2.02,0.78-3.04c0.12-0.48,0.27-0.97,0.39-1.46c0.14,0.05,0.28,0.08,0.42,0.13c0.7,0.22,1.48,0.47,2.23,0.46
	c0.66-0.02,1.25-0.07,1.87-0.3c0.27-0.1,0.53-0.23,0.78-0.38c1.7,0.39,3.39,0.81,5.11,1.16c1.02,0.21,2.03,0.35,3.06,0.48
	c0.53,0.08,1.08,0.11,1.61,0.14c0.4,0.05,0.8,0.08,1.2,0.1c1.72,1.62,3.37,3.31,5.03,5c0.15,0.15,0.29,0.29,0.43,0.44
	c0.41,0.55,0.83,1.08,1.26,1.61c-0.05,0.48,0.03,0.98,0.29,1.44c0.56,1,1.07,2.05,1.75,2.98c0.7,0.96,1.44,1.89,2.22,2.78
	c1.61,1.84,3.27,3.66,5.05,5.32c1.41,1.31,2.8,2.62,4.21,3.92c1.24,1.16,2.54,2.24,3.82,3.35c0.36,0.3,0.71,0.61,1.07,0.92
	c0.46,0.4,0.87,0.85,1.32,1.26c0.53,0.47,1.05,0.86,1.67,1.14c0.96,1.17,1.91,2.33,2.93,3.46c3.94,4.36,8.2,8.42,12.31,12.62
	c-0.02-0.01-0.02-0.02-0.04-0.03c1.59,1.64,3.1,3.37,4.64,5.05c1.45,1.6,2.94,3.17,4.4,4.76c2.2,2.52,4.37,5.05,6.62,7.52
	c0.1,0.26,0.22,0.53,0.37,0.77c0.42,0.73,0.89,1.43,1.38,2.12c0.4,0.56,0.82,1.14,1.26,1.68c0.82,1.01,1.65,2.02,2.48,3.01
	c0.76,0.91,1.48,1.84,2.15,2.8c0.67,0.98,1.45,1.84,2.26,2.7c0.68,0.78,1.37,1.54,2.08,2.3c0.66,0.75,1.28,1.52,1.97,2.25
	c0.12,0.12,0.22,0.24,0.34,0.36c-0.15,0.87,0.01,1.78,0.53,2.53c0.65,0.97,1.47,1.89,2.58,2.32c0.75,0.29,1.69,0.12,2.36-0.32
	c0.62-0.42,0.96-1.04,1.14-1.75c0-0.01,0-0.01,0-0.01c0.07-0.27,0.08-0.56,0.03-0.86c0.3-0.15,0.6-0.3,0.91-0.44
	c0.63-0.25,1.22-0.52,1.74-0.9c0.39,0.27,0.84,0.45,1.34,0.51c1.13,0.14,2.26-0.3,3.34-0.61c0.57-0.14,1.14-0.25,1.73-0.34
	c1.2-0.13,2.4-0.18,3.59-0.42c1.49-0.3,3.04-0.5,4.47-1.03c1.08-0.39,2.07-1.14,2.84-2c0.99,0.09,1.99,0.17,2.98,0.19
	c0.49,0.02,0.97,0.02,1.47,0.04c4.72,6.31,7.11,14.12,7.11,21.91C151.66,121.54,148.32,130.76,141.55,137.5z"/>
<path class="st1" d="M72.53,123.33c-8.73,14.31-20.35,26.85-28.89,41.38c-5.31,9.19-11.5,18.13-16.3,27.51
	c-0.06,1.77-0.59,3.41-1.89,4.71c-3.82,3.09-10.01,5.87-13.76,1.1c-1.86-2.33-2.03-5.56-2.43-8.42c-0.69-6.44-1.27-12.89-1.82-19.34
	c-0.92-17.1-4.82-34.14-2.54-51.31c-2.38-14.76,0.77-30.17,2.03-45c1.4-10.21,1.85-20.74,5.45-30.49
	c5.35-15.97,25.45-12.73,26.37,3.9c0.01,0.01,0.02,0.02,0.03,0.02c1.71,1.17,2.68,3.08,3.27,5.12c4.5-1.44,9.16,2.42,9.62,6.91
	c2.04,0.52,3.79,2.02,4.88,3.78c7.96,2.97,6.13,13.51,7.71,20.32c2.36,1.85,3.11,4.97,3.5,7.83c1,4.39,1.02,8.82,0.16,13.21
	c2.19,2.43,2.81,5.86,3.67,8.94c0.6,2.21,1.4,4.59,1.41,6.94C73.01,121.42,72.88,122.39,72.53,123.33z"/>
<path class="st1" d="M371.32,97.54c-0.19,4.1-0.38,7.78-0.32,10.55c-1.27,13.1-1.44,26.24-2.04,39.38
	c-0.61,13.77-4.98,26.91-7.56,40.37c-1.12,5.96-2.08,11.96-3.09,17.94c-0.57,5.51-3.07,13.58-10.13,11.93
	c-5.39-1.3-5.94-7.42-6.54-11.98c-4.69-7.18-9.52-14.37-13.28-22.17c-4.95-9.44-11.93-17.52-18.2-26.06
	c-3.62-1.92-3.88-6.24-5.3-9.6c-3.01-7.09-0.62-14.79,1.99-21.6c1.99-5.32,4.47-10.45,6.8-15.63c1.6-3.13,2.74-6.94,6.28-8.36
	c3.14-8.44,6.29-16.94,10.34-25c2.41-5.01,5.64-11.21,12.18-7.36c2.7-4.64,6.01-8.76,8.5-13.52c2.86-4.25,9.9-3.33,11.52,1.49
	c7.67,3.6,9.2,15.88,9.2,27.97C371.66,89.9,371.49,93.89,371.32,97.54z M358.07,79.01c-0.02-0.3-0.03-0.6-0.05-0.9
	c-0.07,0.23-0.14,0.46-0.21,0.7C357.9,78.87,357.99,78.94,358.07,79.01z"/>
<path class="st2" d="M20.88,198.76c0.01-0.16,0.02-0.32,0.02-0.47c0,0.01,0.01,0.02,0.01,0.04
	C20.89,198.46,20.88,198.61,20.88,198.76z"/>
<path class="st2" d="M125.74,113.9c-4.71,31.39-25.84,56.7-50.32,75.52c-13.37,11.23-30.7,15.92-47.41,19.75
	c-4.72,1.99-9.53-1.08-11.19-5.25c1.47-0.32,2.74-1.28,3.52-2.63c1.18-2.06,2.2-4.2,3.39-6.24c0.31-0.43,0.61-0.86,0.93-1.27
	c0.53-0.46,0.96-1.02,1.27-1.62c1.22-0.25,2.45-0.49,3.62-0.84c-4.08-8.14,5.29-14.76,9.88-20.4c5.43-7.12,11.2-13.94,17.22-20.55
	c16.41-17.55,33.22-35.16,52.94-49.02c8.7-5.75,17.02-1.24,17.02,7.43C126.62,110.35,126.34,112.07,125.74,113.9z"/>
<path class="st2" d="M116.03,112.37c0.39,7.63-7.81,14.13-14.51,8.96c-3.7-3.1-3.84-8.23-6.23-12.19
	c-4.91-8.28-10.05-16.5-16.18-23.94c-5.38-7.26-11.2-14.15-17.06-21.02C49.11,50.56,33.93,39.26,22.43,24.24
	c-6.97-6.88,1.92-18.47,10.37-13.41c4.81,3.82,8.15,9.22,12.34,13.7c7.29,7.64,15.76,14.07,23.16,21.63
	c1.38,0.35,2.68,1.05,3.75,2.12c4.65,4.67,8.97,9.67,13.2,14.73c4.14,4.97,8.58,9.69,12.84,14.56c7.9,9.76,17.99,20.09,17.99,33.37
	C116.07,111.4,116.06,111.89,116.03,112.37z"/>
<path class="st2" d="M97.98,134.13c-6.66,0.95-10.12-4.83-10.36-10.75c-1.07-4.6-3.02-8.92-5.18-13.12
	c-6.25-11.98-14.06-23.01-22.41-33.6c-4.77-6.34-9.22-13.13-14.17-19.42c-0.23-0.48-0.49-0.95-0.76-1.41
	c-0.73-1.24-1.49-2.45-2.34-3.61c-1.79-2.44-3.68-4.79-5.62-7.12c-0.93-1.1-1.97-2.06-3.13-2.91c-1.08-0.8-2.23-1.39-3.44-1.95
	c-1.32-0.59-2.67-0.91-4.07-1.21c-0.79-0.17-1.58-0.36-2.37-0.43c-1.11-0.1-2.17-0.05-3.27,0.15c0.05-0.01,0.1-0.02,0.15-0.03
	c-0.09,0.02-0.17,0.04-0.26,0.06h-0.01c-0.01,0-0.01,0-0.02,0c-0.01,0.01-0.01,0.01-0.01,0.01c-2.71,0.61-5.35,2.11-6.85,4.5
	c-0.24,0.38-0.47,0.77-0.69,1.18c-0.07-0.07-0.15-0.15-0.22-0.22c0.25-1.92,0.6-3.83,1-5.74c0.29-1.39,0.67-2.77,1.03-4.15
	c0.35-1.37,0.72-2.74,1.14-4.08c0.08-0.22,0.11-0.46,0.11-0.67c0-0.63-0.25-1.23-0.66-1.71c12.45-14.32,32.47,5.06,42.27,16.77
	C68.7,59.96,80.57,74.54,90.71,90.32c3.64,6.29,14.36,23.36,14.36,34.37C105.06,129.35,103.15,132.92,97.98,134.13z"/>
<path class="st2" d="M93.92,139.52c-1.5,6.18-2.12,14.09-8.14,17.65c-5.93,3.54-13.52-1.09-14.12-7.71
	c-0.7-11.2,4.26-21.86,4.4-33.06c0.56-3.32-0.39-6.7-1.32-10.06c-1.21-4.33-2.43-8.62-0.42-12.7C73.23,86,64.5,76.17,73.35,70.37
	c3.9-2.38,9.41-1.17,11.74,2.86c5.71,11.64,8.43,24.77,8.18,37.73c1.2,5.33,1.87,10.81,1.87,16.28
	C95.14,131.36,94.76,135.48,93.92,139.52z"/>
<path class="st2" d="M86.81,132c-0.88,8.91-1.35,28.43-14.87,24.35c-2.05-0.82-3.72-2.44-4.62-4.47c-2.01-4.34,0.97-8.62,1.66-12.93
	c1.8-12.71,1.61-25.64-1.19-38.18c-1.48-6.3-3.07-12.59-4.92-18.79c-2.92-6.73-0.29-16.2,8.41-15.37c8.36,1.08,7.19,9.94,9.54,15.99
	c3.74,13.09,6.43,26.54,6.43,40.14C87.25,125.82,87.11,128.91,86.81,132z"/>
<path class="st2" d="M85.11,123.5c-0.52,10.01-1.16,20.08-3.11,29.92c-0.58,5.08-5.73,8.68-10.68,7.37
	c-5.89-1.48-7.44-7.83-5.57-13.02c1.1-7.34,1.68-14.78,2.21-22.18c1.32-31.29-18.4-70.19-44.26-87.74
	c-7.22-6.11-0.11-18.07,8.73-14.46c4.15,2.44,7.93,5.32,11.64,8.39c23.78,24.05,41.03,56.91,41.03,91.26
	C85.11,123.19,85.11,123.35,85.11,123.5z"/>
<path class="st2" d="M263.37,110.31c0.06,0.07,0.12,0.13,0.19,0.2C263.49,110.45,263.42,110.38,263.37,110.31z"/>
<path class="st2" d="M343.36,231.8c-8.14-4.3-16.02-9.2-23.09-15.11c-30.74-24.18-54.22-56.77-69.71-92.55
	c-1.62-4.06-2.39-8.35-3.69-12.49c-0.66-2.95,0.48-6.04,2.61-8.07c0.78,0.56,1.8,0.83,2.7,1.14c0.37,0.14,0.74,0.26,1.11,0.39
	c0.29,0.42,0.7,0.76,1.21,0.97c2.1,0.85,4.23,1.62,6.3,2.56c0.51,0.25,1.02,0.52,1.51,0.81c0.25,0.19,0.49,0.36,0.74,0.56
	c0.1,0.09,0.21,0.19,0.31,0.29c0.09,0.12,0.19,0.23,0.29,0.36c0.55,0.82,1.02,1.74,1.95,2.19c0.87,0.42,1.89,0.45,2.71-0.06
	c0.34,0.54,0.83,0.96,1.48,1.15c0.89,0.27,1.98,0.06,2.64-0.62c0.19-0.19,0.36-0.4,0.51-0.62c2.42,1.82,4.83,3.65,7.19,5.56
	c4.64,3.75,9.28,7.5,13.83,11.35c2.8,2.37,3.52,6.38,2.2,9.65c3.7,4.74,9.21,7.78,13.35,12.15c2.85-0.04,5.7,1.29,7.31,3.82
	c4.14,6.52,8.17,13.13,12.09,19.8c4.06,7.8,11.66,17.48,8.55,26.5c3.28,2.44,6.63,4.77,9.6,6.63c0.51,0.23,1.03,0.46,1.54,0.71
	c-0.23,0.16-0.43,0.36-0.6,0.59c-0.5,0.67-0.63,1.52-0.52,2.34c0.13,0.95,0.76,1.78,1.31,2.53c0.12,0.15,0.22,0.3,0.34,0.45
	c0.03,0.07,0.06,0.14,0.09,0.22c0.45,0.97,0.98,2.05,1.95,2.59c0.33,0.19,0.71,0.35,1.1,0.43c0.28,0.2,0.56,0.4,0.85,0.59
	c-0.01,0.4,0.03,0.81,0.09,1.2c0.08,0.63,0.2,1.29,0.38,1.92c-0.49,2.81-0.64,5.7-0.31,8.53c0.15,1.33,1.37,2.34,2.68,2.34
	c0.01,0,0.01,0,0.01,0C352.42,235.43,347.14,234.4,343.36,231.8z"/>
<path class="st2" d="M367.89,61.74c-1.64-0.77-3.58-1.07-5.37-0.86c-1.27,0.15-2.55,0.42-3.76,0.88c-0.51-0.83-0.93-1.76-1.23-2.8
	c-13.46-2.48-49.39,45.44-56.69,57.31c-0.08,2.72-1.44,5.39-3.86,6.94c-0.76,0.39-0.9,1.36-1.31,2.06
	c-1.13,5.38-3.28,10.79-9.84,10.4c-5.73-0.35-9.31-6.35-7.55-11.69c-0.44-0.98-0.69-2.02-0.79-3.08c-4.33-4.26-3.75-9.06-1.32-13.78
	c0.23-0.08,0.46-0.17,0.69-0.27c0.72-0.35,1.31-0.94,1.83-1.52c0.5-0.55,1-1.1,1.41-1.73c0.38-0.58,0.67-1.2,0.97-1.82
	c0.37-0.76,0.71-1.55,1.06-2.31c0.34-0.76,0.7-1.52,1.08-2.27c1.79-2.2,3.49-4.26,4.69-6.11c1.03-1.31,2.07-2.63,3.11-3.93
	c0.67,0.39,1.51,0.49,2.29,0.2c0.56-0.2,1.07-0.42,1.58-0.73c0.46-0.28,0.88-0.6,1.29-0.93c0.86-0.7,1.68-1.42,2.47-2.19
	c0.72-0.7,1.42-1.42,2.13-2.15c1.12-1.15,2.24-2.31,3.37-3.47c2.6-2.68,5.22-5.34,7.85-7.99c4.27-4.28,8.58-8.52,12.85-12.8
	c4.17-4.18,8.25-8.46,12.36-12.7c2.01-2.07,4.07-4.1,6.11-6.13c0.96-0.97,1.99-1.86,2.99-2.78c0.91-0.83,1.81-1.68,2.74-2.5
	c1.6-1.38,3.2-2.77,4.81-4.15c4.69-0.49,8.51,1.37,11.56,4.5c-0.03,0.45-0.05,0.9-0.07,1.34c-0.09,1.78-0.16,3.6,0.13,5.36
	c0.29,1.75,0.83,3.45,1.34,5.16c0.87,3.24,1.58,6.5,2.32,9.77c0.7,3.11,1.42,6.2,2.06,9.31v0.01c0.01,0.01,0.01,0.02,0.01,0.02
	C370.3,63.23,369.17,62.35,367.89,61.74z"/>
<path class="st2" d="M369.45,99.18c-0.02,0.01-0.05,0.02-0.08,0.03c0.08-1.1,0.1-2.21,0.03-3.31c0.24-0.43,0.46-0.87,0.67-1.31
	C369.84,96.11,369.61,97.63,369.45,99.18z"/>
<path class="st2" d="M367.89,61.74c-1.64-0.77-3.58-1.07-5.37-0.86c-1.78,0.22-3.55,0.65-5.14,1.51c-0.98,0.53-1.89,1.16-2.77,1.85
	c-0.32,0.25-0.66,0.51-0.97,0.8c0-0.02-0.01-0.03-0.02-0.04c-21.48,15.57-38.66,38.08-44.03,64.41c-1.16,5.56-1.58,11.2-1.69,16.87
	c0.28,4.03,1.09,8.34-2.57,11.39c-5.5,5.05-14.53,0.22-14.38-6.98c-1.51-27.21,9.37-53.97,26.27-74.95c5.71-7.5,32.33-33,41-32.28
	c8.84,1.06,10.52,11.91,12.34,19.01c0.21,0.59,0.4,1.18,0.59,1.78C370.25,63.2,369.14,62.33,367.89,61.74z"/>
<path class="st2" d="M372.22,74.82c-0.04,0.96-0.07,1.93-0.09,2.89c-0.01,0.13-0.02,0.25-0.03,0.37c-0.25-0.44-0.55-0.85-0.89-1.22
	c-0.01-0.09-0.02-0.19-0.05-0.28c-0.15-0.83-0.4-1.63-0.71-2.41c0.04-0.09,0.07-0.19,0.09-0.28c0.31-0.97,0.54-2.02,0.59-3.07
	c0.32-0.09,0.63-0.25,0.9-0.45c0.05,0.53,0.08,1.05,0.12,1.58c0.02,0.78,0.07,1.58,0.07,2.37
	C372.23,74.49,372.23,74.65,372.22,74.82z"/>
<path class="st2" d="M372.13,77.71C372.13,77.71,372.13,77.71,372.13,77.71c0-0.02,0-0.03,0-0.04
	C372.13,77.68,372.13,77.7,372.13,77.71z"/>
<path class="st2" d="M372.13,77.87c0-0.05,0-0.1,0-0.16C372.13,77.76,372.13,77.82,372.13,77.87z"/>
<path d="M117.86,102.19c-0.1,0.05-0.19,0.09-0.29,0.14c-0.49,0.19-0.98,0.38-1.46,0.59c-0.56,0.26-1.12,0.5-1.68,0.77
	c-0.08,0.04-0.15,0.08-0.23,0.12c-0.66-0.29-1.22-0.84-1.45-1.57c-1.22-1.84-2.56-3.6-3.8-5.42c-4.13-5.86-8.24-11.74-12.59-17.45
	C84.14,63.63,69.92,49.59,55.8,35.6c-7.05-7.15-13.41-14.81-21.34-20.88c-2.04-1.42-4.16-3.27-6.67-3.65
	c-3.43,0.67-4.57-4.47-1.11-5.27c10.59-0.99,27.17,21,35.01,28.08c15.8,15.58,31.56,31.41,44.41,49.57
	c3.53,4.91,7.02,9.87,10.48,14.83c0.76,0.85,1.38,2.03,1.38,3.14C117.96,101.7,117.93,101.94,117.86,102.19z"/>
<path d="M31.91,10.45c-0.5,1.38-2.07,2.12-3.45,1.61c-2.19-0.87-3.9,1.22-4.29,3.21c-1,2.82-2.04,5.7-2.84,8.55
	C13.76,46.65,10.19,70.45,8.84,94.36c-1.57,21.86-2.8,43.62-0.71,65.4c1.57,13.19,4.34,25.8,9.05,38.08
	c-0.04,0.08-0.06,0.17-0.06,0.27c0,0.03,0.01,0.07,0.01,0.11c0.01,0.06,0.02,0.12,0.04,0.17c0.01,0.01,0.01,0.02,0.02,0.02v0.01
	c0,0.01,0.01,0.01,0.01,0.02c0,0,0,0,0,0.01c0,0,0,0,0.01,0c0.05,0.16,0.09,0.32,0.18,0.47c0.07,0.12,0.19,0.19,0.32,0.2
	c0.6,1.43,1.23,2.85,1.98,4.2c0.62,0.72,0.83,1.74,0.5,2.67c-0.07,0.14-0.14,0.29-0.2,0.43c-0.7,1.21-2.3,1.72-3.56,1.06
	c-1.25-0.66-1.81-2.19-2.41-3.38c-1.8-3.79-3.17-7.79-4.45-11.78C-1.39,159.14,1.38,123.7,3.79,89.43
	c1.45-21.09,4.47-42.62,11.08-62.68c1.92-5.8,2.94-12.24,6.33-17.37C23.25,6.18,32,4.86,32,9.55C32,9.83,31.97,10.12,31.91,10.45z"
	/>
<path d="M118.06,102.08c-0.18,0.08-0.35,0.18-0.53,0.26c-0.48,0.19-0.96,0.36-1.43,0.58c-0.56,0.25-1.12,0.49-1.68,0.76
	c-0.15,0.08-0.29,0.15-0.43,0.22c-0.4-0.46-0.65-1.04-0.65-1.67c0-1.48,1.12-2.74,2.62-2.77c1.34-0.03,2.6,1,2.75,2.34
	C118.5,101.9,118.28,101.98,118.06,102.08z"/>
<path d="M119.18,101.64c-0.08,0.03-0.15,0.06-0.22,0.08c-0.3,0.11-0.6,0.22-0.9,0.36c-0.16,0.08-0.32,0.16-0.49,0.25
	c-0.49,0.19-0.99,0.37-1.47,0.59c-0.56,0.26-1.13,0.5-1.68,0.77c-0.26,0.13-0.53,0.26-0.77,0.42c-0.2,0.12-0.4,0.24-0.59,0.37h0.01
	c-0.21,0.13-0.42,0.27-0.63,0.42c-0.41,0.26-0.83,0.5-1.24,0.76c-0.39,0.26-0.78,0.51-1.16,0.76c-0.37,0.25-0.75,0.47-1.11,0.71
	c-0.42,0.26-0.81,0.54-1.21,0.82c-0.83,0.57-1.67,1.14-2.5,1.74c-0.78,0.55-1.55,1.11-2.29,1.72c0.01-0.01,0.02-0.02,0.02-0.02
	c-0.26,0.22-0.53,0.44-0.8,0.66c-0.45,0.28-0.9,0.56-1.34,0.85c-0.53,0.35-1.06,0.7-1.59,1.06c-0.19,0.12-0.36,0.23-0.55,0.35
	c-0.55,0.36-1.1,0.73-1.63,1.1c-0.22,0.15-0.44,0.3-0.66,0.46c-0.12,0.09-0.26,0.16-0.38,0.28c-0.1,0.09-0.2,0.19-0.3,0.29
	c-0.23,0.18-0.46,0.35-0.7,0.53c-0.2,0.15-0.42,0.31-0.62,0.48c-0.36,0.29-0.7,0.59-1.05,0.88c-0.08,0.07-0.16,0.15-0.25,0.22
	c-13.15,9-25.48,19.29-36.04,31.14c-7.97,10.18-15.95,20.61-22.71,31.48c-3.65,5.83-7.02,11.81-10.13,17.95
	c-0.32,0.45-0.63,0.9-0.94,1.34c-0.41,0.56-0.83,1.11-1.14,1.72c-0.32,0.6-0.61,1.22-0.89,1.84c0.01-0.02,0.02-0.03,0.02-0.05
	c-0.13,0.29-0.28,0.59-0.43,0.87c-0.02,0.02-0.02,0.05-0.03,0.07c-0.01,0-0.01,0-0.02,0.01c-0.09,0.12-0.18,0.27-0.25,0.42
	c-0.07,0.12-0.13,0.26-0.19,0.39c-0.03,0.04-0.05,0.08-0.07,0.12c-0.11,0.22-0.21,0.43-0.3,0.65c-0.03,0.04-0.05,0.09-0.08,0.12
	c-0.65,0.39-1.47,0.46-2.52-0.05c-1.28-0.7-1.75-2.4-1.04-3.67c0.69-1.42,1.38-2.84,2.08-4.26c0.08-0.03,0.15-0.09,0.19-0.15
	c0.08-0.12,0.15-0.25,0.16-0.39c0.02-0.05,0.05-0.12,0.07-0.19c0.08-0.15,0.18-0.29,0.26-0.44c0.13-0.2,0.27-0.4,0.38-0.62
	c0.05-0.09,0.08-0.18,0.08-0.29c0-0.05-0.02-0.1-0.03-0.15c0.06-0.13,0.13-0.26,0.19-0.39c0.05-0.1,0.1-0.19,0.15-0.29
	c0.13-0.23,0.26-0.47,0.39-0.71c0.06-0.12,0.12-0.25,0.19-0.36c0.05-0.1,0.1-0.19,0.13-0.29c0.02-0.04,0.03-0.08,0.03-0.12
	c0.97-1.89,1.97-3.76,3.01-5.6c5.45-9.64,11.4-19.02,18.19-27.79c4.98-6.85,9.87-13.81,15.82-19.9
	c9.92-9.63,20.41-18.76,31.86-26.55c8.34-5.58,16.76-11.26,25.88-15.45c1.95-0.69,3.84,0.79,3.84,2.57
	C119.19,101.56,119.18,101.6,119.18,101.64z"/>
<path d="M22.89,200.03c-1.06,2.16-2.07,4.34-3.01,6.55c-0.02,0.02-0.04,0.05-0.05,0.08c-0.08,0.15-0.18,0.27-0.22,0.44
	c0,0.03,0,0.07,0,0.1c-5.43,12.83-8.85,26.54-9.02,40.53c0.16,3.28,0.63,6.45,1.17,9.62c-1.82,0.02-3.62,0.86-4.67,2.45
	c-0.1,0.15-0.19,0.31-0.28,0.46c-0.67-3.77-1.32-7.54-1.57-11.36c-0.24-5.73,0.68-11.44,1.44-17.11
	c1.8-11.37,5.79-22.45,10.77-32.81c0.14,0.13,0.36,0.15,0.53,0.05c0.15-0.09,0.22-0.25,0.21-0.41c0.15,0.01,0.3-0.06,0.39-0.19
	c0.08-0.12,0.15-0.25,0.16-0.39c0.02-0.06,0.05-0.12,0.07-0.19c0.08-0.15,0.18-0.29,0.27-0.44c0.12-0.21,0.26-0.41,0.37-0.63
	c0.02-0.05,0.05-0.09,0.06-0.15c1.58-0.45,3.52,0.63,3.52,2.5C23.03,199.43,22.99,199.72,22.89,200.03z"/>
<path d="M186.88,350.86c-0.68,3.89-5.53,1.9-8.25,2.14c-5.37-0.15-10.75-0.06-16.12-0.24c-34.41-0.23-69.07-8.31-98.64-26.23
	c-22.37-13.47-42.87-32.32-53.3-56.59c1.78,0.19,3.63-0.46,4.99-1.81c0.01-0.01,0.02-0.02,0.02-0.02c0.71,1.63,1.49,3.22,2.3,4.81
	c4.42,8.61,10.31,16.36,16.74,23.54c28.17,29.72,68.39,46.28,108.78,49.93c9.28,0.84,18.51,1.06,27.79,1.12
	c4.43,0,8.85,0.12,13.27,0.4c1.38,0.09,2.44,1.36,2.44,2.69C186.89,350.68,186.89,350.76,186.88,350.86z"/>
<path d="M345.65,294.35c-0.06,0.09-0.12,0.19-0.16,0.29c-0.04,0.09-0.06,0.19-0.09,0.29c-0.02,0.05-0.03,0.09-0.05,0.13
	c-0.01,0.01-0.01,0.01-0.01,0.01s0,0,0.01-0.01c-0.01,0.02-0.01,0.02-0.02,0.03c-0.09,0.2-0.22,0.39-0.33,0.58v-0.01
	c-0.38,0.63-0.73,1.29-1.1,1.92c-0.31,0.5-0.64,0.98-0.97,1.48c-0.12,0.19-0.23,0.37-0.35,0.56c-5.72,7.2-13.31,12.62-20.67,18.11
	c-13.44,10.85-29.26,18.07-45.36,24.04c-11.33,4.23-23.41,5.77-35.29,7.66c-13.68,2.27-27.48,3.89-41.34,4.06
	c-6.59,0.1-13.18-0.24-19.77-0.29c-2.76-0.39-7.66,1.16-8.27-2.63c0.05-4.33,5.37-2.51,8.14-2.77c6.72,0.06,13.58,0.39,20.24,0.31
	c13.31-0.2,26.1-1.7,38.93-3.79c10.28-1.61,20.26-2.98,30.24-5.8c13.02-4.34,25.7-9.8,37.52-16.75c8.07-5.29,16.16-11.63,23.6-17.52
	c4.13-3.23,7.46-7.29,10.39-11.61c1.58-2.4,4.98-0.92,5.01,1.4C345.84,294.11,345.74,294.21,345.65,294.35z"/>
<path d="M356.6,250.38c-0.48,11.34-2.41,22.62-6.38,33.29c-1.25,3.42-2.52,6.84-4.06,10.14c-0.02,0.02-0.05,0.02-0.06,0.05
	c-0.05,0.03-0.08,0.08-0.12,0.13c-0.01,0-0.02,0.02-0.03,0.02c-0.12,0.11-0.21,0.22-0.31,0.35c-0.06,0.09-0.12,0.19-0.16,0.29
	c-0.04,0.08-0.06,0.19-0.09,0.29c0-0.01,0-0.02,0-0.02c-0.02,0.06-0.04,0.12-0.06,0.18c-0.08,0.19-0.19,0.37-0.31,0.55
	c-0.01,0.01-0.02,0.02-0.02,0.03c0,0,0,0,0.01,0c-0.39,0.63-0.73,1.28-1.1,1.92c-0.31,0.5-0.64,0.99-0.97,1.48
	c-0.01,0.02-0.02,0.02-0.02,0.04c-0.81,0.43-1.84,0.45-2.67-0.05c-2.54-1.61-0.72-4.14,0.34-6.06c0.97-1.94,1.78-3.94,2.59-5.96
	c4.35-10.52,7.12-21.69,7.81-33.07c0.76-8.69,0.35-17.59-1.47-26.1c-0.01-0.18-0.02-0.36-0.05-0.54c-0.01-0.09-0.02-0.18-0.03-0.26
	c-0.02-0.09-0.05-0.17-0.09-0.24c-0.02-0.06-0.05-0.13-0.09-0.19c0-0.01-0.01-0.01-0.02-0.02c-0.26-1.11-0.54-2.23-0.85-3.34
	c-0.02-2.81,4.03-3.6,5.25-1.16c0.48,1.74,0.91,3.5,1.27,5.27c0.02,0.39,0.02,0.78,0.1,1.17c0.04,0.21,0.08,0.41,0.15,0.62
	c0.05,0.13,0.1,0.26,0.15,0.38c-0.01,0.08,0,0.15,0.02,0.22c0.03,0.15,0.08,0.28,0.12,0.42c0.02,0.09,0.04,0.17,0.05,0.25
	c0.84,4.9,1.25,9.88,1.25,14.85C356.74,246.98,356.7,248.68,356.6,250.38z"/>
<path d="M276.59,119.66c-0.31,0.36-0.72,0.63-1.16,0.79c-0.05-0.04-0.09-0.07-0.14-0.1c-0.27-0.19-0.54-0.38-0.83-0.56
	c-1.07-0.66-2.17-1.26-3.28-1.83c-1.17-0.61-2.32-1.28-3.46-1.96c-0.01-0.01-0.02-0.01-0.02-0.02c0.01,0,0.01,0.01,0.02,0.01
	c-1.07-0.66-2.14-1.35-3.23-2c-0.55-0.33-1.1-0.66-1.65-0.98c-0.57-0.32-1.14-0.65-1.73-0.97c-0.56-0.32-1.14-0.63-1.71-0.94
	c-0.14-0.09-0.28-0.15-0.42-0.23c-1.04-0.63-2.07-1.27-3.11-1.9c-35.75-18.9-78.59-21.18-117.76-13.63
	c-6.32,1.27-12.59,3.01-18.32,6.02c-0.32,0.11-0.66,0.26-1,0.44c-0.25,0.09-0.49,0.19-0.73,0.29c-0.18,0.08-0.35,0.18-0.53,0.27
	c-0.48,0.19-0.96,0.36-1.43,0.57c-0.56,0.25-1.12,0.5-1.68,0.76c-0.02,0.02-0.05,0.03-0.08,0.05c-0.68-0.02-1.33-0.34-1.93-1.11
	c-1.92-3.08,2.03-4.75,4.32-5.78c2.4-1.19,4.82-2.36,7.33-3.29c37.45-11.46,85.04-10.4,122.15,4.89c0.57,0.28,1.16,0.54,1.75,0.78
	c0.06,0.02,0.12,0.05,0.17,0.08c0.12,0.05,0.24,0.12,0.38,0.13c0.02,0,0.02,0,0.04,0c0.01,0,0.02,0.01,0.02,0.01
	c0.16,0.09,0.33,0.17,0.49,0.25c0,0,0,0-0.01-0.01c0.41,0.22,0.81,0.44,1.21,0.67c0.24,0.13,0.48,0.26,0.71,0.4
	c0.08,0.05,0.15,0.09,0.24,0.13c0.03,0.02,0.06,0.04,0.09,0.05c0.23,0.13,0.46,0.26,0.7,0.39c0.43,0.23,0.87,0.46,1.3,0.66
	c0.48,0.24,0.96,0.48,1.44,0.7s0.97,0.45,1.44,0.66c-0.02-0.01-0.03-0.02-0.05-0.02c0.53,0.22,1.07,0.44,1.61,0.66
	c0.84,0.46,1.68,0.93,2.5,1.41c0.73,0.43,1.43,0.88,2.16,1.29c0.24,0.13,0.48,0.26,0.73,0.39c2.98,1.86,5.92,3.81,8.89,5.69
	c1.76,1.27,5.17,2.9,5.17,5.18C277.21,118.49,277.02,119.05,276.59,119.66z"/>
<path d="M249.02,99.66c0.01,0.01,0.03,0.01,0.05,0.02C249.05,99.68,249.04,99.67,249.02,99.66z"/>
<path d="M356.93,30.88c-0.72,0.52-1.44,1.04-2.18,1.55c-0.09,0.02-0.17,0.05-0.25,0.08c-0.12,0.06-0.25,0.14-0.37,0.2
	c-0.13,0.08-0.27,0.15-0.39,0.24c-0.15,0.11-0.3,0.21-0.43,0.32c-0.1,0.09-0.19,0.2-0.23,0.34c-3.31,2.33-6.64,4.68-9.8,7.24
	c-9.3,7.67-17.29,16.73-25.65,25.38c-10.99,12.47-22.56,24.42-33.25,37.15c-3.31,4.09-6.54,8.23-9.84,12.33
	c-0.69,1.04-1.69,2.17-2.82,2.52c-0.19-0.09-0.36-0.19-0.53-0.27c-0.88-0.46-1.75-0.95-2.6-1.45c-0.29-0.87-0.15-1.85,0.45-2.58
	c0.62-0.8,1.24-1.58,1.85-2.37c0.08-0.02,0.15-0.04,0.22-0.08c0.05-0.04,0.1-0.09,0.15-0.12c0.09-0.07,0.19-0.11,0.29-0.18
	c0.1-0.09,0.18-0.19,0.27-0.28c0.11-0.12,0.24-0.24,0.25-0.42c0-0.01,0-0.02,0-0.02c0-0.1-0.02-0.2-0.08-0.28
	c9-11.37,18.51-22.29,28.43-32.89c9.32-10.42,18.74-20.75,28.6-30.67c7.59-7.55,15.96-14.61,25.15-20.05
	c1.81-0.52,3.39,1.06,3.39,2.7C357.54,29.82,357.35,30.39,356.93,30.88z"/>
<path d="M367.71,84.97c0-0.05,0-0.09,0-0.13c0,0.11,0.01,0.22,0.01,0.33C367.71,85.1,367.71,85.03,367.71,84.97z"/>
<path d="M373.22,75.15c-1.56,21.35-3.55,45.01-5.82,66.25c-0.45,1.62-1.7,2.23-2.87,2.09c0.23-1.55,0.45-3.09,0.65-4.64
	c0.48-3.92,0.88-7.85,1.23-11.79c0.3-3.39,0.56-6.8,0.59-10.19c0.01-1.75,0.02-3.51-0.02-5.25c0.56-4.96,0.94-9.93,1.27-14.9
	c0.15-2.44,0.19-4.89,0.27-7.33c0.13-3.56,0.26-7.13-0.01-10.69c0.27-1.95,0.52-3.93,0.59-5.9c0.03-1,0.06-2,0.06-3.01
	c0-2.23-0.15-4.48-0.79-6.61c-0.15-0.52-0.33-1-0.55-1.45c-0.69-11.09-3.35-21.31-10.18-28.22c0.03-0.06,0.05-0.14,0.05-0.21
	c0-0.12-0.05-0.24-0.14-0.32c-0.1-0.08-0.2-0.12-0.3-0.14c-0.06-0.15-0.18-0.27-0.3-0.36c-0.12-0.08-0.25-0.15-0.39-0.16
	c-0.28-0.04-0.56-0.02-0.83,0c-0.26,0.02-0.53,0.05-0.79,0.09c-0.15,0.02-0.3,0.05-0.43,0.12c-0.12,0.05-0.25,0.13-0.36,0.19
	c-0.08,0.05-0.15,0.08-0.23,0.13c-1.17-0.63-1.92-2.09-1.38-3.58c0.84-2.23,3.66-2.69,5.67-1.89c5.69,2.47,8.59,8.75,10.84,14.2
	c3.31,8.48,4.36,17.62,4.36,26.71C373.4,70.58,373.33,72.87,373.22,75.15z"/>
<path d="M370.94,133.13c-0.82,9.65-2.38,19.32-3.46,28.9c-0.59,5.34-0.77,10.72-1.72,16.01c-2.14,14.06-5.7,27.8-9.5,41.48
	c-0.53,2.25-0.96,4.52-1.33,6.79c-0.05,0.09-0.08,0.19-0.08,0.29c0,0.05,0.01,0.1,0.01,0.15c0,0.03-0.01,0.08-0.02,0.12
	c-0.19,1.14-0.58,2.15-1.62,2.77c-1.38,0.79-2.92,0.08-3.64-1.1c-0.01-0.04-0.02-0.09-0.03-0.12c-0.02-0.12-0.03-0.24-0.05-0.36
	c0.01-0.04,0.02-0.07,0.02-0.11c-0.01-0.2-0.03-0.4-0.05-0.6c-0.01-0.09-0.02-0.18-0.03-0.26c-0.02-0.09-0.04-0.18-0.09-0.24
	c-0.02-0.07-0.05-0.13-0.1-0.19c-0.01-0.02-0.02-0.03-0.03-0.04c0.05-0.27,0.16-0.54,0.33-0.8c0.7-4.81,1.9-9.5,3.22-14.18
	c5.17-17.29,8.11-35.06,9.74-53c0.27-1.92,0.49-3.84,0.71-5.76c0.32-2.26,0.62-4.52,0.9-6.78c0.37-2.4,0.74-4.81,1.04-7.22
	c0.48-3.92,0.88-7.85,1.23-11.79c0.3-3.38,0.56-6.8,0.59-10.19c0.02-1.5,0.02-3-0.01-4.49c0.02-0.53,0.05-1.05,0.08-1.58
	c0.51-4.68,0.87-9.39,1.17-14.09c0.15-2.43,0.19-4.89,0.27-7.32c0.13-3.57,0.26-7.13-0.01-10.69c0.27-1.96,0.52-3.94,0.58-5.91
	c0.04-0.99,0.07-2,0.07-3.01c0-2.23-0.15-4.47-0.79-6.6c-0.28-0.96-0.65-1.78-1.17-2.57c-0.09-1.14-0.21-2.29-0.32-3.44
	c-0.02-0.29-0.02-0.59-0.07-0.9c-0.03-0.23-0.07-0.46-0.12-0.7c-0.26-2.2-0.56-4.41-0.9-6.63c-0.6-4.73-2.53-9.14-5.25-12.97
	c-1.99-2.84,2.24-6.03,4.38-3.14c1.65,2.24,2.93,4.73,4.03,7.29c4.53,13.03,4.04,27.52,4.16,41.17
	C372.97,98.58,372.78,115.91,370.94,133.13z"/>
<path d="M372.55,89.84c-1.23,17.4-2.87,34.79-4.07,52.19c-0.82,11.53-1.06,23.12-2.85,34.55c-2.19,15.24-5.81,30.25-11.08,44.71
	c-0.48,1.39-1.96,2.22-3.38,1.76c-1.38-0.43-2.24-1.99-1.76-3.38c1.07-3.12,2.12-6.26,3.15-9.39c4.28-13.22,6.78-26.93,8.58-40.68
	c1.27-11.54,1.42-23.14,2.46-34.7c1.05-16.73,3.07-33.39,3.76-50.15c0.13-7.47,0.29-14.56-0.32-21.73c0-0.08,0-0.17-0.01-0.26
	c0,0.02,0,0.05,0,0.06c-0.02-0.48-0.03-0.97-0.04-1.45c-0.02-0.46-0.05-0.93-0.08-1.41c-0.02-0.25-0.02-0.52-0.02-0.78
	c0.01-0.15,0.01-0.29,0.01-0.44c-0.01-0.39-0.02-0.76-0.04-1.15c-0.02-0.43-0.02-0.88-0.07-1.32c-0.03-0.17-0.05-0.34-0.08-0.51
	c1.19-2.04,4.84-1.69,5.03,1.24c0.88,5.96,1.14,11.98,1.14,18.01C372.89,79.95,372.71,84.91,372.55,89.84z"/>
<path d="M270.74,110.6c-0.09-0.06-0.19-0.12-0.28-0.19c-0.04-0.02-0.06-0.03-0.08-0.05c0.14,0.06,0.29,0.13,0.43,0.19
	C270.79,110.57,270.76,110.58,270.74,110.6z"/>
<path d="M350.86,231c-0.45-1.04-0.9-2.07-1.34-3.11c-0.01-0.19-0.03-0.38-0.05-0.56c-0.01-0.09-0.02-0.19-0.03-0.26
	c-0.02-0.08-0.04-0.17-0.09-0.25c-0.02-0.06-0.05-0.12-0.1-0.19c-0.09-0.1-0.21-0.15-0.34-0.15c-0.96-2.26-1.89-4.54-2.77-6.85
	c-3.17-8.27-6.57-16.46-10.82-24.24c-9.36-17.83-20.36-34.31-33.8-49.13c-7.97-8.9-16.33-17.45-25.44-25.13
	c-0.24-0.27-0.49-0.56-0.79-0.78c-0.26-0.19-0.53-0.36-0.79-0.53c-2.87-2.36-5.8-4.62-8.82-6.78c-1.61-1.39-0.94-3.49,0.45-4.36
	c0.32,0.22,0.64,0.43,0.96,0.65c0.4,0.27,0.82,0.53,1.23,0.79c0.37,0.24,0.73,0.49,1.1,0.72c0.25,0.16,0.5,0.31,0.75,0.47
	c0.15,0.09,0.32,0.22,0.51,0.25c0.15,0.02,0.29,0,0.42-0.09c0.05-0.03,0.1-0.08,0.15-0.12c0.1-0.07,0.2-0.12,0.29-0.19
	c0.1-0.08,0.18-0.17,0.26-0.26c21.63,16.5,40.09,37.16,55.3,59.66c9.1,14.43,17.47,29.43,23.43,45.46c1.39,3.61,2.78,7.19,4.33,10.7
	c0,0.02,0,0.02,0,0.03c0.02,0.13,0.04,0.26,0.05,0.39h-0.01c0.03,0.47,0.02,0.94,0.11,1.41c0.04,0.21,0.08,0.42,0.15,0.62
	c0.05,0.13,0.09,0.26,0.15,0.39c-0.01,0.07,0,0.14,0.02,0.21c0.03,0.15,0.08,0.29,0.12,0.42c0.05,0.19,0.08,0.38,0.14,0.56
	c-0.01-0.02-0.01-0.03-0.02-0.04c0.13,0.44,0.18,0.91,0.27,1.37C354.62,233.94,351.26,233.69,350.86,231z"/>
<path d="M277.37,119.55c-0.64,0.57-1.51,0.77-2.32,0.62c-0.19-0.13-0.39-0.25-0.59-0.39c-0.73-0.46-1.47-0.87-2.23-1.28
	c-1.53-1.03-3.08-2.06-4.65-3.04c-7.8-4.83-15.4-8.79-23.37-13.1c-1.3-0.7-1.93-2.23-1.27-3.6c0.26-0.54,0.72-0.98,1.25-1.24
	c0.39,0.15,0.76,0.31,1.15,0.46c0.85,0.49,1.74,0.88,2.64,1.25c0.05,0.03,0.11,0.05,0.16,0.08c0.12,0.05,0.24,0.12,0.39,0.12
	c0.01,0.01,0.02,0.01,0.04,0c0.17,0.09,0.34,0.18,0.51,0.26c-0.02-0.01-0.04-0.02-0.05-0.03c0.42,0.22,0.84,0.46,1.26,0.7
	c0.23,0.14,0.47,0.27,0.71,0.41c0.08,0.04,0.15,0.08,0.23,0.13c0.03,0.02,0.06,0.03,0.09,0.05c0.23,0.12,0.46,0.25,0.7,0.38
	c0.42,0.23,0.86,0.45,1.3,0.66c0.47,0.23,0.95,0.47,1.43,0.7c0.48,0.23,0.97,0.45,1.45,0.66c-0.02-0.02-0.04-0.02-0.05-0.03
	c0.53,0.23,1.07,0.45,1.6,0.66c0.84,0.46,1.68,0.93,2.51,1.41c0.72,0.43,1.43,0.88,2.16,1.28c0.35,0.19,0.7,0.38,1.05,0.55
	c0.31,0.15,0.63,0.28,0.94,0.42c-0.02-0.02-0.04-0.02-0.05-0.03c0.07,0.03,0.14,0.07,0.21,0.1c0.04,0.02,0.08,0.05,0.13,0.07
	c0,0.01,0.01,0.01,0.01,0.01c0.01,0,0.01,0,0.01,0c-0.01,0-0.01,0-0.01,0s0,0,0.01,0c0,0.01,0.01,0.01,0.01,0.01
	c0.42,0.23,0.84,0.49,1.25,0.75c0.38,0.25,0.75,0.51,1.12,0.76c0.41,0.27,0.83,0.53,1.23,0.79c0.37,0.23,0.73,0.48,1.1,0.72
	c0.25,0.16,0.51,0.31,0.76,0.46c0.15,0.1,0.32,0.23,0.5,0.26c0.15,0.02,0.29,0,0.42-0.09c0.03-0.02,0.07-0.05,0.1-0.08
	c1.31,0.83,2.62,1.69,3.91,2.57c1.51,0.78,3.19,2.12,3.19,3.67C278.3,118.25,278.03,118.9,277.37,119.55z"/>
<path d="M150.56,213.84c-3.04-0.05-2.83-2.7-3.01-4.87c-1.41-11.46-9.65-21.39-19.14-27.33c-15.02-9.43-31.79-0.22-42.52,11.37
	c-2.84,4.16-5.69,8.32-8.12,12.73c-0.37,2.11-3.39,2.93-4.77,1.25c-1.97-2.52,1.17-5.2,2.14-7.51c2.29-3.45,4.4-7.03,6.92-10.31
	c16.65-17.42,37.99-24.29,57.13-6.11c4.95,4.93,9.35,10.82,11.88,17.35c0.52,1.8,2.05,6.26,2.05,9.55
	C153.13,212.08,152.5,213.7,150.56,213.84z"/>
<path d="M287.89,216.9c-2.37,1.15-3.67-0.98-4.53-2.69c-2.45-3.89-5.71-7.09-8.9-10.36c-12.32-8.78-30.35-12.28-44.03-4.67
	c-7.66,4.73-12,13.43-17.04,20.34c-1.07,1.91-4.13,1.59-4.83-0.49c-0.63-1.89,0.76-2.98,1.56-4.4c2.52-3.17,4.33-6.22,6.57-9.5
	c6.32-9.42,16.91-15.25,28.26-15.45c15.34-0.49,31.3,5.4,40.46,18.11c1.13,1.77,3.88,4.51,3.88,6.8
	C289.28,215.45,288.9,216.25,287.89,216.9z"/>
<path d="M191.75,272.41c-0.12,0.78-0.4,1.55-0.66,2.3c-0.4,1.21-0.9,2.41-1.45,3.56c-0.58,1.2-1.34,2.29-2.09,3.39
	c-1.55,2.29-3.48,4.57-5.96,5.88c-1.4,0.73-2.91,1.16-4.5,0.99c-1.59-0.18-2.93-0.91-4.03-2.05c-0.39-0.4-0.7-0.87-1.05-1.31
	c-0.46-0.58-0.91-1.16-1.34-1.75c-0.83-1.13-1.54-2.31-2.23-3.52c-0.61-1.05-1.28-2.06-1.92-3.09c-0.81-1.31-1.58-2.67-2.29-4.03
	c-0.66-1.26-1.54-2.84-1-4.29c0.4-1.14,1.54-1.84,2.7-1.78c0.21-0.11,0.44-0.19,0.67-0.25c0.7-0.17,1.3-0.02,1.93,0.15
	c0.02,0.01,0.05,0.02,0.08,0.02c0.08,0.01,0.15,0.01,0.23,0.02c0.62,0,1.24-0.03,1.86-0.06c1.21-0.05,2.41,0.05,3.62,0.09
	c1.14-0.01,2.28-0.17,3.42-0.22c1.28-0.05,2.57-0.04,3.79-0.02c1.47,0.02,2.94,0.06,4.38,0.37c1.19,0.25,2.35,0.66,3.46,1.17
	c0.88,0.4,1.68,1.05,2.1,1.93c0.25,0.53,0.35,1.08,0.35,1.64C191.82,271.84,191.79,272.13,191.75,272.41z M173.57,278.03
	c0.53,0.93,1.14,1.81,1.78,2.67c0.57,0.76,1.14,1.55,1.78,2.24c0.02,0.02,0.05,0.05,0.08,0.07c0.03,0.02,0.05,0.04,0.08,0.05
	c0.02,0.01,0.02,0.02,0.03,0.02c0.04,0.02,0.08,0.03,0.12,0.05c0.08,0.02,0.15,0.04,0.23,0.05c0.05,0,0.11,0.01,0.15,0.01
	c0.07,0,0.14-0.01,0.2-0.01c0.08-0.02,0.16-0.03,0.25-0.05c0.12-0.05,0.24-0.08,0.36-0.13c0.16-0.08,0.32-0.15,0.49-0.24
	c0.26-0.16,0.53-0.34,0.79-0.52c0.29-0.24,0.57-0.49,0.86-0.75c0.48-0.49,0.93-0.99,1.37-1.52c0.8-1.04,1.53-2.13,2.22-3.24
	c0.29-0.5,0.54-1.02,0.78-1.54c0.38-0.89,0.73-1.78,1.02-2.7c-0.25-0.08-0.49-0.17-0.74-0.24c-0.38-0.11-0.76-0.19-1.15-0.25
	c-0.82-0.1-1.63-0.15-2.39-0.16c-0.57-0.01-1.15-0.02-1.36-0.02c-1.48-0.02-2.97,0.05-4.44,0.18c-1.38,0.13-2.75,0.02-4.13-0.02
	c-0.65,0-1.31,0.05-1.97,0.08C171.18,274.12,172.49,276.11,173.57,278.03z"/>
<path d="M187.08,274.6c-0.65,3.44-3.18,6.91-6.47,8.21c-0.66,2.09-3.74,2.77-5.03,0.94c-1.95-0.75-3.48-3.12-2.33-5.11
	c-0.26-0.27-0.5-0.58-0.71-0.91c-4.05,0.02-6.24-6.93-1.75-8.04c1.34-0.39,2.93-0.18,3.66,1.08c0.85,0.05,1.66,0.43,2.16,1.1
	c0.36-0.27,0.76-0.48,1.18-0.62c0.35-0.12,0.73-0.18,1.12-0.19c0.32-0.33,0.71-0.59,1.17-0.74c0.53-0.18,1.07-0.22,1.6-0.13
	c2.91-1.6,5.52,0.4,5.52,3.28C187.21,273.83,187.17,274.21,187.08,274.6z"/>
<path d="M184.03,272.47c-1.78,0.35-4.16,1-5.15-1.05c-0.56-0.08-1.13-0.17-1.7-0.21c-2.59-0.09-5.18,0.08-7.76,0.05
	c1.03,3.21-3.56,5.04-5.02,1.97c-0.37-1.23-1.39-1.99-1.68-3.25c-0.73-2.27,1.58-4.09,3.66-4.18c4.16,0.57,19.58-1.83,19.7,3.9
	c0,0.01,0,0.02,0,0.03C186.09,270.99,185.23,272.12,184.03,272.47z"/>
<path d="M191.83,276.37c-1.58,2.18-5.18,6.2-7.72,3.17c-0.86-1.18-0.58-2.91,0.62-3.76c1.53-0.9,2.61-2.26,3.62-3.7
	c-0.42-0.22-0.84-0.4-1.27-0.58c-0.39-0.15-0.8-0.28-1.21-0.39c-1.31,0.63-2.89,0.03-4.3,0.2c-2.42,0.14-4.82,0.53-7.24,0.66
	c-1.32,0.09-2.65,0.04-3.96,0.18c-1.11,0.5-2.6,0.12-3.28-0.95c-3.42,1.84-5.94-2.81-2.75-4.87c5.47-2.81,29.74-2.98,29.75,5.2
	C194.08,272.9,193.4,274.51,191.83,276.37z"/>
<path d="M191.74,276.4c-2.57,3-5.35,6.31-9.05,7.93c-1.97,0.73-4.5-0.41-4.76-2.61c-0.33-1.99,1.83-3.72,3.69-2.88
	c1.74-1.27,3.3-2.8,4.76-4.38c1.06-1.61,2.94-3.29,4.85-1.83c0.68,0.52,1.05,1.36,1.05,2.19
	C192.28,275.37,192.11,275.94,191.74,276.4z"/>
<path d="M192.09,276.22c-1.24,3.13-3.45,5.65-5.92,7.87c-1.97,1.6-4.84,5.38-7.32,2.54c-0.92-1.17-0.69-2.87,0.46-3.79
	c3.38-2.76,6.66-5.43,8.19-9.55c-0.08-2.36,1.35-3.36,2.78-3.28c1.39,0.09,2.79,1.21,2.79,3.13
	C193.08,274.02,192.79,275.05,192.09,276.22z"/>
<path d="M194.55,272.44c-1.27,6.05-6.18,10.78-10.92,14.22c-1.34,0.84-2.6,2.3-4.32,2.12c-2.69-0.28-3.21-4.2-0.7-5.17
	c4.23-2.86,8.54-6.34,10.42-11.23c-2.07-0.44-5.19-1.31-4.5-4.06c0.36-1.36,1.9-2.38,3.3-1.92c3.05,1,6.84,1.17,6.84,4.81
	C194.67,271.59,194.63,272,194.55,272.44z"/>
<path d="M181.06,286.43c-0.22,8.22-6.87,14.71-14.14,17.62c-5.29,2.06-11.06,0.8-16.41-0.31c-2.37-0.6-6.69-1.31-5.62-4.7
	c1.19-2.68,3.48-1.61,5.58-0.88c4.88,1.08,10.23,2.6,15.07,0.65c3.82-1.76,7.37-4.66,9.28-8.47c0.73-1.85,0.81-4.23,1.1-6.01
	c-0.53-2.43,2.71-4.2,4.49-2.43c0.7,0.66,0.91,1.5,0.91,2.36C181.32,284.98,181.17,285.73,181.06,286.43z"/>
<path d="M203.36,302.7c-0.12,1.47-1.45,2.58-2.91,2.46c-2.65-0.22-5.3-0.24-7.94-0.65c-5.45-0.66-10.98-2.48-14.81-6.61
	c-2-1.97-3.01-4.74-2.97-7.53c-0.11-2.64,0.87-6.88,4.37-5.35c1.69,0.93,1.44,2.49,1.19,4.09c-0.15,1-0.31,2.02,0.02,2.91
	c2.06,4.98,8.22,6.49,13.09,7.18c2.94,0.88,9.96-0.99,9.96,3.38C203.36,302.63,203.36,302.66,203.36,302.7z"/>
<path d="M15.32,275.33c-1.16,0.4-2.46-0.24-2.86-1.4c-2.65-6.11-5.26-12.28-6.63-18.83c-0.11-0.87-0.09-1.75,0.37-2.53
	c1.23-2.08,4.66-0.65,4.06,1.66c0.9,4.09,2.23,8.14,3.75,12.06c0.53,1.75,2.76,4.71,2.76,6.88
	C16.78,274.08,16.39,274.85,15.32,275.33z"/>
<path d="M16.04,271.66c-0.04,1.89-2.69,2.87-3.9,1.37c-2.72-4.58-4.99-9.77-5.51-15.14c-0.2-1.48-0.55-3.43,1.09-4.25
	c1.1-0.55,2.46-0.1,3.02,1c0.4,0.82,0.12,1.89,0.34,2.67c0.59,4.67,2.33,8.99,4.58,12.97c-0.02-0.03-0.03-0.05-0.05-0.08
	c-0.05-0.06-0.09-0.12-0.15-0.19c0.08,0.1,0.16,0.21,0.23,0.32c0.01,0.03,0.03,0.05,0.04,0.08c-0.01-0.02-0.02-0.03-0.02-0.05
	c0.21,0.35,0.34,0.74,0.34,1.17C16.04,271.57,16.04,271.62,16.04,271.66z"/>
<path d="M15.69,270.33c-0.01-0.02-0.02-0.04-0.03-0.05c0.02,0.03,0.03,0.05,0.05,0.08C15.7,270.35,15.69,270.34,15.69,270.33z"/>
<path d="M17.71,278.55c-1.41,0.52-2.68-0.5-3.07-1.82c-0.77-1.89-1.5-3.39-2.2-5.24c-2.06-4.97-4.35-9.94-5.25-15.21
	c0.01-0.43-0.07-0.87-0.15-1.31c-0.13-0.76-0.26-1.53,0.05-2.26c0.73-1.65,3.28-1.78,4.07-0.09c0.74,6,2.91,11.42,5.29,16.85
	c0,0,0,0,0,0c0.59,1.46,1.39,3.39,1.96,4.71c0.42,0.71,0.73,1.56,0.73,2.33C19.15,277.37,18.77,278.14,17.71,278.55z"/>
<path d="M16.46,269.47c0,0,0,0.01,0.01,0.01c0.01,0.02,0.02,0.03,0.02,0.04C16.47,269.5,16.47,269.49,16.46,269.47z"/>
<path d="M23.56,192.85c-0.39,0.73-0.81,1.45-1.21,2.18c0.12,0.17,0.08,0.4-0.05,0.56c-1.27,2.02-2.43,4.13-3.57,6.22
	c-0.23,0.65-1.18,0.39-0.93-0.29c0.21-0.3,0.4-0.62,0.57-0.95c-0.05-0.06-0.08-0.14-0.08-0.22c-0.25,0.34-0.45,1.04-0.99,0.79
	c-0.21-0.12-0.3-0.4-0.18-0.61c0.26-0.49,0.53-0.97,0.8-1.44c0.02-0.01,0.04-0.02,0.06-0.03c0.15-0.1,0.23-0.28,0.21-0.45
	c0.04-0.08,0.08-0.15,0.12-0.22c0.02-0.02,0.03-0.05,0.05-0.08c0-0.01,0.01-0.02,0.01-0.02c0.85-1.47,1.73-2.92,2.71-4.32
	c0.43-0.46,0.78-2.01,1.58-1.43c0.21-0.53,0.94-0.37,0.94,0.09C23.61,192.7,23.6,192.78,23.56,192.85z"/>
<path d="M18.76,200.52c-0.9-0.21-1.66-0.93-2.09-1.75c-0.64,0.1-1.41-1-0.58-1.27c-0.16-0.3-0.22-0.74,0.19-0.87
	c0.64-0.12,0.68,0.71,0.9,1.2c-0.05,0.08-0.06,0.17-0.06,0.26c0,0.04,0,0.08,0,0.12c0.01,0.07,0.02,0.13,0.05,0.19v0.01
	c0,0.01,0.01,0.01,0.01,0.02v0.01c0.05,0.16,0.09,0.32,0.19,0.47c0.12,0.21,0.41,0.27,0.61,0.14c0.03-0.02,0.05-0.04,0.08-0.05
	c0.33,0.26,1.15,0.74,1.15,1.14C19.22,200.29,19.09,200.42,18.76,200.52z"/>
<path d="M19.51,198.51c-0.05,0.14-0.17,0.23-0.3,0.27c-0.12,0.15-0.28,0.21-0.38,0.33c0,0,0,0,0,0c-0.49,0.7-1.58,0.86-1.96-0.05
	c-0.08-0.26-0.15-0.46-0.29-0.67c-0.15-0.45-0.49-0.79-0.62-1.24c-0.31-0.49,0.46-0.97,0.76-0.47c0.17,0.47,0.49,0.85,0.66,1.32
	c0.2,0.22,0.23,0.7,0.43,0.82c0-0.01,0-0.01,0,0c0.4-0.29,0.64-0.66,1.07-0.89c0.31-0.11,0.66,0.12,0.66,0.43
	C19.54,198.4,19.53,198.45,19.51,198.51z M18.84,199.09c0.01-0.01,0.02-0.02,0.02-0.02C18.85,199.07,18.85,199.08,18.84,199.09
	C18.84,199.09,18.84,199.09,18.84,199.09z"/>
<path d="M370.72,53.36c-0.25,0.03-0.46-0.15-0.5-0.39c-0.88-5.34-1.6-10.82-4.14-15.68c-0.36,0.29-1-0.02-0.79-0.5
	c-1.77-4.71-6.28-8.67-11.45-8.62c-0.49,0.18-1.02-0.37-0.59-0.81c2.29-2.01,5.3-0.36,7.3,1.25c2.33,1.58,5.03,3.72,5.42,6.64
	c3.28,5.32,4.16,11.57,5.15,17.62c0,0.02,0.01,0.05,0.01,0.07C371.12,53.14,370.94,53.33,370.72,53.36z M356.62,27.61
	c0.34,0.09,0.68,0.2,1.02,0.32c0.24,0.08,0.47,0.16,0.7,0.25c-0.93-0.49-1.92-1.05-2.97-0.83
	C355.79,27.41,356.21,27.49,356.62,27.61z"/>
<path d="M350.75,229.96c-0.52,0.27-0.72-0.34-0.83-0.73c-0.36-1.2-0.96-2.28-1.14-3.49c-0.25-0.78-0.49-1.56-0.73-2.36
	c-0.07-0.23,0.08-0.49,0.31-0.55c0.72-0.12,0.64,0.9,0.87,1.35c0.49-0.15,0.88,0.24,1.17,0.57c0.17,0.08,0.28,0.27,0.26,0.46
	c-0.04,0.36-0.49,0.5-0.76,0.29c0.1,0.73,0.83,1.53,0.5,2.23c0.05,0.52,0.54,1.18,0.54,1.73
	C350.95,229.64,350.9,229.81,350.75,229.96z"/>
<path d="M346.37,293.34c-0.96,2.13-2.33,4.06-3.95,5.75c-0.26,0.23-0.47,0.66-0.86,0.66c-0.46-0.05-0.56-0.65-0.19-0.87
	c1.07-1.09,2.03-2.23,2.82-3.5c-0.18-0.61,0.49-1.19,0.59-1.75c-0.11-0.41,0.36-0.7,0.67-0.5c0.19-0.49,0.92-0.38,0.92,0.12
	C346.37,293.28,346.37,293.31,346.37,293.34z"/>
</svg>
