<?xml version="1.0" encoding="utf-8"?>
<!-- Generator: Adobe Adobe Illustrator 24.2.0, SVG Export Plug-In . SVG Version: 6.00 Build 0)  -->
<svg version="1.1" id="Vectorlaag_1_" xmlns="http://www.w3.org/2000/svg" xmlns:xlink="http://www.w3.org/1999/xlink" x="0px"
	 y="0px" width="375px" height="375px" viewBox="0 0 375 375" style="enable-background:new 0 0 375 375;" xml:space="preserve">
<style type="text/css">
	.st0{fill:#252525;}
	.st1{fill:#535353;}
	.st2{fill:#3F3F3F;}
	.st3{fill:#2A2A2A;}
	.st4{fill:#646464;}
</style>
<path class="st0" d="M178.51,207.7c-6.47,4.96-11-3.34-13.82-8.18c-9.01,9-12.02,22.32-19.14,32.42c-5.41,4.56-12.97-2.19-9.65-8.26
	c-0.36-0.9-0.52-1.89-0.4-2.89c0.15-1.22,0.36-2.42,0.62-3.61c-15.73-0.4-3.6-21.65-1.74-29.98c2.88-6.59,4.33-17.64,13.31-17.91
	c2.62-4.87,6.53-13.69,13.39-10.38c3.69-3.68,10.47-0.87,10.6,4.35c-0.42,8.22-5.7,15.54-8.21,23.31
	c6.02-1.01,10.76,3.48,13.36,8.44c1.79,2.42,3.91,5.43,3.91,8.3C180.74,204.85,180.13,206.35,178.51,207.7z"/>
<path class="st1" d="M183.84,185.24c-4.11,8.9-10.45,17.07-15.33,25.5c-2.99,4.85-5.92,9.8-9.16,14.53
	c-0.64,0.94-1.56,1.66-2.6,2.12c-0.23,0.39-0.45,0.78-0.68,1.17c-0.86,1.52-2.25,2.59-3.81,3.07c-1.58,3.75-3.16,7.51-4.71,11.28
	c-1.31,3.19-4.85,4.95-8.16,3.71c-5.46-2.31-4.46-7.6-2.16-11.94c-4.8,1.17-9.06-3.86-7.31-8.41c0.87-2.5,1.83-4.99,2.87-7.45
	c-8.65-1.85-4.82-11.05-2.22-16.57c-9.63-6,5.56-24.22,8.64-31.57c4.77-6.82,14.92-31.95,25.39-25.38c3.92-2.45,9.59-0.01,9.92,4.71
	c4.04,0.49,6.77,5.66,4.56,9.23c-2.47,3.99-4.8,8.06-7.13,12.15c0.31,0.25,0.61,0.54,0.87,0.86c0.71,0.84,1.15,1.83,1.34,2.86
	c1.3-0.05,2.41,0.35,3.57,0.89c0.42,0.19,0.8,0.45,1.15,0.75c3.23,0.41,5.32,3.34,5.32,6.35
	C184.2,183.83,184.09,184.55,183.84,185.24z"/>
<path class="st2" d="M182,166.61c-0.34,1.09-0.84,2.12-1.4,3.12c0.06,0.15,0.12,0.31,0.17,0.47c0.93,2.91-0.37,5.81-2.8,7.34
	c9.57,7.83-7.33,34.39-11.51,43.54c-4.07,5.99-10.33,22.33-18.2,22.3c-6.53,12.59-18.24,3.81-12.31-7.64
	c-3.38-0.68-5.88-4.16-4.99-7.65c0.18-0.68,0.35-1.34,0.54-2.01c-1.03,0.12-2.07,0.07-3.11-0.03c-2.4-0.23-4.44-1.8-5.32-3.98
	c-8.44-0.65-6.01-11.06-4.5-16.64c-0.39,0.47-0.77,0.93-1.16,1.39c-0.74,0.87-1.67,1.44-2.68,1.75
	c-4.59,8.85-8.96,18.95-17.87,24.24c0.71,3.9-1.81,7.95-5.97,8.12c-5.57,0.19-7.12-5.18-6.8-9.79c-6.1-7.95-2.44-19.1-0.33-27.95
	c1.11-10.73,5.43-20.98,11.16-30.02c6.94-8.3,10.65-21.65,22.17-24.51c4.62-2.52,6.71-7.75,11.08-10.65
	c5.17-3.46,10.21-4.17,13.56,2.03c1.11-0.42,2.27-0.71,3.38-1.06c1.46-0.45,3.05-0.36,4.45,0.22c5.11-6.93,15.29-9.89,16.85,1.28
	c0.47,4.17-1.53,8.15-2.83,12c4.37,2.48,5.37,8.01,3.86,12.49c2.62-3.72,6.48-8.96,11.61-6.18c2.2,1.16,3.3,3.36,3.3,5.64
	C182.35,165.15,182.23,165.89,182,166.61z"/>
<path class="st2" d="M292.68,259.31c-8.77,30.8-34.15,53.94-61.77,68.52c-18.45,9.45-39.67,11.01-59.98,8.53
	c-59.13-8.99-129.86-65.58-115.39-131.38c4.56-21.04,13.57-41.37,26.34-58.74c8.82-11.81,22.83-19.32,37.75-18.59
	c59.88-52.9,154.76-29.55,160.99,56.27c8.67,16.42,14.74,35.65,14.74,54.6C295.36,245.54,294.52,252.52,292.68,259.31z"/>
<path class="st2" d="M256.67,250.07c-7.87,8.48-18.94,13.65-30.51,14.17c-1.36,0.06-2.71,0.05-4.04-0.01
	c-18.32,32.13-63.44,43.67-91.32,17.01c-8.82-3.57-17.27-9.19-22.91-17.23c-24.96-8.33-36.82-39.69-24.12-62.6
	c5.91-11.57,11.92-23.27,18.96-34.2c18.43-30.93,63.3-51.82,94.03-25.85c14.71,4.81,26.31,15.18,33.83,28.37
	c9.22,3.96,16.86,10.7,23.68,17.62c9.44,8.31,14.07,20.24,14.07,32.23C268.34,230.63,264.4,241.72,256.67,250.07z"/>
<path class="st3" d="M174.08,342.36c0.16,0,0.33,0,0.49,0.01C174.41,342.36,174.24,342.36,174.08,342.36z"/>
<path class="st3" d="M247.86,320.21c-9.32,13.36-24.59,18.34-39.93,21.62c-0.17-0.01-0.33-0.02-0.5-0.04c0.01,0,0.01,0,0.02,0
	c-0.23-0.01-0.46-0.03-0.69-0.04c0.03,0,0.06,0.01,0.08,0.01c-0.13-0.01-0.25-0.02-0.38-0.02c-3.07-0.19-6.1-0.25-9.17-0.1
	c-2.62,0.13-5.23,0.3-7.84,0.42c-3.45-0.11-6.89-0.24-10.34-0.38c-5.33-0.22-10.66-0.49-15.97-0.9c-5.4-0.41-10.76-1.18-16.11-2.04
	c-4.43-0.71-8.82-1.64-13.18-2.68c-0.3-0.1-0.62-0.18-0.92-0.22c-0.45-0.11-0.91-0.22-1.35-0.33c-0.77-0.22-1.52-0.42-2.28-0.64
	c-2.95-0.82-5.91-1.64-8.88-2.43c-1.45-0.38-2.91-0.77-4.37-1.08c-0.42-0.09-0.85-0.19-1.28-0.28c-0.23-0.06-0.46-0.12-0.69-0.18
	c-0.45-0.11-0.89-0.16-1.33-0.18c-10.67-7.66-19.54-17.7-25.09-29.55c-57.25-37.66-36.73-126.53,12.76-161.97
	c28.91-23.99,73.08-25.24,95.95,7.49c48.63,11.32,55.24,69.28,30.15,105.95c18.45,6.02,29.53,24.18,29.53,42.43
	C256.05,303.87,253.46,312.71,247.86,320.21z"/>
<path class="st3" d="M206.84,341.76c0.04,0,0.07,0,0.11,0.01C206.92,341.76,206.88,341.76,206.84,341.76z"/>
<path class="st3" d="M117.19,331.72c0.03,0.01,0.05,0.01,0.08,0.02C117.25,331.73,117.22,331.73,117.19,331.72z"/>
<path class="st3" d="M117.16,331.71c0.01,0,0.02,0.01,0.04,0.01C117.18,331.72,117.17,331.71,117.16,331.71z"/>
<path class="st3" d="M117.14,331.7C117.14,331.7,117.14,331.7,117.14,331.7c0.01,0,0.02,0,0.02,0.01
	C117.15,331.71,117.15,331.71,117.14,331.7z"/>
<path class="st3" d="M117.04,331.67c0.03,0.01,0.07,0.02,0.1,0.03C117.1,331.7,117.07,331.69,117.04,331.67z"/>
<path class="st3" d="M207.18,341.78c0.02,0,0.03,0,0.05,0C207.22,341.78,207.2,341.78,207.18,341.78z"/>
<path class="st3" d="M206.76,341.75c0.13,0.01,0.26,0.01,0.39,0.02c0.01,0,0.02,0,0.02,0.01
	C207.04,341.77,206.9,341.77,206.76,341.75z"/>
<path class="st3" d="M321.14,302.63c0.07-0.06,0.16-0.11,0.25-0.17C321.31,302.52,321.22,302.57,321.14,302.63z"/>
<path class="st3" d="M348.91,247.67c-0.14,1.9-0.24,3.81-0.39,5.71c-0.12,0.96-0.26,1.9-0.45,2.83c-0.42,2.05-0.78,4.1-1.11,6.16
	c0.02-0.13,0.04-0.28,0.07-0.42c-0.33,1.9-0.72,3.81-1.19,5.67c-0.69,2.66-1.5,5.31-2.28,7.94c-0.45,1.26-0.96,2.48-1.47,3.72
	c-0.32,0.71-0.65,1.41-1.02,2.1c-0.36,0.59-0.74,1.18-1.13,1.76c-2.01,2.28-4.13,4.47-6.17,6.74c0.15-0.16,0.3-0.33,0.45-0.49
	c-2.57,2.83-4.71,5.99-7.31,8.78c-1.41,1.3-2.9,2.47-4.47,3.59c0.18-0.13,0.36-0.25,0.54-0.36c-0.49,0.33-0.98,0.66-1.47,1
	c-0.36,0.23-0.71,0.46-1.07,0.69c0.02-0.01,0.03-0.02,0.05-0.02c-0.1,0.07-0.21,0.13-0.3,0.2c-0.04,0.01-0.07,0.04-0.1,0.06
	c-0.01,0.01-0.01,0.01-0.02,0.01c0,0-0.01,0-0.01,0.01c-0.01,0-0.01,0.01-0.02,0.01c-0.85,0.52-1.69,1.05-2.54,1.58
	c-0.92,0.57-1.84,1.14-2.75,1.73c-4.33,0.59-8.73,0.54-13.07-0.15c-4.08,5.78-7.95,10.42-11.77,14.18c-0.31,0.15-0.63,0.3-0.94,0.45
	c0.19-0.1,0.39-0.19,0.59-0.29c-1.86,0.9-3.71,1.84-5.59,2.68c-1.69,0.76-3.4,1.48-5.09,2.25c-1.71,0.78-3.4,1.64-5.14,2.38
	c-1.67,0.71-3.36,1.37-5.08,1.95c-3.46,1.03-6.96,1.85-10.49,2.6c-3.34,0.71-6.67,1.4-10.05,1.93c-1.07,0.13-2.15,0.27-3.23,0.3
	c-1.37,0.04-2.62,0.09-3.9,0.62c-1.65,0.69-2.61,2.35-2.77,4.07c-3.27,0.44-6.72,0.91-10.37,1.49c-2.64,0.51-5.28,0.92-7.92,1.24
	c-0.98-0.01-1.97-0.01-2.96-0.01c-0.99-0.01-1.98-0.01-2.97,0c-2.21-0.25-4.42-0.42-6.65-0.56c-0.03-0.01-0.05-0.01-0.08-0.01
	c0.03,0,0.06,0,0.08,0.01c0.01,0,0.01,0,0.02,0c0.04,0,0.07,0,0.11,0.01c-0.04-0.01-0.07-0.01-0.11-0.01
	c-0.04-0.01-0.07-0.01-0.1-0.01c-0.02-0.01-0.05-0.01-0.08-0.01c-0.23-0.02-0.45-0.04-0.69-0.04c-3.07-0.19-6.1-0.25-9.17-0.09
	c-2.62,0.13-5.23,0.29-7.84,0.41c-2.69-0.09-5.38-0.19-8.07-0.29c-7.21-0.92-14.39-2.19-21.53-3.63
	c-7.98-0.84-16.02-1.26-24.05-1.63c-0.65-0.15-1.3-0.3-1.95-0.45c-0.3-0.1-0.61-0.17-0.91-0.22c-0.45-0.11-0.91-0.22-1.36-0.33
	c-0.76-0.22-1.52-0.43-2.27-0.64c-2.95-0.82-5.91-1.64-8.88-2.43c-1.45-0.38-2.91-0.77-4.37-1.08c-0.43-0.1-0.85-0.19-1.29-0.28
	c-0.22-0.06-0.45-0.12-0.68-0.17c-0.63-0.16-1.24-0.19-1.87-0.21c-0.51-0.03-1.02-0.03-1.53,0.02c-2.05,0.2-3.68,1.95-4.13,3.9
	c-14.01-2.46-26.25-10.66-36.11-20.91c-27.54-9.33-44.78-36.93-53.59-63.48c-3.21-10.36-3.05-21.39,0.62-31.65
	c1.74-6.21,6.95-10.96,7.92-17.5c6.24-25.56,17.66-40.79,38.03-56.94c4.77-3.73,8.76-8.33,13.74-11.81
	c4.18-7.04,10.06-13.02,17.21-17.03c12.84-7.69,25.53-15.56,39.46-21.11c7.58-3,15.19-1.95,22.95-2.36
	c10.64-2.3,20.37-1.07,30.88-1.15c9.4,0.3,17.91-1.02,26.92,2.65c17.53-1,33.67,7.06,46.98,17.76c0.62-0.75,1.27-1.49,1.92-2.21
	c0.39,0.69,0.97,1.3,1.71,1.75c0.28,0.32,0.6,0.61,0.99,0.85c1.26,0.76,2.54,1.08,3.99,1.02c0.73-0.04,1.46-0.16,2.15-0.4
	c0.75-0.26,1.52-0.56,2.13-1.1c0.86-0.75,1.38-1.55,1.99-2.49c-0.01,0.01-0.01,0.03-0.02,0.04c0.04-0.07,0.09-0.14,0.13-0.22
	c0.05-0.1,0.11-0.18,0.17-0.27c0.04-0.07,0.09-0.13,0.13-0.2c0.04-0.07,0.08-0.12,0.11-0.18c0.01-0.01,0.01-0.01,0.01-0.01
	c0.01,0,0.01,0,0.01-0.01c0.03-0.04,0.05-0.07,0.08-0.11c0-0.01,0-0.01,0-0.01s0,0,0,0.01c0.02-0.04,0.04-0.07,0.07-0.1
	c0.96-1.4,2.14-2.62,3.14-3.98c1.09-1.5,1.94-3.17,2.87-4.76c0.92-1.59,1.89-3.15,2.81-4.74c0.49-0.86,0.95-1.74,1.41-2.61
	c7.72-3.01,16.17-3.92,25.24-1.69c19.27,4.42,33.64,21.7,34.54,41.45c0.76,8.31-2.93,15.45-3.5,23.43
	c-0.42,20.9,1.78,41.61,5.03,62.19c-0.71,0.92-1.07,2.04-1.21,3.23c-0.07,0.61-0.01,1.2,0.13,1.79c-0.05,0.36-0.08,0.72-0.08,1.07
	c-0.1,0.61-0.22,1.22-0.32,1.84c-0.25,1.48-0.37,2.99-0.14,4.48c0.16,1.06,0.6,2.09,0.88,3.14c0.31,1.77,0.49,3.56,0.77,5.33
	c0.23,1.46,0.59,2.88,0.79,4.35c0.01,0.25,0.01,0.51,0.01,0.76C349.36,244.37,349.03,246.01,348.91,247.67z M320.32,303.15
	c0.03-0.02,0.06-0.04,0.09-0.06C320.38,303.11,320.35,303.13,320.32,303.15z M320.23,303.21c0,0.01-0.01,0.01-0.01,0.01
	C320.22,303.21,320.23,303.21,320.23,303.21z M129.24,247.29c5.86,0.32,11.7,0.83,17.56,1.03c6.82,0.24,13.61,0.36,20.39,1.3
	c0.97,0.13,1.95,0.28,2.91,0.43c-11.14-21.1-15.68-47.16-6.65-69.81c-0.8,0.08-1.58,0.16-2.38,0.24c-0.67,0.07-1.33,0.11-2,0.14
	c-10.29,7.34-19.88,16.3-29.98,23.77c-5.23,5-10.87,9.53-16.31,14.31c-1.32,3.26-2.1,6.7-2.91,10.12
	C113.66,237.54,122.31,241.41,129.24,247.29z"/>
<path class="st3" d="M317.2,305.11c0.09-0.06,0.19-0.12,0.28-0.17c0.01-0.01,0.03-0.02,0.04-0.02
	C317.41,304.98,317.3,305.04,317.2,305.11z"/>
<path class="st3" d="M316.96,305.26c0.08-0.05,0.16-0.1,0.24-0.15C317.12,305.16,317.04,305.21,316.96,305.26z"/>
<path class="st3" d="M338.42,267.64c-1.35,10.94-5.55,21.9-12.09,31.03c-1.25,1.1-2.55,2.11-3.92,3.08
	c0.18-0.13,0.36-0.25,0.54-0.36c-0.49,0.33-0.98,0.66-1.46,1c-0.04,0.03-0.09,0.07-0.14,0.1c-0.33,0.21-0.66,0.43-0.99,0.64
	c0.03-0.02,0.07-0.05,0.1-0.07c-0.04,0.03-0.08,0.05-0.12,0.08c-0.04,0.02-0.07,0.05-0.11,0.07c0,0,0,0,0,0
	c0.02-0.01,0.03-0.02,0.05-0.03c-0.02,0.01-0.03,0.02-0.05,0.03c0,0,0,0,0,0c0,0-0.01,0.01-0.01,0.01c0,0,0,0,0,0c0,0,0,0,0,0
	c0,0,0,0,0,0c0,0,0,0,0,0c-0.02,0.01-0.04,0.02-0.06,0.04c-1.07,0.66-2.13,1.33-3.21,2c0.19-0.12,0.37-0.23,0.56-0.35
	c-2.82,1.75-5.59,3.58-8.41,5.31c-2.97,1.84-5.98,3.63-8.98,5.43c-0.03,0.01-0.05,0.03-0.08,0.04c-1.72,0.99-3.45,1.95-5.26,2.79
	c-1.78,0.83-3.6,1.6-5.38,2.44c0,0,0,0,0,0c0,0-0.01,0.01-0.01,0.01c-23.5,1.92-45.65-16.46-47.63-40.3
	c-62.2-14.53-41.46-103.32,20.63-86.72c30.21,3.11,57.66,15.07,68.86,43.46c4.59,8.18,7.34,17.11,7.34,26.39
	C338.59,265.04,338.54,266.34,338.42,267.64z"/>
<path class="st3" d="M320.29,303.17c0.02-0.01,0.04-0.03,0.06-0.04c0.01,0,0.01-0.01,0.02-0.01
	C320.34,303.14,320.32,303.15,320.29,303.17z"/>
<path class="st3" d="M126.06,114.81c-0.28,1.84-1.31,3.51-2.82,4.59c-2.42,1.75-6.04,1.72-8.39-0.11
	c-6.83,1.74-9.36-6.27-12.27-10.83c-0.33,2.27-1.55,4.35-3.68,5.52c-2.05,1.14-4.43,1.26-6.53,0.49c2.67,7.18-0.28,15.37-9.11,13.33
	c0.23,2.85-1.59,5.7-4.07,6.98c3.84,11.77-10.42,17.16-13.94,5.19c-0.08,0.04-0.16,0.07-0.23,0.11c-0.01,2.13,0.08,4.26,0.18,6.39
	c0.16,3.69,0.33,7.38-0.07,11.01c-0.97,2.4-0.24,4.93-0.17,7.44c-0.04,2.53,0.3,5.11,0.63,7.7c0.61,4.69,1.22,9.4-0.39,13.77
	c-4.17,7.63-13.13,4.1-14-3.84c-0.46,2.7-2.59,4.97-5.28,5.6c-2.89,0.68-6.03-0.63-7.56-3.14c-0.42,0.52-0.91,0.98-1.46,1.38
	c0.33,4.8,3.27,10.38-0.13,14.64c-5.12,5.85-12.57,1.2-12.97-5.7c-3.26-3.78-4.31-8.85-5.05-13.66c-2.47-7.64-3.03-15.85-4.44-23.75
	c-5.81-34.68,1.46-69.53,5.49-103.98c0.85-11.89,2.64-23.72,7.5-34.68c2.94-10.52,13.12-7.3,18.17-0.27
	c8.08,11.85,18.99,21.01,28.59,31.66c6.04-1.94,9.44,4.64,12.63,8.55c5.72,7.28,11.47,14.53,17.12,21.87
	c7.39,9.25,14.75,18.54,21.01,28.62c0.82,1.28,1.31,2.68,1.31,4.14C126.14,114.13,126.12,114.47,126.06,114.81z"/>
<path class="st3" d="M360.98,92.69c-2.16,22.09-3.55,44.22-5.28,66.35c1.86,3.51,0.88,7.74,0.52,11.5c-1,7.7-1.62,15.66-4.49,22.94
	c-1.37,5.28-1.55,11.31-4.57,15.96c-2.97,3.78-8.91,3.64-11.62-0.33c-1.55-2.01-1.42-4.58-1.13-6.94c0.54-4.17,1.2-8.33,1.91-12.48
	c-3.81,4.88-11.57,2.13-12.61-3.67c-2.72-26.9,5.23-53.7,9.4-80.12c-1.26,0.33-2.58,0.31-3.87-0.1c-0.73-0.24-1.42-0.6-2.03-1.06
	c-1.55,0.69-3.34,0.81-4.99,0.28c-1.8-0.58-3.43-2.01-4.24-3.77c-2.51,3.79-5.17,7.66-6.51,12.05c-1.29,6.99-11.45,7.51-13.51,0.72
	c-6.16,2.28-11.74-4.21-9.22-10.18c-4.15-3.21-3.28-8.31-0.14-13.88c0.32-0.39,0.59-0.83,0.78-1.32
	c6.14-9.95,18.68-21.02,22.49-25.35c9.67-9.82,18.81-20.33,29.61-28.93c5.22-4.46,12.92-0.75,13.84,5.76
	c5.66,2.53,5.66,9.11,5.66,14.88c-0.01,1.42-0.01,2.79,0.08,4.04c-0.04,4.19,0.01,8.38,0.07,12.58c0.04,3.32,0.09,6.65,0.09,9.98
	C361.21,85.28,361.15,88.99,360.98,92.69z"/>
<path class="st3" d="M307.31,108c-1.68,1.9-3.83,3.28-5.83,4.82c-3.23,2.68-6.27,5.76-10.43,6.94c-2.97,0.88-6.1,0.77-9.02,1.68
	c-4.24,4.97-12.99,0.73-11.97-5.62c0.73-4.01,4.83-7.37,6.82-10.27c2.67-3.73,6.5-7.86,11.5-5.34c0.13-0.01,0.25-0.02,0.37-0.03
	c1.57-0.11,3.14,0.48,4.4,1.46c2.38-1.55,4.29-3.62,6.55-5.28c5.38-2.79,10.32,1.63,10.32,6.31
	C310.01,104.55,309.21,106.48,307.31,108z"/>
<path class="st3" d="M137.95,331.38c-2.18,9.43-13.19,4.43-19.62,3.28c-6.33-1.46-16.66-3.55-12.9-12.36
	c-0.25-1.3-0.08-2.7,0.44-3.94c-0.8-6.67,7.11-7.5,8.73-13.18c4.07-8.19,16.32-2.51,12.66,5.87c-0.93,1.53-1.47,3.23-2.3,4.81
	c1.03,0.48,2.05,0.92,3.06,1.4c2.46,1.16,4.34,3.4,4.57,6.12c3.2,0.72,5.48,3.67,5.48,6.84
	C138.05,330.6,138.02,330.99,137.95,331.38z"/>
<path class="st4" d="M77.72,127.81c0.04,0.79,0.02,1.5-0.04,2.16c-1.17,0.41-2.22,1.21-2.86,2.25c0,0.01-0.01,0.01-0.01,0.03
	c-0.39,0.37-0.75,0.77-1.12,1.18l0.01-0.01c-0.96,1.06-2.01,2.01-2.94,3.1c-0.51,0.59-0.83,1.29-0.98,2.03
	c-0.94,0.47-1.93,0.95-2.91,1.51c-6.99,4.31-12.65,11.15-17.85,17.02c-2.1,6.47-3.63,19.18-13.26,16.03
	c-1.29,6.97-1.9,21.53-9.8,23.9c-3.08,0.75-5.95-0.61-7.83-3.02c-2.08-2.97-2.02-6.85-2.41-10.32c-2.91-19.08-4.24-38.48-3.37-57.79
	c-3.86-2.93-3.05-10.82-2.26-17.54c0.35-2.89,0.69-5.56,0.67-7.53c1.21-8.47,1.03-17.17,2.39-25.61c0.65-0.1,1.29-0.31,1.85-0.67
	c1.48-0.92,2.28-2.37,2.47-4.08c0.08-0.73,0.15-1.46,0.22-2.19c0.18-1.85,0.3-3.7,0.39-5.55c0.1-2.24,0.06-4.48,0.02-6.73
	c-0.02-1.06-0.04-2.12-0.04-3.18c3.84-0.85,7.97,1.99,11.51,3.68c12.48,4.54,23.32,13.16,32.38,22.72
	c6.79,7.9,10.16,17.93,12.87,27.83c1.81,6.1,2.97,12.38,2.97,18.75C77.76,126.45,77.75,127.13,77.72,127.81z"/>
<path class="st4" d="M339.97,206.03c0.04,0.11,0.08,0.23,0.12,0.34C340.05,206.26,340.01,206.15,339.97,206.03z"/>
<path class="st4" d="M365.21,86.7v-0.54c-1.86,21.67-3.47,43.44-7.4,64.88c-1.52,17.87-3.09,36.03-7.54,53.39
	c0.12,0.27,0.23,0.54,0.35,0.83c-0.27,0.45-0.5,0.91-0.69,1.42c-0.54,1.38-1,2.77-1.4,4.18c-0.9,3.11-1.55,6.27-2.49,9.35
	c-0.27,0.02-0.53,0.03-0.79,0.02c-0.03-0.05-0.06-0.11-0.08-0.17c-0.11-0.28-0.2-0.54-0.28-0.82c-0.24-1.07-0.38-2.14-0.53-3.23
	c-0.13-0.91-0.25-1.82-0.52-2.7c-0.39-1.18-1.01-2.16-1.77-3.12c-0.33-0.62-0.6-1.25-0.91-1.87c-0.29-0.57-0.62-1.11-0.94-1.67
	c-0.04-0.08-0.07-0.16-0.1-0.25c-0.07-0.22-0.14-0.45-0.22-0.68c0,0.01,0.01,0.01,0.01,0.03c0-0.01-0.01-0.03-0.02-0.05
	c0,0.01,0.01,0.01,0.01,0.02c-0.04-0.12-0.07-0.24-0.11-0.35c-0.01-0.01-0.01-0.02-0.01-0.04c0,0,0,0,0,0.01
	c-0.62-1.96-1.3-4.01-2.35-5.75c-0.89-1.49-2.09-2.68-3.24-3.94c-0.15-0.16-0.29-0.33-0.43-0.5c-0.12-0.94-0.21-1.9-0.25-2.86
	c-0.26-0.03-0.51-0.07-0.74-0.12c-0.13-1.02-0.26-2.04-0.39-3.06c-0.01-0.01-0.01-0.04-0.01-0.06c-0.06-1.58-0.09-3.11-1.07-4.46
	c-0.78-1.08-1.93-1.82-3.18-2.25c-0.77-0.26-1.58-0.31-2.34-0.19c-0.51-2.01-1-3.98-1.81-5.6c-4-11.55-15.54-18.62-18.81-30.49
	c-9.25,2.65-11.51-10.27-8.02-16.39c7.76-12.94,16.84-25.39,27.29-36.33c8.99-7.44,23.56-27.41,35.76-16.22
	c2.07,2.74,5.05,5.49,5.05,8.93C365.24,86.29,365.22,86.5,365.21,86.7z"/>
<path class="st4" d="M339.87,205.71c0.01,0.01,0.01,0.02,0.01,0.03C339.88,205.72,339.88,205.72,339.87,205.71z"/>
<path d="M120.49,101.76c-0.09,0.04-0.18,0.1-0.28,0.14c-0.47,0.19-0.94,0.36-1.4,0.56c-0.54,0.24-1.08,0.48-1.61,0.74
	c-0.07,0.04-0.15,0.07-0.22,0.11c-0.64-0.28-1.17-0.81-1.4-1.52c-1.17-1.77-2.46-3.46-3.66-5.22c-3.98-5.64-7.92-11.29-12.11-16.78
	C88.06,64.66,74.38,51.15,60.8,37.7c-6.78-6.87-12.9-14.25-20.53-20.08c-1.96-1.38-4-3.14-6.41-3.51c-3.31,0.64-4.41-4.31-1.07-5.08
	c10.19-0.95,26.13,20.2,33.67,27.01c15.21,14.99,30.37,30.22,42.73,47.69c3.4,4.73,6.75,9.51,10.09,14.28
	c0.73,0.82,1.32,1.95,1.32,3.02C120.59,101.28,120.56,101.52,120.49,101.76z"/>
<path d="M37.82,13.5c-0.48,1.33-1.99,2.04-3.32,1.55c-2.11-0.84-3.75,1.17-4.13,3.08c-0.97,2.71-1.96,5.49-2.74,8.23
	c-7.28,21.96-10.71,44.86-12.01,67.86c-1.51,21.02-2.7,41.97-0.68,62.91c1.5,12.69,4.18,24.82,8.7,36.64
	c-0.04,0.07-0.06,0.16-0.06,0.25c0,0.04,0.01,0.07,0.01,0.1c0.01,0.07,0.02,0.11,0.04,0.16c0.01,0.01,0.01,0.01,0.01,0.03
	c0,0,0,0,0,0.01l0.01,0.01c0,0.01,0,0.01,0,0.01c0,0.01,0,0.01,0,0.01s0,0,0-0.01c0,0,0,0,0,0.01c0.05,0.15,0.09,0.3,0.18,0.45
	c0.07,0.12,0.18,0.19,0.3,0.2c0.58,1.37,1.18,2.74,1.9,4.04c0.59,0.69,0.8,1.68,0.48,2.56c-0.07,0.14-0.13,0.28-0.19,0.42
	c-0.68,1.17-2.22,1.65-3.43,1.02c-1.2-0.63-1.74-2.1-2.31-3.25c-1.73-3.65-3.05-7.49-4.28-11.34c-10.52-31.9-7.85-66.01-5.53-98.98
	c1.4-20.28,4.3-41,10.66-60.3c1.85-5.58,2.82-11.77,6.09-16.7c1.97-3.08,10.38-4.35,10.38,0.16C37.9,12.9,37.88,13.18,37.82,13.5z"
	/>
<path d="M120.7,101.66c-0.17,0.08-0.34,0.16-0.51,0.25c-0.46,0.18-0.93,0.35-1.38,0.55c-0.54,0.24-1.09,0.48-1.61,0.74
	c-0.14,0.07-0.28,0.14-0.42,0.22c-0.38-0.44-0.62-1-0.62-1.61c0-1.41,1.09-2.62,2.53-2.67c1.29-0.03,2.5,0.97,2.65,2.26
	C121.11,101.47,120.9,101.56,120.7,101.66z"/>
<path d="M121.77,101.23c-0.07,0.03-0.15,0.05-0.22,0.08c-0.29,0.1-0.58,0.21-0.86,0.33c-0.16,0.08-0.31,0.16-0.47,0.24
	c-0.48,0.19-0.95,0.36-1.42,0.57c-0.54,0.24-1.08,0.48-1.61,0.74c-0.26,0.13-0.51,0.26-0.75,0.4c-0.19,0.11-0.38,0.24-0.56,0.36
	c0,0,0,0,0.01,0c-0.21,0.13-0.41,0.26-0.61,0.4c-0.39,0.25-0.8,0.49-1.19,0.74c-0.37,0.24-0.75,0.48-1.12,0.73
	c-0.35,0.23-0.71,0.45-1.07,0.68c-0.39,0.25-0.77,0.53-1.16,0.79c-0.8,0.55-1.61,1.11-2.4,1.67c-0.75,0.54-1.49,1.07-2.21,1.65
	c0.01-0.01,0.01-0.01,0.01-0.01c-0.25,0.21-0.51,0.42-0.77,0.62c-0.43,0.27-0.86,0.54-1.29,0.83c-0.51,0.33-1.02,0.68-1.53,1.01
	c-0.18,0.11-0.35,0.22-0.53,0.33c-0.54,0.35-1.06,0.7-1.58,1.06c-0.21,0.15-0.42,0.29-0.63,0.43c-0.12,0.08-0.26,0.16-0.36,0.27
	c-0.1,0.09-0.19,0.19-0.29,0.28c-0.22,0.17-0.45,0.33-0.67,0.51c-0.19,0.15-0.4,0.3-0.59,0.47c-0.34,0.28-0.68,0.56-1.01,0.85
	c-0.08,0.07-0.16,0.13-0.24,0.2c-12.65,8.66-24.51,18.55-34.68,29.96c-7.67,9.79-15.34,19.83-21.85,30.28
	c-3.51,5.61-6.75,11.37-9.74,17.27c-0.31,0.43-0.6,0.87-0.91,1.3c-0.39,0.53-0.79,1.07-1.1,1.66c-0.3,0.56-0.57,1.14-0.83,1.73
	c0,0,0-0.01,0-0.01c-0.13,0.29-0.27,0.56-0.42,0.85c-0.01,0.02-0.01,0.04-0.03,0.06c0,0.01,0,0.01-0.01,0.01
	c-0.09,0.13-0.17,0.27-0.25,0.4c-0.06,0.13-0.12,0.25-0.18,0.38c-0.02,0.04-0.04,0.08-0.06,0.12c-0.1,0.21-0.2,0.42-0.29,0.62
	c-0.03,0.04-0.04,0.08-0.07,0.12c-0.62,0.38-1.41,0.45-2.42-0.04c-1.23-0.68-1.68-2.3-1-3.53c0.66-1.37,1.32-2.74,2-4.1
	c0.07-0.03,0.14-0.08,0.19-0.15c0.08-0.11,0.13-0.25,0.15-0.38c0.02-0.06,0.05-0.12,0.07-0.18c0.09-0.14,0.18-0.28,0.26-0.42
	c0.12-0.2,0.26-0.39,0.36-0.6c0.04-0.09,0.07-0.16,0.07-0.27c0-0.05-0.01-0.1-0.03-0.16c0.07-0.13,0.13-0.25,0.19-0.37
	c0.04-0.09,0.1-0.19,0.14-0.28c0.13-0.22,0.26-0.45,0.39-0.68c0.06-0.12,0.12-0.23,0.18-0.35c0.04-0.09,0.1-0.18,0.13-0.28
	c0.01-0.04,0.03-0.07,0.03-0.1c0.94-1.81,1.9-3.62,2.88-5.4c5.25-9.28,10.98-18.29,17.5-26.73c4.8-6.59,9.51-13.29,15.22-19.14
	c9.54-9.27,19.63-18.05,30.65-25.55c8.02-5.36,16.12-10.83,24.9-14.85c1.87-0.67,3.69,0.76,3.69,2.47
	C121.78,101.15,121.77,101.19,121.77,101.23z"/>
<path d="M27.52,199.69c0.01-0.01,0.01-0.03,0.02-0.04C27.53,199.66,27.53,199.67,27.52,199.69z"/>
<path d="M29.14,195.88c-1.03,2.07-1.99,4.18-2.91,6.3c-0.01,0.03-0.03,0.06-0.04,0.08c-0.08,0.14-0.18,0.27-0.21,0.43
	c0,0.03,0,0.06,0,0.1c-5.23,12.35-8.51,25.53-8.68,38.99c0.16,3.16,0.61,6.21,1.13,9.25c-1.75,0.02-3.49,0.83-4.5,2.36
	c-0.1,0.15-0.19,0.29-0.27,0.44c-0.65-3.62-1.27-7.25-1.51-10.93c-0.23-5.51,0.65-11.01,1.39-16.45
	c1.73-10.95,5.57-21.6,10.35-31.56c0.14,0.12,0.36,0.14,0.52,0.04c0.14-0.09,0.21-0.25,0.2-0.4c0.14,0.01,0.29-0.05,0.37-0.17
	c0.08-0.11,0.14-0.25,0.16-0.39c0.01-0.06,0.04-0.11,0.07-0.18c0.08-0.14,0.17-0.28,0.25-0.42c0.13-0.19,0.26-0.39,0.36-0.59
	c0.02-0.04,0.04-0.1,0.06-0.14c1.52-0.43,3.38,0.6,3.38,2.39C29.28,195.31,29.23,195.59,29.14,195.88z"/>
<path d="M186.9,340.98c-0.65,3.75-5.32,1.83-7.94,2.07c-5.17-0.16-10.34-0.07-15.51-0.23c-33.1-0.23-66.44-7.99-94.9-25.24
	c-21.52-12.96-41.25-31.09-51.27-54.44c1.71,0.18,3.49-0.45,4.8-1.75c0.01-0.01,0.01-0.01,0.02-0.01c0.68,1.56,1.43,3.1,2.22,4.62
	c4.24,8.29,9.91,15.73,16.1,22.64c27.1,28.6,65.79,44.52,104.65,48.04c8.92,0.81,17.8,1.02,26.74,1.07
	c4.26,0.01,8.52,0.11,12.76,0.39c1.33,0.08,2.35,1.3,2.35,2.59C186.92,340.82,186.91,340.9,186.9,340.98z"/>
<path d="M339.64,286.62c-0.06,0.08-0.11,0.17-0.16,0.27c-0.04,0.09-0.06,0.18-0.09,0.28c-0.01,0.04-0.03,0.09-0.05,0.13
	c0,0.01-0.01,0.01-0.01,0.02c-0.09,0.2-0.21,0.38-0.32,0.56c-0.36,0.61-0.7,1.23-1.06,1.85c-0.3,0.48-0.62,0.94-0.93,1.42
	c-0.12,0.17-0.22,0.35-0.33,0.53c-5.5,6.93-12.81,12.15-19.88,17.43c-12.93,10.44-28.16,17.38-43.64,23.13
	c-10.9,4.06-22.52,5.55-33.95,7.36c-13.16,2.19-26.43,3.75-39.77,3.9c-6.34,0.1-12.68-0.22-19.02-0.28
	c-2.65-0.38-7.37,1.11-7.96-2.53c0.05-4.17,5.17-2.42,7.83-2.66c6.47,0.06,13.07,0.37,19.48,0.29c12.81-0.19,25.11-1.63,37.45-3.65
	c9.89-1.55,19.5-2.87,29.1-5.58c12.52-4.17,24.72-9.43,36.09-16.11c7.77-5.1,15.54-11.19,22.7-16.86c3.97-3.11,7.18-7.02,10-11.18
	c1.52-2.31,4.79-0.88,4.82,1.35C339.83,286.39,339.73,286.5,339.64,286.62z"/>
<path d="M350.18,244.31c-0.45,10.91-2.31,21.77-6.13,32.02c-1.2,3.29-2.42,6.59-3.9,9.76c-0.02,0.01-0.04,0.02-0.06,0.04
	c-0.04,0.04-0.08,0.08-0.11,0.13c-0.01,0.01-0.01,0.01-0.03,0.02c-0.11,0.1-0.21,0.21-0.3,0.33c-0.06,0.09-0.11,0.18-0.16,0.28
	c-0.04,0.09-0.06,0.19-0.09,0.28c0-0.01,0-0.01,0-0.01c-0.01,0.06-0.04,0.12-0.07,0.18c0.01-0.01,0.01-0.01,0.01-0.01
	c-0.09,0.19-0.19,0.36-0.3,0.53c-0.01,0.01-0.01,0.02-0.02,0.03c-0.36,0.61-0.7,1.23-1.06,1.85c-0.3,0.48-0.62,0.94-0.93,1.42
	c-0.01,0.01-0.01,0.02-0.02,0.04c-0.79,0.41-1.77,0.42-2.56-0.04c-2.45-1.55-0.69-3.98,0.32-5.83c0.94-1.87,1.72-3.79,2.49-5.72
	c4.19-10.13,6.86-20.86,7.51-31.82c0.74-8.36,0.33-16.92-1.4-25.11c-0.01-0.17-0.03-0.34-0.04-0.51c-0.01-0.09-0.01-0.17-0.03-0.25
	c-0.01-0.08-0.04-0.16-0.09-0.24c-0.02-0.06-0.04-0.12-0.09-0.18c0,0-0.01-0.01-0.01-0.01c-0.25-1.08-0.52-2.15-0.82-3.21
	c-0.01-2.71,3.88-3.47,5.05-1.11c0.46,1.67,0.87,3.36,1.23,5.06c0.01,0.38,0.02,0.75,0.09,1.12c0.04,0.2,0.09,0.4,0.15,0.6
	c0.04,0.13,0.1,0.25,0.14,0.36c-0.01,0.07,0,0.13,0.01,0.21c0.03,0.13,0.07,0.27,0.11,0.4c0.01,0.08,0.04,0.16,0.05,0.25
	c0.81,4.71,1.2,9.51,1.2,14.28C350.32,241.06,350.27,242.69,350.18,244.31z"/>
<path d="M273.2,118.57c-0.29,0.35-0.68,0.6-1.11,0.75c-0.04-0.03-0.08-0.06-0.13-0.1c-0.26-0.19-0.53-0.36-0.8-0.54
	c-1.02-0.63-2.08-1.21-3.16-1.76c-1.13-0.59-2.23-1.23-3.32-1.89c0,0,0,0,0,0.01c0-0.01,0-0.01-0.01-0.01
	c0-0.01-0.01-0.01-0.01-0.01c0.01,0,0.01,0,0.01,0c-1.04-0.64-2.06-1.29-3.11-1.92c-0.52-0.32-1.05-0.64-1.58-0.95
	c-0.55-0.31-1.11-0.62-1.67-0.93c-0.54-0.31-1.09-0.62-1.64-0.91c-0.13-0.07-0.27-0.15-0.4-0.22c-1-0.62-1.99-1.23-2.99-1.84
	c-34.39-18.18-75.61-20.37-113.29-13.11c-6.08,1.23-12.11,2.91-17.62,5.79c-0.31,0.11-0.63,0.25-0.96,0.43
	c-0.24,0.08-0.48,0.18-0.71,0.28c-0.17,0.08-0.34,0.16-0.51,0.25c-0.46,0.19-0.92,0.35-1.38,0.55c-0.54,0.24-1.08,0.48-1.61,0.74
	c-0.02,0.01-0.05,0.02-0.07,0.04c-0.65-0.02-1.28-0.32-1.86-1.07c-1.85-2.96,1.95-4.57,4.15-5.56c2.31-1.14,4.64-2.26,7.06-3.16
	c36.03-11.03,81.82-10,117.51,4.7c0.56,0.28,1.12,0.52,1.69,0.75c0.06,0.03,0.1,0.05,0.16,0.08c0.12,0.05,0.23,0.11,0.36,0.12
	c0.01,0,0.02,0,0.04,0c0.01,0,0.01,0.01,0.02,0.01c0.16,0.09,0.32,0.16,0.48,0.25c-0.01-0.01-0.04-0.02-0.05-0.03
	c0.4,0.22,0.81,0.44,1.2,0.67c0.23,0.13,0.46,0.26,0.68,0.39c0.07,0.04,0.15,0.08,0.23,0.13c0.03,0.01,0.06,0.03,0.09,0.04
	c0.22,0.13,0.45,0.25,0.67,0.37c0.41,0.22,0.83,0.43,1.25,0.64c0.45,0.22,0.92,0.45,1.38,0.67c0.46,0.22,0.92,0.43,1.39,0.64
	c-0.01-0.01-0.04-0.01-0.05-0.03c0.51,0.22,1.03,0.42,1.55,0.63c0.82,0.44,1.61,0.9,2.42,1.36c0.7,0.42,1.38,0.85,2.08,1.24
	c0.23,0.13,0.46,0.25,0.69,0.37c2.88,1.79,5.7,3.67,8.56,5.49c1.69,1.23,4.97,2.79,4.97,4.98
	C273.8,117.43,273.62,117.98,273.2,118.57z"/>
<path d="M350.5,33.15c-0.7,0.51-1.4,1-2.1,1.49c-0.08,0.02-0.16,0.04-0.25,0.08c-0.11,0.05-0.23,0.13-0.35,0.19
	c-0.13,0.07-0.26,0.14-0.39,0.23c-0.14,0.1-0.28,0.19-0.41,0.3c-0.1,0.09-0.19,0.2-0.22,0.33c-3.19,2.24-6.39,4.5-9.43,6.97
	c-8.95,7.37-16.64,16.09-24.69,24.41c-10.58,12-21.7,23.5-31.98,35.75c-3.18,3.93-6.3,7.91-9.47,11.86c-0.65,1-1.62,2.09-2.71,2.43
	c-0.17-0.09-0.33-0.18-0.51-0.27c-0.84-0.44-1.67-0.91-2.5-1.4c-0.28-0.83-0.15-1.78,0.43-2.48c0.59-0.77,1.19-1.52,1.78-2.28
	c0.07-0.01,0.14-0.04,0.21-0.09c0.05-0.04,0.1-0.07,0.14-0.12c0.1-0.07,0.19-0.1,0.28-0.17c0.1-0.07,0.17-0.17,0.26-0.26
	c0.1-0.13,0.23-0.23,0.24-0.41c0-0.01,0-0.01,0-0.02c0-0.1-0.03-0.19-0.08-0.27c8.67-10.93,17.82-21.44,27.35-31.64
	c8.96-10.03,18.03-19.97,27.5-29.51c7.31-7.26,15.36-14.06,24.2-19.3c1.74-0.5,3.26,1.03,3.26,2.6
	C351.08,32.13,350.9,32.68,350.5,33.15z"/>
<path d="M366.16,75.74c-1.49,20.54-3.41,43.3-5.6,63.73c-0.43,1.56-1.63,2.15-2.76,2.02c0.22-1.49,0.43-2.97,0.62-4.47
	c0.46-3.77,0.84-7.55,1.18-11.34c0.29-3.26,0.54-6.54,0.57-9.8c0.01-1.69,0.01-3.37-0.02-5.05c0.54-4.76,0.91-9.55,1.22-14.33
	c0.15-2.35,0.18-4.71,0.26-7.05c0.12-3.43,0.25-6.86-0.01-10.29c0.25-1.89,0.49-3.78,0.56-5.69c0.04-0.95,0.07-1.92,0.07-2.89
	c0-2.15-0.15-4.3-0.76-6.35c-0.16-0.51-0.32-0.97-0.53-1.4c-0.66-10.66-3.22-20.5-9.8-27.15c0.04-0.07,0.05-0.13,0.05-0.21
	c0-0.11-0.04-0.22-0.14-0.3c-0.09-0.08-0.19-0.12-0.28-0.14c-0.06-0.14-0.17-0.26-0.29-0.35c-0.11-0.08-0.24-0.13-0.38-0.16
	c-0.27-0.04-0.54-0.02-0.8,0c-0.25,0.02-0.51,0.05-0.77,0.09c-0.14,0.03-0.28,0.06-0.41,0.12c-0.12,0.05-0.24,0.13-0.36,0.19
	c-0.07,0.04-0.14,0.08-0.22,0.13c-1.13-0.61-1.84-2.02-1.32-3.45c0.81-2.14,3.52-2.58,5.45-1.82c5.49,2.39,8.27,8.43,10.44,13.67
	c3.19,8.15,4.19,16.95,4.19,25.7C366.34,71.35,366.28,73.55,366.16,75.74z"/>
<path d="M363.97,131.52c-0.8,9.28-2.3,18.58-3.33,27.81c-0.56,5.14-0.74,10.3-1.66,15.4c-2.05,13.52-5.48,26.74-9.13,39.9
	c-0.52,2.16-0.92,4.34-1.28,6.53c-0.05,0.07-0.08,0.17-0.07,0.28c0,0.04,0.01,0.09,0.01,0.13c0,0.04-0.01,0.07-0.01,0.12
	c-0.19,1.09-0.56,2.06-1.57,2.65c-1.32,0.76-2.8,0.08-3.49-1.05c-0.01-0.04-0.02-0.08-0.03-0.12c-0.01-0.12-0.03-0.24-0.04-0.35
	c0.01-0.04,0.01-0.07,0.01-0.11c-0.01-0.19-0.03-0.39-0.04-0.58c-0.01-0.08-0.01-0.17-0.03-0.25c-0.01-0.08-0.04-0.16-0.09-0.23
	c-0.01-0.07-0.04-0.12-0.09-0.18c-0.01-0.01-0.02-0.02-0.04-0.04c0.06-0.26,0.16-0.51,0.32-0.77c0.68-4.62,1.84-9.14,3.11-13.64
	c4.97-16.64,7.8-33.72,9.37-50.98c0.26-1.84,0.48-3.69,0.68-5.55c0.3-2.18,0.59-4.36,0.86-6.53c0.36-2.31,0.71-4.63,1-6.95
	c0.47-3.78,0.85-7.56,1.19-11.34c0.29-3.26,0.54-6.54,0.56-9.81c0.02-1.43,0.02-2.88,0-4.32c0.02-0.5,0.05-1.01,0.07-1.51
	c0.5-4.51,0.85-9.04,1.13-13.56c0.16-2.35,0.19-4.71,0.27-7.05c0.12-3.43,0.25-6.86-0.01-10.29c0.25-1.89,0.49-3.79,0.56-5.69
	c0.04-0.95,0.07-1.92,0.07-2.89c0-2.15-0.15-4.3-0.76-6.35c-0.27-0.93-0.62-1.71-1.13-2.47c-0.1-1.1-0.2-2.21-0.32-3.31
	c-0.01-0.29-0.01-0.58-0.06-0.87c-0.03-0.22-0.07-0.45-0.11-0.67c-0.25-2.12-0.54-4.24-0.87-6.37c-0.58-4.55-2.44-8.8-5.05-12.49
	c-1.91-2.73,2.15-5.79,4.21-3.03c1.59,2.16,2.82,4.56,3.87,7.01c4.36,12.53,3.89,26.48,4.01,39.61
	C365.93,98.28,365.74,114.96,363.97,131.52z"/>
<path d="M365.53,89.87c-1.18,16.75-2.77,33.47-3.92,50.21c-0.78,11.1-1.01,22.24-2.74,33.24c-2.1,14.67-5.59,29.1-10.67,43.02
	c-0.46,1.34-1.88,2.13-3.26,1.69c-1.32-0.41-2.15-1.91-1.69-3.25c1.02-3.01,2.04-6.02,3.03-9.04c4.12-12.71,6.52-25.91,8.25-39.14
	c1.22-11.09,1.37-22.26,2.37-33.37c1.01-16.1,2.95-32.13,3.62-48.25c0.13-7.2,0.27-14-0.3-20.9c0-0.09-0.01-0.17-0.01-0.25
	c0,0.01,0,0.04,0,0.05c-0.01-0.46-0.03-0.93-0.04-1.39c-0.01-0.45-0.04-0.91-0.07-1.36c-0.02-0.25-0.01-0.51-0.01-0.76
	c0.01-0.13,0.01-0.28,0.01-0.42c-0.01-0.37-0.02-0.74-0.04-1.11c-0.02-0.42-0.01-0.85-0.07-1.27c-0.02-0.17-0.05-0.33-0.08-0.5
	c1.14-1.96,4.67-1.63,4.85,1.2c0.85,5.72,1.1,11.52,1.1,17.32C365.85,80.37,365.68,85.13,365.53,89.87z"/>
<path d="M267.58,109.85c-0.09-0.06-0.18-0.13-0.28-0.19c-0.03-0.01-0.05-0.03-0.08-0.04c0.14,0.06,0.28,0.13,0.42,0.19
	C267.62,109.82,267.6,109.83,267.58,109.85z"/>
<path d="M344.65,225.68c-0.43-1-0.86-2-1.29-3c0-0.18-0.02-0.36-0.04-0.54c-0.01-0.09-0.01-0.17-0.03-0.25
	c-0.01-0.08-0.04-0.16-0.09-0.23c-0.01-0.07-0.04-0.13-0.09-0.18c-0.08-0.1-0.21-0.15-0.33-0.15c-0.92-2.19-1.82-4.38-2.68-6.59
	c-3.04-7.95-6.32-15.84-10.4-23.32c-9-17.16-19.59-33-32.51-47.26c-7.66-8.57-15.71-16.8-24.48-24.18
	c-0.23-0.27-0.47-0.55-0.76-0.76c-0.25-0.18-0.51-0.35-0.77-0.51c-2.75-2.27-5.57-4.44-8.48-6.53c-1.55-1.34-0.91-3.36,0.43-4.19
	c0.31,0.21,0.62,0.42,0.92,0.63c0.39,0.26,0.79,0.5,1.18,0.75c0.35,0.23,0.7,0.47,1.06,0.7c0.24,0.15,0.48,0.29,0.72,0.45
	c0.15,0.1,0.3,0.22,0.49,0.25c0.14,0.02,0.28,0,0.4-0.08c0.05-0.04,0.1-0.07,0.14-0.12c0.09-0.06,0.19-0.1,0.28-0.17
	c0.1-0.07,0.17-0.17,0.25-0.26c20.81,15.88,38.57,35.75,53.2,57.39c8.76,13.89,16.8,28.32,22.54,43.74
	c1.34,3.47,2.68,6.91,4.17,10.3c0,0.01,0,0.01,0,0.02c0.02,0.13,0.04,0.26,0.04,0.39v-0.01c0.03,0.46,0.01,0.91,0.1,1.35
	c0.04,0.21,0.09,0.4,0.15,0.6c0.04,0.13,0.09,0.25,0.14,0.37c-0.01,0.06,0,0.13,0.01,0.2c0.03,0.13,0.07,0.27,0.11,0.4
	c0.04,0.17,0.07,0.35,0.12,0.52c0,0,0,0,0,0c0.12,0.43,0.17,0.87,0.25,1.31C348.27,228.51,345.04,228.27,344.65,225.68z"/>
<path d="M349.18,225.41c0,0.01,0.01,0.02,0.01,0.03C349.19,225.43,349.18,225.42,349.18,225.41z"/>
<path d="M273.96,118.46c-0.62,0.55-1.46,0.74-2.24,0.59c-0.18-0.13-0.36-0.25-0.56-0.36c-0.7-0.44-1.42-0.85-2.15-1.23
	c-1.47-1-2.97-1.98-4.47-2.93c-7.51-4.65-14.81-8.46-22.48-12.61c-1.25-0.66-1.86-2.13-1.23-3.46c0.25-0.53,0.68-0.94,1.2-1.2
	c0.37,0.15,0.74,0.3,1.11,0.45c0.81,0.46,1.67,0.84,2.53,1.2c0.05,0.02,0.11,0.04,0.16,0.07c0.12,0.05,0.23,0.12,0.36,0.12
	c0.01,0.01,0.03,0.01,0.04,0c0.16,0.1,0.33,0.18,0.49,0.26c0,0,0,0-0.01-0.01c0.39,0.21,0.78,0.42,1.16,0.65
	c0.23,0.13,0.46,0.25,0.69,0.39c0.07,0.04,0.14,0.09,0.22,0.13c0.03,0.02,0.06,0.04,0.09,0.05c0.22,0.12,0.44,0.25,0.68,0.36
	c0.41,0.22,0.83,0.44,1.24,0.64c0.46,0.23,0.92,0.45,1.38,0.68c0.46,0.22,0.93,0.43,1.39,0.63c-0.01-0.01-0.03-0.01-0.04-0.02
	c0.51,0.22,1.03,0.43,1.54,0.64c0.81,0.43,1.61,0.89,2.42,1.35c0.69,0.42,1.38,0.85,2.08,1.24c0.33,0.18,0.66,0.36,1.01,0.52
	c0.28,0.14,0.58,0.26,0.87,0.39c-0.01,0-0.01-0.01-0.02-0.01c0.02,0.01,0.03,0.02,0.05,0.03c0,0,0.01,0,0.01,0c0,0,0,0,0,0
	c0.05,0.03,0.1,0.05,0.15,0.08c0.04,0.02,0.09,0.04,0.13,0.07c0,0,0,0,0.01,0h0.01c-0.01,0-0.01,0-0.01,0s0,0,0.01,0
	c0,0.01,0,0.01,0.01,0.01c0.41,0.23,0.8,0.47,1.2,0.73c0.36,0.24,0.72,0.49,1.08,0.74c0.39,0.25,0.8,0.5,1.18,0.75
	c0.36,0.23,0.7,0.47,1.06,0.7c0.24,0.15,0.48,0.29,0.72,0.45c0.15,0.1,0.3,0.22,0.49,0.25c0.14,0.02,0.28,0,0.41-0.09
	c0.03-0.01,0.06-0.04,0.1-0.07c1.26,0.81,2.52,1.64,3.76,2.48c1.46,0.75,3.06,2.04,3.06,3.53
	C274.85,117.2,274.6,117.83,273.96,118.46z"/>
<path d="M246.69,99.32c0.01,0.01,0.03,0.01,0.04,0.02C246.72,99.34,246.7,99.33,246.69,99.32z"/>
<path d="M151.96,209.17c-2.92-0.05-2.72-2.61-2.89-4.68c-1.36-11.03-9.28-20.58-18.41-26.29c-14.45-9.08-30.59-0.22-40.9,10.94
	c-2.74,3.99-5.48,8.01-7.82,12.25c-0.36,2.03-3.26,2.82-4.59,1.2c-1.89-2.42,1.14-5,2.07-7.22c2.2-3.32,4.23-6.76,6.66-9.91
	c16.02-16.76,36.55-23.37,54.96-5.88c4.76,4.73,8.99,10.4,11.43,16.69c0.5,1.73,1.98,6.02,1.98,9.18
	C154.43,207.47,153.82,209.04,151.96,209.17z"/>
<path d="M284.07,212.11c-2.29,1.11-3.53-0.94-4.36-2.59c-2.35-3.75-5.49-6.82-8.56-9.97c-11.85-8.44-29.2-11.82-42.35-4.5
	c-7.37,4.55-11.54,12.93-16.4,19.56c-1.04,1.84-3.98,1.53-4.65-0.48c-0.6-1.81,0.73-2.86,1.49-4.23c2.42-3.04,4.18-5.98,6.33-9.14
	c6.08-9.06,16.26-14.67,27.18-14.86c14.76-0.48,30.11,5.2,38.93,17.42c1.09,1.71,3.73,4.34,3.73,6.54
	C285.42,210.72,285.05,211.48,284.07,212.11z"/>
<path d="M191.58,265.51c-0.11,0.76-0.38,1.49-0.62,2.22c-0.39,1.17-0.87,2.32-1.4,3.43c-0.56,1.15-1.29,2.22-2.01,3.26
	c-1.49,2.21-3.34,4.4-5.74,5.66c-1.35,0.71-2.8,1.11-4.33,0.95c-1.53-0.16-2.81-0.88-3.87-1.97c-0.37-0.38-0.67-0.83-1-1.25
	c-0.44-0.56-0.88-1.11-1.29-1.69c-0.8-1.09-1.48-2.22-2.15-3.39c-0.59-1-1.23-1.98-1.85-2.97c-0.79-1.26-1.52-2.56-2.21-3.88
	c-0.64-1.21-1.48-2.72-0.97-4.13c0.39-1.09,1.49-1.76,2.6-1.71c0.2-0.1,0.42-0.17,0.65-0.23c0.66-0.17,1.25-0.03,1.85,0.15
	c0.03,0.01,0.06,0.01,0.08,0.01c0.07,0.01,0.16,0.01,0.23,0.01c0.59,0,1.19-0.03,1.79-0.05c1.17-0.05,2.31,0.04,3.48,0.08
	c1.09-0.01,2.19-0.17,3.29-0.21c1.23-0.05,2.46-0.04,3.64-0.03c1.42,0.01,2.82,0.06,4.21,0.36c1.15,0.25,2.27,0.64,3.33,1.12
	c0.85,0.39,1.61,1.02,2.03,1.87c0.24,0.51,0.33,1.03,0.33,1.58C191.65,264.97,191.63,265.25,191.58,265.51z M174.09,270.92
	c0.51,0.9,1.11,1.74,1.72,2.57c0.55,0.72,1.09,1.48,1.71,2.15c0.02,0.03,0.05,0.05,0.07,0.07c0.02,0.01,0.05,0.03,0.07,0.04
	c0.01,0.01,0.02,0.01,0.03,0.02c0.04,0.01,0.07,0.03,0.11,0.04c0.07,0.02,0.15,0.04,0.22,0.05c0.05,0.01,0.1,0.01,0.15,0.01
	c0.07-0.01,0.13-0.01,0.19-0.01c0.07-0.01,0.16-0.03,0.24-0.04c0.11-0.04,0.23-0.08,0.35-0.13c0.16-0.07,0.31-0.15,0.47-0.23
	c0.26-0.16,0.51-0.32,0.77-0.5c0.28-0.23,0.55-0.47,0.82-0.72c0.47-0.47,0.91-0.95,1.32-1.46c0.77-1,1.47-2.04,2.13-3.11
	c0.28-0.48,0.53-0.97,0.76-1.48c0.36-0.85,0.69-1.71,0.98-2.59c-0.24-0.09-0.48-0.16-0.71-0.24c-0.37-0.1-0.74-0.18-1.11-0.25
	c-0.78-0.1-1.56-0.14-2.29-0.15c-0.56-0.01-1.11-0.02-1.31-0.03c-1.43-0.01-2.86,0.04-4.27,0.18c-1.33,0.13-2.65,0.01-3.98-0.02
	c-0.62,0.01-1.26,0.05-1.9,0.07C171.8,267.16,173.06,269.08,174.09,270.92z"/>
<path d="M187.09,267.62c-0.62,3.3-3.05,6.65-6.22,7.9c-0.64,2.01-3.6,2.67-4.85,0.91c-1.87-0.73-3.34-3.01-2.24-4.92
	c-0.25-0.25-0.48-0.55-0.68-0.87c-3.89,0.01-6-6.67-1.69-7.74c1.29-0.38,2.82-0.18,3.53,1.03c0.82,0.06,1.6,0.42,2.07,1.06
	c0.35-0.25,0.73-0.45,1.13-0.59c0.34-0.12,0.71-0.18,1.09-0.18c0.3-0.32,0.68-0.57,1.13-0.71c0.5-0.17,1.03-0.22,1.54-0.13
	c2.8-1.54,5.31,0.39,5.31,3.16C187.22,266.89,187.18,267.25,187.09,267.62z"/>
<path d="M184.16,265.57c-1.72,0.34-4.01,0.96-4.95-1.01c-0.54-0.07-1.09-0.16-1.64-0.2c-2.49-0.09-4.98,0.07-7.47,0.04
	c1,3.09-3.42,4.85-4.82,1.9c-0.36-1.18-1.34-1.9-1.61-3.12c-0.71-2.19,1.52-3.92,3.52-4.01c4,0.55,18.83-1.76,18.95,3.75
	c0,0.01,0,0.02,0,0.03C186.14,264.15,185.32,265.24,184.16,265.57z"/>
<path d="M191.66,269.33c-1.51,2.09-4.98,5.96-7.42,3.05c-0.83-1.14-0.56-2.8,0.59-3.62c1.48-0.88,2.52-2.19,3.48-3.57
	c-0.39-0.2-0.8-0.39-1.22-0.55c-0.39-0.14-0.77-0.27-1.17-0.39c-1.26,0.62-2.78,0.04-4.13,0.2c-2.33,0.13-4.64,0.5-6.96,0.64
	c-1.27,0.07-2.55,0.03-3.82,0.16c-1.06,0.49-2.5,0.11-3.15-0.91c-3.29,1.78-5.71-2.71-2.64-4.68c5.26-2.7,28.61-2.86,28.61,5.01
	C193.82,265.99,193.17,267.54,191.66,269.33z"/>
<path d="M191.58,269.36c-2.48,2.88-5.16,6.07-8.7,7.62c-1.9,0.71-4.33-0.39-4.58-2.51c-0.32-1.91,1.76-3.58,3.54-2.77
	c1.68-1.23,3.18-2.68,4.58-4.21c1.03-1.55,2.83-3.17,4.68-1.76c0.65,0.5,1.01,1.3,1.01,2.1
	C192.1,268.37,191.93,268.91,191.58,269.36z"/>
<path d="M191.91,269.18c-1.18,3-3.32,5.43-5.69,7.57c-1.89,1.55-4.65,5.18-7.03,2.45c-0.88-1.13-0.66-2.76,0.45-3.64
	c3.25-2.66,6.41-5.23,7.88-9.19c-0.07-2.27,1.3-3.23,2.67-3.15c1.34,0.08,2.68,1.16,2.68,3
	C192.86,267.06,192.59,268.06,191.91,269.18z"/>
<path d="M194.28,265.55c-1.22,5.82-5.95,10.36-10.5,13.68c-1.29,0.82-2.51,2.22-4.16,2.05c-2.59-0.28-3.09-4.04-0.68-4.97
	c4.07-2.76,8.21-6.1,10.03-10.8c-1.99-0.43-4.99-1.27-4.33-3.92c0.35-1.31,1.83-2.29,3.17-1.84c2.94,0.96,6.58,1.12,6.58,4.63
	C194.4,264.73,194.36,265.12,194.28,265.55z"/>
<path d="M181.3,279c-0.22,7.9-6.61,14.15-13.6,16.95c-5.09,1.98-10.64,0.76-15.8-0.3c-2.27-0.58-6.43-1.27-5.4-4.53
	c1.14-2.58,3.35-1.55,5.37-0.85c4.69,1.05,9.84,2.5,14.5,0.63c3.67-1.7,7.08-4.49,8.93-8.15c0.7-1.78,0.78-4.07,1.06-5.79
	c-0.51-2.33,2.6-4.04,4.32-2.33c0.67,0.64,0.87,1.44,0.87,2.27C181.55,277.61,181.41,278.33,181.3,279z"/>
<path d="M202.76,294.66c-0.12,1.4-1.4,2.48-2.8,2.36c-2.55-0.2-5.11-0.23-7.63-0.62c-5.25-0.63-10.57-2.39-14.26-6.36
	c-1.92-1.9-2.9-4.56-2.85-7.24c-0.1-2.55,0.83-6.62,4.21-5.15c1.63,0.9,1.39,2.39,1.14,3.93c-0.15,0.97-0.3,1.95,0.01,2.81
	c1.98,4.79,7.91,6.24,12.58,6.9c2.83,0.85,9.59-0.95,9.59,3.27C202.76,294.59,202.76,294.62,202.76,294.66z"/>
<path d="M21.85,268.32c-1.11,0.39-2.36-0.22-2.74-1.34c-2.56-5.88-5.07-11.82-6.38-18.12c-0.1-0.84-0.1-1.69,0.35-2.44
	c1.19-2,4.48-0.62,3.92,1.61c0.87,3.93,2.14,7.83,3.6,11.6c0.51,1.69,2.66,4.53,2.66,6.62C23.26,267.12,22.88,267.86,21.85,268.32z"
	/>
<path d="M22.55,264.79c-0.04,1.82-2.59,2.77-3.76,1.32c-2.62-4.42-4.8-9.41-5.29-14.57c-0.19-1.43-0.53-3.29,1.05-4.08
	c1.06-0.53,2.37-0.1,2.91,0.95c0.39,0.8,0.11,1.81,0.33,2.56c0.57,4.54,2.28,8.74,4.47,12.61c0.19,0.33,0.3,0.69,0.3,1.08
	C22.55,264.71,22.55,264.75,22.55,264.79z M22.22,263.54c-0.03-0.05-0.06-0.1-0.09-0.15c-0.03-0.04-0.07-0.08-0.1-0.13
	C22.1,263.35,22.17,263.44,22.22,263.54z"/>
<path d="M24.15,271.42c-1.35,0.49-2.57-0.49-2.95-1.76c-0.74-1.81-1.44-3.26-2.11-5.04c-1.99-4.78-4.18-9.57-5.05-14.63
	c0-0.41-0.07-0.83-0.14-1.25c-0.13-0.74-0.25-1.48,0.05-2.18c0.71-1.6,3.15-1.71,3.92-0.09c0.71,5.77,2.8,11,5.1,16.24
	c0,0,0-0.01,0-0.01c0.56,1.41,1.32,3.25,1.88,4.51c0.4,0.69,0.7,1.5,0.7,2.24C25.54,270.29,25.17,271.03,24.15,271.42z"/>
<path d="M22.95,262.69C22.95,262.69,22.96,262.69,22.95,262.69c0.01,0.01,0.01,0.01,0.01,0.02
	C22.96,262.7,22.95,262.69,22.95,262.69z"/>
<path d="M22.94,262.67c0,0.01,0.01,0.01,0.01,0.02C22.95,262.68,22.94,262.67,22.94,262.67z"/>
<path d="M29.78,188.98c-0.39,0.7-0.78,1.39-1.16,2.1c0.1,0.16,0.07,0.38-0.04,0.54c-1.22,1.95-2.34,3.98-3.43,5.98
	c-0.23,0.62-1.14,0.37-0.9-0.28c0.2-0.29,0.38-0.59,0.54-0.91c-0.04-0.06-0.07-0.13-0.08-0.2c-0.24,0.32-0.43,1-0.94,0.75
	c-0.2-0.1-0.3-0.39-0.17-0.59c0.25-0.46,0.51-0.93,0.77-1.39c0.02-0.01,0.04-0.01,0.07-0.03c0.15-0.1,0.22-0.27,0.19-0.43
	c0.04-0.07,0.08-0.14,0.13-0.21c0.01-0.02,0.03-0.05,0.04-0.07c0-0.01,0.01-0.01,0.01-0.02c0.81-1.42,1.66-2.81,2.61-4.16
	c0.42-0.45,0.75-1.93,1.52-1.38c0.2-0.51,0.9-0.36,0.9,0.09C29.83,188.83,29.81,188.9,29.78,188.98z"/>
<path d="M25.17,196.36c-0.87-0.21-1.6-0.89-2.01-1.68c-0.62,0.1-1.36-0.97-0.56-1.23c-0.16-0.29-0.21-0.71,0.17-0.84
	c0.62-0.1,0.66,0.69,0.87,1.16c-0.04,0.07-0.05,0.16-0.05,0.25c0,0.04,0,0.07,0,0.1c0.01,0.07,0.02,0.13,0.04,0.19
	c0.01,0.01,0.01,0.01,0.01,0.01c0,0,0,0.01,0.01,0.01v0.01c0.05,0.16,0.09,0.31,0.18,0.45c0.12,0.21,0.39,0.26,0.59,0.14
	c0.03-0.02,0.05-0.04,0.07-0.06c0.32,0.25,1.11,0.72,1.11,1.09C25.6,196.13,25.48,196.26,25.17,196.36z"/>
<path d="M25.88,194.42c-0.05,0.13-0.16,0.22-0.28,0.25c-0.11,0.14-0.26,0.2-0.37,0.32c-0.48,0.68-1.52,0.83-1.88-0.05
	c-0.07-0.25-0.16-0.43-0.28-0.65c-0.15-0.43-0.47-0.75-0.59-1.19c-0.3-0.47,0.45-0.94,0.73-0.46c0.16,0.45,0.48,0.83,0.64,1.27
	c0.19,0.22,0.22,0.68,0.41,0.79c0.01,0,0.01,0,0.01,0c0.39-0.27,0.61-0.64,1.02-0.85c0.3-0.11,0.63,0.12,0.63,0.42
	C25.91,194.32,25.9,194.37,25.88,194.42z M25.25,194.97c0.01-0.01,0.01-0.01,0.01-0.02C25.26,194.96,25.25,194.97,25.25,194.97
	C25.25,194.97,25.25,194.97,25.25,194.97z"/>
<path d="M363.76,54.78c-0.24,0.03-0.44-0.15-0.48-0.38c-0.85-5.13-1.55-10.41-3.98-15.07c-0.35,0.28-0.96-0.02-0.77-0.49
	c-1.7-4.53-6.04-8.33-11.01-8.29c-0.48,0.17-0.99-0.36-0.56-0.78c2.2-1.94,5.09-0.35,7.02,1.2c2.24,1.51,4.84,3.58,5.21,6.39
	c3.15,5.11,4.01,11.13,4.95,16.94c0,0.02,0.01,0.05,0.01,0.07C364.15,54.57,363.97,54.76,363.76,54.78z M350.2,30
	c0.33,0.1,0.65,0.2,0.98,0.31c0.22,0.07,0.45,0.16,0.68,0.25c-0.9-0.48-1.85-1.02-2.85-0.8C349.4,29.81,349.8,29.89,350.2,30z"/>
<path d="M344.56,224.68c-0.5,0.26-0.7-0.33-0.8-0.71c-0.35-1.14-0.93-2.19-1.09-3.36c-0.25-0.75-0.48-1.5-0.7-2.26
	c-0.07-0.22,0.07-0.48,0.3-0.54c0.69-0.11,0.62,0.87,0.83,1.3c0.47-0.14,0.85,0.23,1.12,0.56c0.17,0.07,0.28,0.25,0.25,0.44
	c-0.04,0.36-0.48,0.49-0.73,0.28c0.1,0.7,0.8,1.47,0.48,2.15c0.06,0.5,0.52,1.14,0.52,1.66
	C344.75,224.38,344.69,224.54,344.56,224.68z"/>
<path d="M340.33,285.66c-0.91,2.04-2.24,3.9-3.79,5.52c-0.25,0.23-0.45,0.65-0.83,0.64c-0.43-0.04-0.54-0.62-0.17-0.83
	c1.03-1.05,1.95-2.14,2.71-3.37c-0.16-0.58,0.48-1.14,0.57-1.68c-0.11-0.39,0.34-0.67,0.65-0.49c0.18-0.47,0.88-0.36,0.88,0.11
	C340.34,285.59,340.33,285.62,340.33,285.66z"/>
</svg>
